<svg width="199" height="284" viewBox="0 0 199 284" fill="none" xmlns="http://www.w3.org/2000/svg">
<path d="M116.245 143.728C117.402 144.875 118.873 145.653 120.472 145.965C122.071 146.276 123.726 146.106 125.229 145.476C126.731 144.847 128.013 143.786 128.913 142.427C129.812 141.069 130.289 139.475 130.282 137.846C130.275 136.217 129.786 134.626 128.875 133.275C127.965 131.924 126.674 130.874 125.167 130.256C123.659 129.639 122.002 129.483 120.406 129.807C118.809 130.131 117.345 130.921 116.197 132.078C115.435 132.846 114.832 133.756 114.422 134.758C114.012 135.759 113.803 136.831 113.808 137.913C113.812 138.995 114.03 140.065 114.448 141.063C114.866 142.061 115.477 142.966 116.245 143.728Z" fill="#3D3737"/>
<path d="M114.409 147.643C117.069 150.285 123.112 148.509 127.895 143.679C132.677 138.85 134.403 132.798 131.742 130.159C129.081 127.519 123.042 129.294 118.255 134.122C113.468 138.951 111.748 145.001 114.409 147.643Z" fill="#393939"/>
<path d="M131.743 130.156L114.407 147.636L134.947 168.006L152.283 150.527L131.743 130.156Z" fill="#393939"/>
<path d="M146.854 155.256C145.17 154.974 143.867 155.599 142.407 155.936C142.323 155.825 142.245 155.708 142.171 155.584C142.039 155.36 141.924 155.121 141.829 154.869L144.038 154.146C144.083 154.132 144.08 154.068 144.033 154.035C143.14 153.41 142.616 152.558 142.188 151.648C142.152 151.573 142.237 151.527 142.298 151.589C143.667 152.978 145.271 154.035 146.877 155.151C146.933 155.19 146.917 155.267 146.854 155.256Z" fill="#FF3848"/>
<path d="M147.179 153.634C146.418 152.874 144.159 150.769 142.58 150.423C141.654 150.21 140.659 150.128 139.616 150.176C138.968 150.207 138.444 150.303 137.774 150.371C137.806 150.129 137.845 149.889 137.885 149.649C137.941 149.318 138.007 148.992 138.082 148.673C138.082 148.673 140.039 148.459 141.054 148.545C142.489 148.676 143.756 149.141 144.778 149.913C144.912 150.011 145.041 150.115 145.188 150.234C145.25 150.285 145.323 150.238 145.291 150.167C144.549 148.555 143.009 145.705 142.576 144.908C142.536 144.835 142.427 144.851 142.411 144.933C142.166 146.128 142.022 147.191 141.771 148.37C141.526 148.326 141.279 148.294 141.031 148.273C140.762 148.25 140.496 148.236 140.231 148.23C140.249 148.143 140.265 148.065 140.287 147.99C140.677 146.699 141.08 145.413 141.456 144.115C141.612 143.573 141.837 143.039 141.646 142.395C141.63 142.341 141.699 142.323 141.733 142.373C144.124 145.948 145.686 149.747 147.308 153.568C147.343 153.654 147.248 153.703 147.179 153.634Z" fill="#FF3848"/>
<path d="M136.256 157.996C136.19 157.939 136.231 157.852 136.308 157.883C137.242 158.257 138.123 158.73 138.799 159.584C138.834 159.63 138.898 159.629 138.91 159.583L139.502 157.336C139.76 157.416 140.005 157.516 140.236 157.635C140.364 157.701 140.486 157.772 140.601 157.85C140.351 159.327 139.803 160.664 140.183 162.33C140.198 162.391 140.122 162.412 140.08 162.358C138.872 160.821 137.722 159.281 136.256 157.996Z" fill="#FF3848"/>
<path d="M127.04 157.884C127.695 158.037 128.214 157.782 128.745 157.594C130.02 157.143 131.279 156.665 132.546 156.2C132.619 156.173 132.697 156.153 132.782 156.13C132.804 156.394 132.833 156.659 132.872 156.926C132.907 157.173 132.954 157.417 133.012 157.659C132.022 157.932 130.335 158.406 129.7 158.585C129.619 158.608 129.614 158.721 129.693 158.752C131.509 159.481 133.16 160.344 135.013 161.067C135.085 161.095 135.128 161.02 135.074 160.96C134.946 160.82 134.834 160.698 134.729 160.57C133.898 159.595 133.359 158.357 133.145 156.932C132.999 155.924 133.098 153.958 133.098 153.958C133.413 153.864 133.734 153.78 134.061 153.704C134.298 153.65 134.536 153.598 134.775 153.551C134.747 154.224 134.682 154.752 134.689 155.402C134.702 156.446 134.843 157.434 135.109 158.346C135.548 159.901 137.781 162.032 138.585 162.749C138.657 162.813 138.614 162.912 138.527 162.88C134.617 161.485 130.733 160.148 127.024 157.971C126.971 157.941 126.985 157.871 127.04 157.884Z" fill="#FF3848"/>
<path d="M116.042 149.795C116.774 149.92 118.857 150.214 119.93 150.111C120.968 150.015 122.032 149.829 123.111 149.554C123.194 149.533 123.277 149.511 123.361 149.489C125.974 148.787 128.386 147.7 130.985 146.974C131.558 144.337 132.502 141.865 133.049 139.215C133.066 139.131 133.083 139.047 133.099 138.962C133.31 137.869 133.434 136.796 133.468 135.754C133.509 134.677 133.093 132.615 132.925 131.891C132.906 131.81 133.003 131.779 133.063 131.847C133.936 132.841 137.245 136.628 138.727 138.361C139.465 139.223 140.156 140.121 140.87 141.001C140.989 141.147 141.004 141.254 140.917 141.386C140.685 141.74 140.472 142.109 140.26 142.478C138.999 144.661 137.929 146.951 137.481 149.596C137.36 150.249 137.293 150.889 137.282 151.508C137.283 151.524 137.288 151.538 137.296 151.55C137.304 151.561 137.315 151.569 137.329 151.574C138.164 151.892 138.901 152.353 139.522 152.943C139.566 152.985 139.64 152.951 139.636 152.89C139.611 152.119 139.66 151.317 139.781 150.495C140.324 150.474 140.854 150.49 141.367 150.543C141.353 150.648 141.223 152.633 141.225 153.6C141.246 154.435 141.455 155.181 141.838 155.79C142.16 156.338 142.605 156.779 143.154 157.092C143.223 157.132 143.3 157.131 143.349 157.089C144.161 156.394 145.163 156.058 146.346 156.132C147.601 156.211 148.352 157.132 148.686 157.67C148.72 157.724 148.655 157.76 148.612 157.712C148.295 157.333 147.856 157.08 147.331 156.973C146.368 156.808 145.719 156.868 144.951 157.218C144.896 157.242 144.842 157.277 144.793 157.319C144.743 157.362 144.699 157.412 144.664 157.466C144.628 157.52 144.601 157.576 144.585 157.632C144.569 157.688 144.564 157.743 144.57 157.792C144.576 157.841 144.532 157.87 144.482 157.85C143.619 157.501 142.747 157.182 141.897 156.782C141.623 156.654 141.37 156.497 141.141 156.313C141.138 156.339 141.13 156.367 141.117 156.395C141.104 156.423 141.087 156.45 141.065 156.474C141.044 156.499 141.019 156.52 140.993 156.538C140.967 156.555 140.939 156.568 140.912 156.575C141.106 156.791 141.274 157.031 141.416 157.293C141.865 158.118 142.235 158.969 142.634 159.81C142.658 159.859 142.631 159.905 142.581 159.902C142.532 159.899 142.478 159.907 142.423 159.926C142.368 159.946 142.313 159.976 142.261 160.015C142.209 160.053 142.162 160.1 142.123 160.152C142.083 160.204 142.051 160.26 142.03 160.316C141.726 161.103 141.705 161.755 141.926 162.706C142.064 163.224 142.342 163.647 142.738 163.942C142.789 163.982 142.756 164.048 142.701 164.018C142.144 163.716 141.18 163.02 141.028 161.772C140.885 160.596 141.161 159.575 141.808 158.724C141.847 158.673 141.843 158.596 141.799 158.529C141.455 158 140.989 157.581 140.422 157.292C139.792 156.945 139.035 156.78 138.2 156.809C137.235 156.863 135.261 157.109 135.157 157.129C135.074 156.62 135.027 156.093 135.016 155.549C135.83 155.38 136.627 155.285 137.399 155.265C137.46 155.265 137.489 155.19 137.445 155.147C136.819 154.562 136.316 153.852 135.948 153.037C135.943 153.024 135.934 153.014 135.922 153.006C135.91 152.999 135.896 152.996 135.88 152.996C135.263 153.043 134.628 153.147 133.983 153.307C131.369 153.909 129.146 155.111 127.04 156.498C126.685 156.732 126.329 156.965 125.989 157.218C125.862 157.313 125.754 157.304 125.601 157.194C124.681 156.532 123.744 155.895 122.84 155.21C121.023 153.831 117.048 150.75 116.006 149.937C115.935 149.879 115.96 149.781 116.042 149.795ZM139.734 155.654C139.853 155.676 139.979 155.686 140.109 155.685C140.12 155.687 140.134 155.685 140.148 155.679C140.162 155.673 140.176 155.663 140.187 155.651C140.199 155.639 140.207 155.625 140.213 155.611C140.218 155.596 140.219 155.582 140.216 155.571C140.21 155.441 140.192 155.317 140.163 155.199C139.922 154.442 139.427 153.868 138.738 153.544C138.383 153.359 137.997 153.218 137.584 153.122C137.538 153.111 137.496 153.155 137.51 153.201C137.629 153.607 137.793 153.984 137.999 154.328C138.362 154.997 138.964 155.457 139.734 155.654ZM120.274 151.98C122.366 153.682 124.226 155.019 124.823 155.442C124.862 155.483 124.917 155.507 124.98 155.514C125.044 155.521 125.115 155.509 125.187 155.479C126.894 154.403 128.637 153.461 130.391 152.664C131.893 151.955 133.403 151.494 134.851 151.304C135.037 151.281 135.229 151.267 135.426 151.263C135.437 151.265 135.45 151.263 135.463 151.257C135.476 151.251 135.489 151.242 135.499 151.231C135.51 151.22 135.518 151.207 135.523 151.193C135.528 151.18 135.53 151.167 135.527 151.156C135.52 150.959 135.522 150.766 135.534 150.58C135.639 149.123 136.01 147.588 136.63 146.048C137.323 144.249 138.161 142.455 139.135 140.687C139.16 140.614 139.168 140.542 139.158 140.479C139.148 140.416 139.12 140.363 139.077 140.326C138.62 139.755 137.176 137.976 135.354 135.988C135.304 135.933 135.225 135.952 135.229 136.016C135.237 136.132 135.243 136.235 135.246 136.337C135.283 137.954 135.045 139.675 134.542 141.437C134.078 143.129 133.579 144.804 133.087 146.482C134.238 146.259 135.288 146.114 135.81 146.048C135.892 146.048 135.961 146.075 136.01 146.126C136.058 146.177 136.083 146.249 136.081 146.334C135.863 147.288 135.238 150.05 135.122 150.828C135.117 150.861 135.103 150.872 135.075 150.878C134.305 151.04 131.585 151.825 130.644 152.099C130.56 152.106 130.486 152.085 130.433 152.04C130.379 151.995 130.348 151.927 130.343 151.845C130.379 151.32 130.461 150.263 130.617 149.102C128.97 149.691 127.328 150.287 125.666 150.85C123.936 151.455 122.232 151.794 120.616 151.852C120.514 151.855 120.411 151.855 120.295 151.854C120.23 151.853 120.217 151.933 120.274 151.98ZM132.511 148.49C132.394 148.944 132.292 149.412 132.173 149.907C132.169 149.939 132.178 149.967 132.197 149.986C132.215 150.004 132.244 150.011 132.276 150.006L133.694 149.612C133.704 149.61 133.713 149.606 133.722 149.601C133.731 149.595 133.74 149.588 133.748 149.58C133.755 149.572 133.762 149.563 133.767 149.554C133.772 149.544 133.775 149.534 133.776 149.525L134.086 148.086C134.089 148.054 134.081 148.026 134.061 148.008C134.042 147.99 134.014 147.984 133.981 147.989C133.494 148.136 133.033 148.266 132.587 148.41C132.57 148.415 132.553 148.426 132.539 148.44C132.526 148.455 132.516 148.473 132.512 148.49L132.511 148.49Z" fill="#FF3848"/>
<path d="M123.236 131.491C124.04 132.207 126.273 134.338 126.711 135.893C126.978 136.806 127.119 137.794 127.132 138.838C127.139 139.487 127.074 140.016 127.045 140.688C127.285 140.642 127.522 140.59 127.76 140.535C128.086 140.46 128.407 140.375 128.722 140.282C128.722 140.282 128.821 138.316 128.675 137.308C128.461 135.883 127.922 134.645 127.091 133.669C126.986 133.542 126.874 133.419 126.747 133.279C126.693 133.22 126.735 133.144 126.807 133.173C128.461 133.819 131.396 135.189 132.217 135.575C132.292 135.61 132.282 135.72 132.202 135.741C131.023 136.056 129.97 136.261 128.808 136.581C128.866 136.823 128.913 137.067 128.948 137.314C128.987 137.581 129.017 137.846 129.038 138.11C129.124 138.087 129.201 138.067 129.274 138.04C130.541 137.575 131.8 137.098 133.075 136.646C133.606 136.458 134.126 136.203 134.78 136.356C134.836 136.369 134.849 136.299 134.797 136.268C131.088 134.091 127.204 132.754 123.294 131.359C123.206 131.328 123.163 131.426 123.236 131.491Z" fill="#FF3848"/>
<path d="M120.174 151.845C119.983 151.201 120.208 150.667 120.364 150.126C120.74 148.827 121.142 147.542 121.533 146.25C121.556 146.176 121.571 146.097 121.589 146.011C121.324 146.004 121.058 145.99 120.789 145.968C120.541 145.946 120.294 145.914 120.049 145.871C119.835 146.875 119.46 148.586 119.319 149.231C119.301 149.314 119.188 149.325 119.152 149.248C118.319 147.478 117.36 145.88 116.529 144.073C116.497 144.002 116.57 143.955 116.633 144.006C116.78 144.125 116.908 144.23 117.042 144.327C118.065 145.099 119.332 145.564 120.767 145.695C121.782 145.781 123.739 145.568 123.739 145.568C123.813 145.247 123.879 144.922 123.935 144.592C123.976 144.351 124.014 144.111 124.046 143.869C123.376 143.937 122.852 144.033 122.204 144.064C121.161 144.113 120.166 144.03 119.24 143.817C117.662 143.471 115.403 141.366 114.641 140.606C114.572 140.537 114.477 140.586 114.513 140.671C116.135 144.493 117.697 148.291 120.088 151.867C120.121 151.918 120.191 151.9 120.174 151.845Z" fill="#FF3848"/>
<path d="M129.49 142.49L126.847 143.072L126.42 145.745L129.446 145.524L129.49 142.49ZM131.376 140.286L131.276 147.249L124.331 147.757L125.31 141.623L131.376 140.286L131.376 140.286Z" fill="#FF3848"/>
<path d="M125.183 136.518L119.91 136.904L119.834 142.191L124.439 141.176L125.183 136.518M127.272 134.507L125.976 142.625L117.948 144.395L118.08 135.179L127.272 134.507Z" fill="#FF3848"/>
<path d="M134.949 168.015C137.611 170.657 143.653 168.882 148.437 164.052C153.22 159.221 154.946 153.172 152.282 150.531C149.619 147.891 143.585 149.667 138.798 154.495C134.011 159.323 132.289 165.378 134.949 168.015Z" fill="#393939"/>
<path d="M135.794 167.165C138.198 169.549 143.651 167.947 147.969 163.589C152.286 159.231 153.843 153.767 151.439 151.384C149.034 149.002 143.586 150.603 139.266 154.963C134.947 159.323 133.393 164.784 135.794 167.165Z" fill="#5A5A5A"/>
<path d="M127.068 142.862C127.585 142.34 128.287 142.046 129.021 142.043C129.755 142.039 130.46 142.328 130.981 142.844L133.741 145.582C133.745 145.585 133.749 145.59 133.751 145.595C133.607 145.715 133.462 145.845 133.318 145.968L131.921 144.584C131.505 144.187 130.95 143.97 130.376 143.978C129.801 143.986 129.253 144.219 128.848 144.627C128.443 145.035 128.215 145.585 128.212 146.16C128.208 146.734 128.43 147.287 128.83 147.7L130.229 149.085C130.106 149.231 129.979 149.377 129.856 149.526C129.853 149.521 129.849 149.518 129.844 149.516L127.083 146.778C126.825 146.522 126.619 146.217 126.479 145.882C126.338 145.546 126.265 145.186 126.264 144.823C126.262 144.459 126.333 144.099 126.471 143.762C126.609 143.426 126.812 143.12 127.068 142.862Z" fill="#212121"/>
<path d="M128.817 144.596C129.02 144.391 129.261 144.229 129.527 144.117C129.792 144.006 130.077 143.948 130.366 143.947C130.654 143.946 130.939 144.001 131.206 144.111C131.473 144.22 131.715 144.381 131.92 144.584L133.317 145.968C132.774 146.432 132.232 146.917 131.704 147.45L131.699 147.457C131.17 147.991 130.687 148.537 130.228 149.085L128.829 147.7C128.624 147.497 128.462 147.256 128.35 146.99C128.239 146.724 128.181 146.439 128.18 146.151C128.179 145.862 128.234 145.577 128.344 145.31C128.453 145.043 128.614 144.801 128.817 144.596Z" fill="#292525"/>
<path d="M125.297 158.441C125.473 155.209 127.663 150.974 131.421 147.18L131.427 147.174C135.185 143.387 139.401 141.16 142.631 140.961L143.378 141.703C140.316 141.562 135.845 143.801 131.968 147.711L131.962 147.717C128.086 151.63 125.884 156.12 126.046 159.184L125.297 158.441Z" fill="#292525"/>
<path d="M156.8 164.202C157.721 162.857 158.223 161.27 158.243 159.641C158.262 158.011 157.798 156.412 156.908 155.047C156.019 153.681 154.744 152.61 153.246 151.969C151.748 151.328 150.093 151.145 148.491 151.444C146.889 151.744 145.412 152.511 144.246 153.65C143.081 154.789 142.279 156.248 141.943 157.843C141.607 159.438 141.751 161.096 142.357 162.609C142.964 164.121 144.005 165.42 145.35 166.341C147.152 167.573 149.371 168.04 151.517 167.639C153.664 167.238 155.564 166.002 156.8 164.202Z" fill="#686868"/>
<path d="M162.229 164.318C164.35 161.226 161.519 155.598 155.909 151.763C150.298 147.928 144.034 147.315 141.917 150.409C139.801 153.502 142.628 159.121 148.24 162.962C153.851 166.803 160.115 167.411 162.229 164.318Z" fill="#393939"/>
<path d="M162.159 164.034L141.85 150.122L160.006 125.561L178.084 137.942L162.159 164.034Z" fill="#393939"/>
<path d="M178.086 137.94C180.205 134.843 177.874 129.564 172.884 126.147C167.894 122.731 162.125 122.466 160.007 125.561C157.889 128.656 160.221 133.928 165.213 137.35C170.205 140.772 175.968 141.03 178.086 137.94Z" fill="#393939"/>
<path d="M160.006 125.562C160.471 123.757 162.555 118.654 165.106 117.358C167.656 116.061 171.776 115.357 178.308 120.705C184.84 126.053 184.971 130.062 183.61 132.385C182.249 134.708 178.744 137.603 177.749 138.365C176.391 139.401 163.189 136.969 160.006 125.562Z" fill="#393939"/>
<path d="M161.153 125.748C161.575 124.111 163.463 119.487 165.776 118.31C168.089 117.134 171.82 116.498 177.741 121.345C183.663 126.191 183.782 129.826 182.547 131.932C181.312 134.038 178.136 136.66 177.235 137.35C176.001 138.293 164.038 136.087 161.153 125.748Z" fill="#686868"/>
<path d="M172.904 146.467C169.786 146.511 165.706 145.125 161.744 142.415L161.736 142.41C157.772 139.697 155.011 136.398 153.925 133.475L154.466 132.77C155.364 135.624 158.165 139.046 162.167 141.783L162.173 141.789C166.174 144.526 170.38 145.906 173.366 145.713L172.904 146.467Z" fill="#292525"/>
<path d="M169.681 119.737C169.681 119.737 170.957 115.016 171.93 111.046" stroke="#FFD00D" stroke-width="3.52314" stroke-miterlimit="10" stroke-linecap="round"/>
<path d="M175.069 121.98C175.069 121.98 175.578 118.281 171.852 122.78" stroke="#FFD00D" stroke-width="3.52314" stroke-miterlimit="10" stroke-linecap="round"/>
<path d="M178.548 126.009C178.548 126.009 178.824 122.595 175.092 126.009" stroke="#FFD00D" stroke-width="3.52314" stroke-miterlimit="10" stroke-linecap="round"/>
<path d="M180.299 129.38C180.299 129.38 185.108 127.534 187.392 126.227" stroke="#FFD00D" stroke-width="3.52314" stroke-miterlimit="10" stroke-linecap="round"/>
<path d="M165.26 124.27C165.26 124.27 163.674 121.565 167.452 122.921" stroke="#FFD00D" stroke-width="3.52314" stroke-miterlimit="10" stroke-linecap="round"/>
<path d="M107.945 219.739C108.59 215.312 110.962 211.322 114.541 208.648C118.119 205.974 122.611 204.835 127.028 205.48C131.444 206.126 135.424 208.505 138.092 212.092C140.759 215.679 141.896 220.182 141.251 224.61C141.251 224.61 132.236 257.539 129.454 264.872C126.671 272.204 122.398 277.979 120.585 277.33C118.772 276.68 106.474 264.027 106.409 256.501C106.345 248.974 107.945 219.739 107.945 219.739Z" fill="#393939"/>
<path d="M121.815 222.175C121.815 222.727 121.979 223.266 122.285 223.725C122.59 224.184 123.025 224.542 123.534 224.753C124.043 224.964 124.602 225.019 125.142 224.912C125.682 224.804 126.178 224.538 126.567 224.148C126.957 223.758 127.222 223.261 127.329 222.719C127.437 222.178 127.382 221.617 127.171 221.107C126.96 220.597 126.603 220.161 126.146 219.855C125.688 219.548 125.15 219.384 124.599 219.384C123.861 219.384 123.153 219.678 122.631 220.202C122.109 220.725 121.815 221.435 121.815 222.175Z" fill="#D1D1D1"/>
<path d="M140.555 217.213C142.453 226.335 138.305 235.56 129.419 238.301C127.307 238.953 125.087 239.182 122.887 238.974C120.686 238.766 118.548 238.125 116.595 237.089C114.642 236.052 112.911 234.64 111.502 232.933C110.094 231.226 109.034 229.257 108.385 227.139C105.651 218.233 100.658 204.844 100.282 202.689C99.9059 200.534 101.482 187.832 110.365 180.064C119.248 172.297 126.38 173.946 128.682 178.25C130.984 182.553 138.362 206.677 140.555 217.213Z" fill="#393939"/>
<path opacity="0.7" d="M110.364 180.064C119.246 172.295 126.379 173.945 128.681 178.249C128.802 178.475 128.939 178.766 129.086 179.097C128.499 181.325 124.758 191.206 119.076 198.217C113.377 205.252 107.926 210.508 103.831 213.486C102.359 209.229 100.456 203.681 100.281 202.684C99.9076 200.535 101.481 187.831 110.364 180.064Z" fill="#292525"/>
<path d="M138.433 207.518C134.491 205.639 130.148 204.763 125.788 204.97C121.427 205.176 117.185 206.458 113.438 208.701C109.951 210.708 107.044 213.588 105.001 217.06C105.117 217.394 105.234 217.731 105.352 218.073C107.274 214.407 110.222 211.382 113.834 209.37C117.571 207.131 121.813 205.878 126.164 205.727C130.514 205.576 134.832 206.532 138.715 208.506C138.621 208.171 138.528 207.844 138.433 207.518Z" fill="#292525"/>
<path d="M58.3591 226.359C59.0173 221.944 61.3944 217.97 64.9696 215.308C68.5448 212.647 73.0266 211.514 77.4333 212.158C81.8399 212.803 85.8122 215.172 88.4799 218.746C91.1477 222.321 92.2934 226.81 91.6661 231.229C91.6661 231.229 82.6511 264.159 79.8674 271.492C77.0837 278.825 72.8119 284.599 70.999 283.95C69.1861 283.302 56.8889 270.648 56.8242 263.116C56.7594 255.584 58.3591 226.359 58.3591 226.359Z" fill="#393939"/>
<path d="M72.2285 228.795C72.2284 229.347 72.3915 229.887 72.6972 230.346C73.003 230.805 73.4377 231.162 73.9463 231.374C74.4549 231.585 75.0147 231.641 75.5547 231.533C76.0948 231.425 76.5909 231.16 76.9803 230.769C77.3697 230.379 77.6349 229.882 77.7423 229.341C77.8498 228.799 77.7948 228.238 77.5841 227.728C77.3734 227.218 77.0166 226.782 76.5588 226.476C76.101 226.169 75.5628 226.005 75.0122 226.005C74.6467 226.005 74.2847 226.077 73.947 226.217C73.6093 226.358 73.3024 226.563 73.0439 226.822C72.7854 227.081 72.5803 227.389 72.4404 227.727C72.3005 228.066 72.2285 228.429 72.2285 228.795Z" fill="#D1D1D1"/>
<path d="M71.5179 159.395C71.5179 171.274 83.0827 180.906 97.3502 180.906C111.618 180.906 123.182 171.274 123.182 159.395C123.182 147.516 111.617 137.884 97.3502 137.884C83.0836 137.884 71.5179 147.515 71.5179 159.395Z" fill="#686868"/>
<path d="M121.245 167.58C123.3 167.58 124.336 169.16 125.114 170.587C125.976 172.292 126.525 174.138 126.733 176.038C126.669 177.012 122.785 187.978 116.636 195.57C110.487 203.161 106.733 204.459 104.273 205.04C101.813 205.621 86.7964 202.119 75.9217 193.946C65.0469 185.773 64.8652 177.989 65.2413 176.946C66.4753 173.956 68.2287 171.21 70.42 168.835C71.0678 168.186 72.1024 167.579 74.304 167.579L121.245 167.58Z" fill="#393939"/>
<path d="M86.8045 181.585C79.7868 176.535 72.0602 175.246 69.2324 178.568C69.3571 177.986 69.598 177.436 69.9405 176.95C72.5676 173.283 80.539 174.515 87.7447 179.703C94.9505 184.891 98.6599 192.069 96.0328 195.737C95.9635 195.833 95.8763 195.912 95.8007 196.001C96.6788 192.096 93.0629 186.091 86.8045 181.585Z" fill="#686868"/>
<path d="M78.2254 192.988C71.9661 188.478 68.3502 182.475 69.2283 178.571C72.0561 175.249 79.7837 176.537 86.8005 181.589C93.0588 186.098 96.6747 192.1 95.7975 196.004C92.9733 199.323 85.2431 198.039 78.2254 192.988Z" fill="#9F9F9F"/>
<path d="M110.181 202.129C114.641 191.82 113.51 174.981 111.738 167.585H112.797C114.457 174.844 115.465 190.28 111.773 200.801C111.215 201.301 110.685 201.738 110.181 202.129Z" fill="#292525"/>
<path d="M96.9713 116.776C104.439 116.932 110.937 117.898 115.987 122.376C121.84 127.566 126.243 149.326 126.243 153.652C126.243 157.977 122.705 159.101 121.925 159.014C121.145 158.928 117.696 154.775 117.006 154.17C116.295 153.448 115.341 153.016 114.33 152.96H103.369C101.816 152.96 100.521 153.651 98.8813 155.124C97.2412 156.598 94.8255 159.022 93.0126 159.022H70.3148C67.6391 159.022 63.8423 154.519 63.3241 151.924C62.8059 149.328 65.3088 133.063 68.4164 126.833C71.524 120.603 77.2209 116.363 96.9713 116.776Z" fill="#FF3848"/>
<path d="M74.4767 120.28C78.7053 117.882 85.4432 116.536 96.9693 116.777C104.437 116.933 110.935 117.899 115.985 122.377C116.085 122.468 116.184 122.573 116.284 122.672C110.552 126.967 93.5576 129.435 74.4767 120.28Z" fill="#A6000D"/>
<path d="M65.9522 138.046C64.8123 144.944 66.9652 150.535 70.7611 150.535C74.557 150.535 78.5598 144.943 79.6997 138.046C80.8396 131.149 78.6875 125.556 74.8908 125.556C71.094 125.556 67.093 131.148 65.9522 138.046Z" fill="#292525"/>
<path d="M101.908 117.137C102.379 117.197 102.845 117.267 103.306 117.348C111.913 130.506 112.266 147.988 112.176 152.964H111.141C111.236 148.032 110.896 130.147 101.908 117.137Z" fill="#A6000D"/>
<path d="M103.845 119.134C110.641 120.182 113.849 122.444 113.849 123.612C113.849 124.78 111.195 129.581 108.57 129.971C104.912 130.512 96.4016 128.025 91.9345 126.143C87.4675 124.262 82.8079 120.692 85.9146 119.849C91.8059 118.579 97.8716 118.337 103.845 119.134Z" fill="#686868"/>
<path d="M58.3591 226.36C57.876 235.666 63.3876 244.144 72.5853 245.488C74.7721 245.809 77.0005 245.694 79.1431 245.151C81.2857 244.607 83.3005 243.646 85.0725 242.322C86.8444 240.998 88.3388 239.337 89.4701 237.434C90.6015 235.53 91.3478 233.422 91.6662 231.23C93.0068 222.01 95.8948 208.013 95.9371 205.825C95.9794 203.638 92.4814 191.327 82.5171 185.015C72.5529 178.704 65.7565 181.428 64.1379 186.036C62.5194 190.643 58.917 215.612 58.3591 226.36Z" fill="#393939"/>
<path d="M59.8666 211.191C63.4752 208.728 67.634 207.197 71.9743 206.731C76.3147 206.266 80.7025 206.881 84.7489 208.523C88.5005 209.97 91.8127 212.37 94.3613 215.486L94.1697 216.543C91.7104 213.215 88.3352 210.678 84.4583 209.245C80.4232 207.607 76.0402 207.02 71.7177 207.539C67.3953 208.057 63.2742 209.665 59.7389 212.211C59.7812 211.871 59.8235 211.532 59.8666 211.191Z" fill="#292525"/>
<path d="M26.9413 58.8331C26.9413 87.1191 59.2821 110.05 99.1777 110.05C139.073 110.05 171.415 87.1191 171.415 58.8331C171.415 30.547 139.073 7.61475 99.1777 7.61475C59.2821 7.61475 26.9413 30.5461 26.9413 58.8331Z" fill="#292525"/>
<path d="M99.1776 0C136.979 0 158.037 23.1866 161.145 30.1936C162.071 32.2816 161.835 33.8266 161.145 34.779C160.455 35.7314 155.017 40.4016 152.946 42.2189C150.875 44.0363 151.306 46.5482 151.565 47.929C151.824 49.3098 161.145 86.8623 161.145 86.8623C145.782 114.027 117.992 122.849 99.1776 122.849C80.3629 122.849 52.5729 114.024 37.2113 86.8623C37.2113 86.8623 46.5313 49.3126 46.7913 47.929C47.0514 46.5455 47.4814 44.0354 45.4094 42.2189C43.3374 40.4025 37.9014 35.7314 37.2113 34.779C36.5212 33.8266 36.2846 32.2816 37.2113 30.1936C40.318 23.1866 61.3765 0 99.1776 0Z" fill="#393939"/>
<path d="M58.2041 10.6392L64.5335 27.2868C65.5511 28.2086 77.3534 38.8919 79.958 40.6894L80.0561 40.7561L90.0869 66.1299L89.3671 66.4149L79.4236 41.2612C76.4906 39.1796 64.4624 28.2735 63.9487 27.8009L63.8794 27.7387L57.5275 11.0324C57.7452 10.8998 57.9764 10.7708 58.2041 10.6392Z" fill="#151515"/>
<path d="M134.515 27.6512L134.412 27.8009C133.896 28.2699 121.867 39.1796 118.937 41.2612L108.993 66.4149L108.273 66.1299L118.304 40.7561L118.401 40.6894C121.004 38.8919 132.809 28.2086 133.825 27.2868L140.152 10.6392C140.379 10.7708 140.61 10.8998 140.834 11.0333L134.515 27.6512Z" fill="#151515"/>
<path d="M58.7409 35.1414L54.6338 31.3795C54.2104 30.9945 53.6747 30.7562 53.1059 30.6999C52.5371 30.6435 51.9652 30.7721 51.4749 31.0665C51.5854 30.8274 51.7299 30.6056 51.9041 30.4081C52.3816 29.8846 53.047 29.5726 53.7539 29.5408C54.4609 29.509 55.1515 29.76 55.6738 30.2386L59.7819 33.9978C60.3042 34.4763 60.6156 35.1432 60.6476 35.8518C60.6797 36.5605 60.4298 37.2528 59.9528 37.7768C59.7734 37.969 59.5662 38.1332 59.3383 38.2639C59.5866 37.7481 59.6625 37.166 59.5549 36.6036C59.4473 36.0412 59.1619 35.5285 58.7409 35.1414Z" fill="#212121"/>
<path d="M56.1833 37.9488L52.0752 34.1896C51.7982 34.0547 51.5563 33.8569 51.3689 33.6118C51.1815 33.3668 51.0538 33.0813 50.9958 32.778C50.9379 32.4748 50.9513 32.1622 51.0351 31.8651C51.1188 31.5679 51.2706 31.2945 51.4783 31.0665C51.686 30.8385 51.9439 30.6623 52.2315 30.5518C52.5191 30.4413 52.8285 30.3996 53.135 30.4301C53.4415 30.4605 53.7367 30.5623 53.9971 30.7272C54.2575 30.8921 54.4759 31.1157 54.6349 31.3801L58.742 35.142C59.0197 35.2765 59.2622 35.4741 59.4502 35.7192C59.6381 35.9643 59.7664 36.25 59.8247 36.5536C59.883 36.8572 59.8697 37.1702 59.7859 37.4677C59.7021 37.7652 59.5502 38.039 59.3421 38.2672C59.1341 38.4954 58.8757 38.6717 58.5877 38.7821C58.2996 38.8925 57.9898 38.9338 57.683 38.9029C57.3761 38.872 57.0807 38.7696 56.8204 38.604C56.56 38.4383 56.3418 38.2139 56.1833 37.9488Z" fill="#292525"/>
<path d="M54.0795 40.113L53.0602 39.1696C52.6367 38.7848 52.1011 38.5466 51.5323 38.4902C50.9635 38.4339 50.3917 38.5623 49.9013 38.8567C50.0753 38.4756 50.3372 38.1415 50.6655 37.8819C50.9937 37.6223 51.3788 37.4447 51.7889 37.3638C52.1991 37.2828 52.6226 37.3008 53.0245 37.4162C53.4264 37.5317 53.7951 37.7413 54.1002 38.0278L55.1205 38.9685C55.643 39.4475 55.9545 40.1148 55.9865 40.8239C56.0186 41.533 55.7686 42.2258 55.2914 42.7503C55.1109 42.9412 54.904 43.1053 54.6769 43.2373C54.9253 42.7213 55.0014 42.1388 54.8938 41.5761C54.7862 41.0134 54.5007 40.5004 54.0795 40.113Z" fill="#212121"/>
<path d="M51.5207 42.9201L50.5005 41.9776C50.2234 41.8428 49.9816 41.6449 49.7942 41.3999C49.6068 41.1549 49.479 40.8694 49.4211 40.5661C49.3631 40.2629 49.3765 39.9503 49.4603 39.6531C49.5441 39.356 49.6958 39.0826 49.9035 38.8546C50.1112 38.6266 50.3692 38.4504 50.6568 38.3399C50.9444 38.2294 51.2537 38.1877 51.5602 38.2182C51.8667 38.2486 52.1619 38.3503 52.4223 38.5153C52.6827 38.6802 52.9011 38.9037 53.0601 39.1682L54.0795 40.1116C54.3569 40.2462 54.5991 40.4439 54.7868 40.6889C54.9745 40.934 55.1025 41.2196 55.1607 41.5229C55.2189 41.8263 55.2056 42.1392 55.1219 42.4365C55.0381 42.7338 54.8863 43.0075 54.6785 43.2356C54.4706 43.4637 54.2125 43.64 53.9247 43.7505C53.6369 43.861 53.3273 43.9026 53.0207 43.8719C52.714 43.8413 52.4187 43.7393 52.1583 43.5741C51.8979 43.4088 51.6796 43.1849 51.5207 42.9201Z" fill="#292525"/>
<path d="M139.614 35.1414L143.723 31.3795C144.146 30.9946 144.682 30.7564 145.25 30.7C145.819 30.6436 146.391 30.7721 146.881 31.0665C146.771 30.8274 146.626 30.6056 146.453 30.4081C145.975 29.8846 145.31 29.5726 144.603 29.5408C143.896 29.509 143.205 29.76 142.683 30.2386L138.574 33.9978C138.262 34.2765 138.021 34.6256 137.87 35.0162C137.719 35.4068 137.663 35.8278 137.706 36.2444C137.749 36.661 137.891 37.0614 138.118 37.4125C138.346 37.7636 138.654 38.0554 139.017 38.2639C138.769 37.748 138.693 37.166 138.801 36.6038C138.909 36.0416 139.194 35.5289 139.614 35.1414Z" fill="#212121"/>
<path d="M142.175 37.9482L146.282 34.189C146.702 33.8017 146.988 33.2891 147.096 32.7269C147.203 32.1647 147.128 31.5826 146.881 31.0665C146.391 30.7721 145.819 30.6436 145.25 30.7C144.682 30.7563 144.146 30.9946 143.723 31.3795L139.615 35.1414C139.194 35.5287 138.909 36.0414 138.801 36.6036C138.694 37.1658 138.769 37.7479 139.017 38.2638C139.507 38.5576 140.079 38.6855 140.648 38.6286C141.216 38.5718 141.751 38.3332 142.175 37.9482Z" fill="#292525"/>
<path d="M144.276 40.1113L145.294 39.1679C145.718 38.7831 146.253 38.5449 146.822 38.4885C147.391 38.4322 147.963 38.5607 148.453 38.855C148.28 38.4736 148.018 38.1392 147.69 37.8794C147.362 37.6196 146.977 37.4418 146.566 37.3608C146.156 37.2798 145.732 37.2979 145.331 37.4136C144.929 37.5293 144.56 37.7392 144.255 38.0261L143.234 38.9668C142.711 39.4458 142.4 40.1133 142.368 40.8224C142.336 41.5315 142.586 42.2244 143.064 42.7486C143.244 42.9397 143.451 43.1038 143.677 43.2356C143.429 42.7195 143.353 42.137 143.461 41.5742C143.569 41.0115 143.854 40.4985 144.276 40.1113Z" fill="#212121"/>
<path d="M146.835 42.9194L147.855 41.9769C148.276 41.59 148.562 41.0774 148.67 40.5151C148.778 39.9527 148.702 39.3704 148.454 38.8545C147.964 38.5602 147.392 38.4317 146.823 38.4881C146.255 38.5444 145.719 38.7826 145.295 39.1675L144.277 40.1109C143.856 40.498 143.57 41.011 143.462 41.5737C143.354 42.1365 143.43 42.719 143.679 43.2351C144.169 43.5287 144.74 43.6565 145.309 43.5997C145.877 43.5428 146.412 43.3044 146.835 42.9194Z" fill="#292525"/>
<path d="M99.1777 116.927C138.705 114.333 152.6 84.7856 153.723 80.2877C154.846 75.7898 149.235 58.4847 139.654 46.4593C136.82 42.9013 135.08 43.5182 133.357 45.1624C131.633 46.8066 126.279 52.3426 123 55.4578C119.721 58.573 117.649 59.7825 113.679 60.4752C108.881 61.2032 104.032 61.5503 99.1795 61.5133C94.3265 61.5502 89.4783 61.2031 84.6798 60.4752C80.7103 59.7825 78.6383 58.5721 75.3598 55.4578C72.0813 52.3435 66.7271 46.8057 64.9997 45.1642C63.2722 43.5227 61.534 42.9031 58.7017 46.4612C49.1217 58.4865 43.512 75.7907 44.6339 80.2895C45.7559 84.7883 59.6509 114.333 99.1777 116.927Z" fill="#292525"/>
<path d="M42.9656 45.7818C42.6912 46.9543 34.7873 79.0204 34.7873 79.0204C34.2691 81.1534 32.718 80.9802 30.8178 79.5101C28.9176 78.04 6.30714 53.5537 5.01247 52.2567C3.71779 50.9598 -0.688965 41.0098 0.0928802 41.0098H39.3578C40.6561 41.0098 43.3732 44.0438 42.9656 45.7818Z" fill="#393939"/>
<path d="M0.0925598 41.0098H39.3575C40.6522 41.0098 43.3693 44.0438 42.9617 45.7818C42.8348 46.323 41.093 53.3995 39.2504 60.8863C19.77 51.6579 0.0925598 41.0098 0.0925598 41.0098Z" fill="#686868"/>
<path d="M155.39 45.7818C155.665 46.9543 163.568 79.0204 163.568 79.0204C164.086 81.1534 165.637 80.9802 167.538 79.5101C169.439 78.04 192.049 53.5519 193.344 52.2567C194.638 50.9616 199.045 41.0098 198.263 41.0098H158.995C157.699 41.0098 154.983 44.0438 155.39 45.7818Z" fill="#393939"/>
<path d="M198.263 41.0098H158.994C157.699 41.0098 154.982 44.0438 155.39 45.7818C155.516 46.323 157.258 53.3995 159.101 60.8863C178.585 51.6579 198.263 41.0098 198.263 41.0098Z" fill="#686868"/>
<path d="M61.55 80.4121C61.5502 82.5066 62.17 84.554 63.3309 86.2955C64.4918 88.037 66.1418 89.3942 68.0722 90.1956C70.0026 90.9971 72.1267 91.2067 74.1759 90.7979C76.2251 90.3892 78.1074 89.3805 79.5848 87.8994C81.0622 86.4182 82.0682 84.5312 82.4758 82.4769C82.8833 80.4226 82.6741 78.2933 81.8745 76.3582C81.0748 74.4231 79.7208 72.7692 77.9835 71.6055C76.2462 70.4419 74.2038 69.8208 72.1144 69.8208C70.7269 69.8207 69.3531 70.0946 68.0712 70.6268C66.7894 71.159 65.6247 71.9392 64.6437 72.9227C63.6627 73.9062 62.8845 75.0739 62.3537 76.3589C61.8229 77.6439 61.5498 79.0212 61.55 80.4121Z" fill="#345EFF"/>
<path d="M115.677 80.4121C115.677 82.5066 116.297 84.554 117.458 86.2955C118.619 88.037 120.269 89.3942 122.199 90.1956C124.13 90.9971 126.254 91.2067 128.303 90.7979C130.352 90.3892 132.234 89.3805 133.712 87.8994C135.189 86.4182 136.195 84.5312 136.603 82.4769C137.01 80.4226 136.801 78.2933 136.001 76.3582C135.202 74.4231 133.848 72.7692 132.11 71.6055C130.373 70.4419 128.331 69.8208 126.241 69.8208C124.854 69.8207 123.48 70.0946 122.198 70.6268C120.916 71.159 119.752 71.9392 118.771 72.9227C117.79 73.9062 117.011 75.0739 116.481 76.3589C115.95 77.6439 115.677 79.0212 115.677 80.4121Z" fill="#345EFF"/>
<path d="M107.487 97.2461C107.487 99.4554 106.612 101.574 105.053 103.136C103.495 104.699 101.381 105.576 99.1776 105.576C96.9738 105.576 94.8602 104.699 93.3018 103.136C91.7434 101.574 90.868 99.4554 90.868 97.2461H107.487Z" fill="#345EFF"/>
<path d="M99.1778 41.0079L55.7239 20.5027L39.8009 6.48682L79.674 24.6172H118.682L158.556 6.48682L142.633 20.5027L99.1778 41.0079Z" fill="#A6000D"/>
<path d="M158.555 6.48682H165.157L142.632 20.5027L158.555 6.48682Z" fill="#FF929A"/>
<path d="M99.1774 41.0079L142.632 20.5027L165.157 6.48682L111.548 55.0851L99.1774 58.8307L86.8073 55.0851L33.1975 6.48682L55.7234 20.5027L99.1774 41.0079Z" fill="#FF3848"/>
<path d="M55.7236 20.5027L33.1977 6.48682H39.8007L55.7236 20.5027Z" fill="#FF929A"/>
<path d="M108.701 50.9477L118.682 24.6179L99.1778 10.4126L79.674 24.6179L89.6553 50.9477H108.701Z" fill="#FFAE0D"/>
<path d="M104.413 44.7185L111.185 26.8587L99.1771 18.1118L87.1696 26.8587L93.9399 44.7185H104.413Z" fill="#FFD00D"/>
<g style="mix-blend-mode:multiply" opacity="0.8">
<path d="M118.682 24.6177L111.185 26.858L104.414 44.7179L108.701 50.9475L118.682 24.6177Z" fill="#FFD00D"/>
</g>
<path opacity="0.6" d="M93.9414 44.7179L89.6561 50.9475L79.6748 24.6177L87.1711 26.858L93.9414 44.7179Z" fill="#FFD00D"/>
<path d="M99.1768 10.4126V18.1114L87.1693 26.8582L79.673 24.6179L99.1768 10.4126Z" fill="#FFDE54"/>
<path d="M111.548 55.0872L108.7 50.9492H89.6544L86.8069 55.0872L99.1769 58.8329L111.548 55.0872Z" fill="#A6000D"/>
<path d="M82.9927 33.3703L55.7244 20.5044L83.627 35.0452L82.9927 33.3703Z" fill="#FF929A"/>
<path d="M115.365 33.3703L142.633 20.5044L114.729 35.0452L115.365 33.3703Z" fill="#FF929A"/>
<path d="M65.5134 127.912C64.0546 128.715 62.8662 129.934 62.0984 131.414C61.3306 132.894 61.018 134.57 61.2001 136.228C61.3822 137.887 62.0507 139.454 63.1213 140.731C64.1918 142.009 65.6162 142.939 67.2143 143.405C68.8125 143.871 70.5125 143.852 72.0996 143.349C73.6866 142.846 75.0893 141.883 76.1303 140.582C77.1713 139.28 77.8039 137.698 77.9479 136.035C78.092 134.373 77.7411 132.706 76.9396 131.243C75.865 129.283 74.0576 127.83 71.9148 127.205C69.772 126.581 67.4693 126.835 65.5134 127.912Z" fill="#3D3737"/>
<path d="M99.2627 116.949C138.888 114.354 152.816 84.8 153.942 80.301C155.067 75.8021 149.443 58.4929 139.839 46.4648C136.997 42.905 135.254 43.523 133.526 45.1666C131.798 46.8103 126.432 52.3494 123.144 55.4645C119.855 58.5795 117.779 59.7947 113.8 60.4839C108.989 61.2117 104.128 61.5589 99.2627 61.5223C94.3978 61.5588 89.5377 61.2116 84.7274 60.4839C80.7472 59.7911 78.67 58.5795 75.3835 55.4645C72.0969 52.3494 66.7323 46.8103 65.0015 45.1666C63.2707 43.523 61.5273 42.905 58.688 46.4648C49.0862 58.4929 43.4609 75.8003 44.5865 80.301C45.7121 84.8018 59.6396 114.354 99.2627 116.949Z" fill="#FF3848"/>
<path d="M107.593 97.2649C107.593 99.4748 106.715 101.594 105.153 103.157C103.591 104.719 101.472 105.597 99.2627 105.597C97.0534 105.597 94.9346 104.719 93.3724 103.157C91.8102 101.594 90.9325 99.4748 90.9325 97.2649H107.593Z" fill="#151515"/>
<path d="M59.7882 54.2446C60.0777 56.951 61.7418 58.5297 65.2845 59.2812C65.9291 59.9337 66.2886 60.8153 66.2842 61.7326C66.2798 62.6499 65.9119 63.528 65.261 64.1743C64.6392 64.8387 63.7864 65.2395 62.8781 65.2942C61.9698 65.3489 61.0751 65.0534 60.3781 64.4684C57.6083 62.2131 58.0592 56.4241 59.7882 54.2446Z" fill="#151515"/>
<path d="M138.738 54.2446C140.467 56.4241 140.918 62.2131 138.148 64.4684C137.451 65.0534 136.556 65.3489 135.648 65.2942C134.74 65.2395 133.887 64.8387 133.265 64.1743C132.614 63.528 132.246 62.6499 132.242 61.7326C132.237 60.8153 132.597 59.9337 133.241 59.2812C136.784 58.5297 138.448 56.951 138.738 54.2446Z" fill="#151515"/>
<path fill-rule="evenodd" clip-rule="evenodd" d="M115.045 70.2893C113.879 69.8854 113.041 68.777 113.041 67.4728C113.041 65.8271 114.375 64.493 116.02 64.493C117.665 64.493 118.999 65.8271 118.999 67.4728C118.999 68.8513 118.063 70.0112 116.792 70.3514V73.5894L123.445 78.8274C128.169 76.1456 136.68 73.4213 139.532 73.0807C138.127 81.9349 131.267 88.7117 130.722 89.0863L132.199 93.7271C133.811 93.7652 135.106 95.0843 135.106 96.706C135.106 98.3516 133.772 99.6857 132.127 99.6857C130.481 99.6857 129.148 98.3516 129.148 96.706C129.148 95.646 129.701 94.7152 130.535 94.187L129.02 89.8525C117.87 90.7039 112.133 86.9153 111.656 86.2342C111.656 86.2342 117.827 81.5518 121.785 79.7213L114.962 74.3131L115.045 70.2893ZM116.02 66.366C116.631 66.366 117.127 66.8615 117.127 67.4728C117.127 68.084 116.631 68.5796 116.02 68.5796C115.409 68.5796 114.914 68.084 114.914 67.4728C114.914 66.8615 115.409 66.366 116.02 66.366ZM132.127 95.5992C132.738 95.5992 133.233 96.0947 133.233 96.706C133.233 97.3172 132.738 97.8127 132.127 97.8127C131.516 97.8127 131.02 97.3172 131.02 96.706C131.02 96.0947 131.516 95.5992 132.127 95.5992Z" fill="#151515"/>
<path fill-rule="evenodd" clip-rule="evenodd" d="M83.5157 70.2893C84.6822 69.8854 85.5198 68.777 85.5198 67.4728C85.5198 65.8271 84.1861 64.493 82.5408 64.493C80.8955 64.493 79.5617 65.8271 79.5617 67.4728C79.5617 68.8513 80.4976 70.0112 81.7685 70.3514V73.5894L75.1161 78.8274C70.3921 76.1456 61.8805 73.4213 59.0292 73.0807C60.4336 81.9349 67.2939 88.7117 67.8387 89.0863L66.3624 93.7271C64.7503 93.7652 63.4551 95.0843 63.4551 96.706C63.4551 98.3516 64.7889 99.6857 66.4342 99.6857C68.0795 99.6857 69.4133 98.3516 69.4133 96.706C69.4133 95.646 68.8599 94.7152 68.0264 94.187L69.541 89.8525C80.6912 90.7039 86.428 86.9153 86.9046 86.2342C86.9046 86.2342 80.7337 81.5518 76.7758 79.7213L83.5985 74.3131L83.5157 70.2893ZM82.5408 66.366C81.9297 66.366 81.4343 66.8615 81.4343 67.4728C81.4343 68.084 81.9297 68.5796 82.5408 68.5796C83.1519 68.5796 83.6473 68.084 83.6473 67.4728C83.6473 66.8615 83.1519 66.366 82.5408 66.366ZM66.4342 95.5992C65.8231 95.5992 65.3277 96.0947 65.3277 96.706C65.3277 97.3172 65.8231 97.8127 66.4342 97.8127C67.0453 97.8127 67.5407 97.3172 67.5407 96.706C67.5407 96.0947 67.0453 95.5992 66.4342 95.5992Z" fill="#151515"/>
<path d="M74.9454 142.041C73.7887 143.188 72.3178 143.966 70.7187 144.278C69.1196 144.589 67.4642 144.419 65.9617 143.789C64.4592 143.16 63.1772 142.099 62.2777 140.74C61.3782 139.382 60.9017 137.788 60.9083 136.159C60.915 134.53 61.4045 132.939 62.3151 131.588C63.2256 130.237 64.5163 129.187 66.0238 128.569C67.5314 127.952 69.1882 127.796 70.7847 128.12C72.3811 128.444 73.8456 129.234 74.993 130.391C75.755 131.159 76.3583 132.069 76.7683 133.071C77.1784 134.072 77.3872 135.144 77.3827 136.226C77.3783 137.308 77.1608 138.378 76.7426 139.376C76.3244 140.374 75.7137 141.279 74.9454 142.041Z" fill="#3D3737"/>
<path d="M76.7816 145.955C74.1216 148.598 68.0786 146.821 63.2959 141.992C58.5132 137.163 56.7878 131.111 59.4487 128.471C62.1095 125.831 68.1481 127.606 72.9352 132.435C77.7222 137.263 79.4424 143.313 76.7816 145.955Z" fill="#393939"/>
<path d="M59.4488 128.469L76.7842 145.949L56.2442 166.319L38.9089 148.84L59.4488 128.469Z" fill="#393939"/>
<path d="M46.4891 153.769C48.1125 153.321 49.4163 153.795 50.8565 153.973C50.9314 153.856 51.0011 153.733 51.0655 153.605C51.1818 153.373 51.2793 153.129 51.3574 152.873L49.1663 152.397C49.1217 152.388 49.1211 152.325 49.1651 152.288C49.9981 151.587 50.4592 150.704 50.8238 149.772C50.8541 149.695 50.7692 149.66 50.7133 149.726C49.4607 151.221 47.9598 152.416 46.4614 153.669C46.4085 153.713 46.429 153.786 46.4891 153.769Z" fill="#FF3848"/>
<path d="M46.0802 152.223C46.7778 151.403 48.8555 149.12 50.3716 148.62C51.2611 148.317 52.2242 148.134 53.242 148.073C53.875 148.036 54.3903 148.076 55.0459 148.073C55.0007 147.841 54.9497 147.611 54.8965 147.381C54.8229 147.064 54.7406 146.754 54.6494 146.45C54.6494 146.45 52.7328 146.444 51.7498 146.633C50.3609 146.908 49.1541 147.492 48.2033 148.35C48.0787 148.459 47.9594 148.574 47.8232 148.705C47.7653 148.761 47.6915 148.722 47.7191 148.651C48.3488 147.003 49.6841 144.067 50.06 143.246C50.0945 143.171 50.2013 143.176 50.2221 143.253C50.5289 144.392 50.7294 145.414 51.0419 146.536C51.2776 146.468 51.5157 146.411 51.7562 146.365C52.0166 146.315 52.2749 146.274 52.532 146.241C52.5094 146.158 52.4903 146.083 52.464 146.013C52.0106 144.795 51.545 143.584 51.1046 142.358C50.9212 141.846 50.6718 141.35 50.8211 140.702C50.8338 140.647 50.7654 140.637 50.7354 140.69C48.6134 144.42 47.3109 148.282 45.9513 152.172C45.9215 152.26 46.0172 152.298 46.0802 152.223Z" fill="#FF3848"/>
<path d="M56.9602 155.346C57.0205 155.283 56.9762 155.202 56.9027 155.24C56.0153 155.701 55.1851 156.253 54.5765 157.156C54.5442 157.203 54.4821 157.21 54.4677 157.166L53.7628 155.037C53.5169 155.142 53.2842 155.265 53.0659 155.405C52.9452 155.482 52.8307 155.564 52.7225 155.652C53.0509 157.065 53.6607 158.311 53.386 159.973C53.3758 160.035 53.4501 160.047 53.4883 159.99C54.5763 158.368 55.6063 156.749 56.9602 155.346Z" fill="#FF3848"/>
<path d="M65.9237 154.285C65.2957 154.502 64.7757 154.306 64.2475 154.178C62.9818 153.87 61.7288 153.535 60.4692 153.212C60.3965 153.193 60.3197 153.182 60.2354 153.169C60.2292 153.428 60.2159 153.689 60.1936 153.953C60.173 154.197 60.1416 154.44 60.0993 154.682C61.0787 154.845 62.7467 155.133 63.3751 155.242C63.456 155.256 63.4671 155.365 63.3921 155.404C61.6667 156.302 60.1091 157.313 58.3471 158.209C58.2786 158.244 58.2326 158.174 58.282 158.111C58.398 157.962 58.5001 157.831 58.5948 157.696C59.3474 156.659 59.801 155.398 59.9277 153.988C60.0122 152.99 59.8034 151.085 59.8034 151.085C59.4912 151.026 59.174 150.977 58.8518 150.937C58.6176 150.909 58.3835 150.882 58.1479 150.862C58.2141 151.514 58.3077 152.022 58.3381 152.656C58.3853 153.674 58.3047 154.651 58.0979 155.568C57.7601 157.128 55.7085 159.435 54.9675 160.216C54.9005 160.286 54.9484 160.378 55.0315 160.338C58.7564 158.575 62.4593 156.872 65.9445 154.368C65.9943 154.334 65.9769 154.267 65.9237 154.285Z" fill="#FF3848"/>
<path d="M76.1626 145.268C75.4575 145.465 73.4473 145.967 72.3968 145.977C71.3814 145.991 70.3356 145.92 69.2697 145.764C69.1876 145.751 69.1053 145.738 69.023 145.726C66.4393 145.312 64.03 144.502 61.4588 144.062C60.7504 141.552 59.6902 139.242 59.0057 136.716C58.9839 136.636 58.9628 136.556 58.9423 136.475C58.6741 135.432 58.4926 134.399 58.3995 133.388C58.2982 132.342 58.5851 130.29 58.7065 129.568C58.7202 129.487 58.6241 129.467 58.5695 129.54C57.7773 130.598 54.7738 134.628 53.4306 136.47C52.762 137.386 52.1413 138.332 51.4964 139.263C51.3892 139.418 51.3807 139.524 51.4727 139.644C51.7189 139.965 51.9472 140.302 52.1753 140.639C53.5275 142.636 54.6997 144.757 55.287 147.288C55.4428 147.912 55.5444 148.528 55.5906 149.13C55.5905 149.146 55.5867 149.16 55.5795 149.172C55.5722 149.184 55.5617 149.193 55.5486 149.199C54.7545 149.595 54.0632 150.12 53.4933 150.759C53.4522 150.805 53.3786 150.779 53.3785 150.719C53.3589 149.965 53.2659 149.189 53.1004 148.401C52.5706 148.437 52.0561 148.507 51.5599 148.612C51.5799 148.712 51.8203 150.633 51.8731 151.575C51.9008 152.39 51.7403 153.139 51.402 153.772C51.1205 154.339 50.7124 154.815 50.1964 155.176C50.1307 155.222 50.0558 155.229 50.006 155.194C49.1761 154.6 48.1816 154.377 47.0349 154.571C45.8177 154.777 45.1399 155.752 44.8453 156.31C44.8158 156.366 44.8808 156.395 44.9197 156.344C45.2072 155.942 45.6198 155.65 46.1244 155.492C47.0516 155.232 47.6873 155.223 48.454 155.484C48.509 155.502 48.5635 155.531 48.6141 155.567C48.6647 155.604 48.7104 155.648 48.7482 155.696C48.7861 155.745 48.8153 155.798 48.8341 155.851C48.853 155.904 48.861 155.956 48.8577 156.004C48.8547 156.053 48.8991 156.076 48.9474 156.052C49.7675 155.623 50.5974 155.222 51.4015 154.745C51.6604 154.591 51.8977 154.412 52.1109 154.209C52.1148 154.235 52.1242 154.261 52.1384 154.287C52.1525 154.313 52.1713 154.337 52.1935 154.359C52.2156 154.381 52.2408 154.399 52.2673 154.413C52.2939 154.427 52.3214 154.437 52.3481 154.441C52.1723 154.672 52.022 154.923 51.8986 155.193C51.5095 156.043 51.1982 156.91 50.8576 157.771C50.8378 157.821 50.866 157.863 50.9147 157.855C50.9625 157.847 51.0154 157.849 51.0701 157.862C51.1248 157.876 51.1801 157.899 51.2326 157.932C51.2851 157.964 51.3336 158.005 51.3753 158.051C51.4169 158.098 51.4507 158.149 51.4745 158.202C51.8152 158.937 51.8735 159.57 51.7132 160.519C51.6086 161.038 51.362 161.479 50.9932 161.807C50.946 161.851 50.9817 161.913 51.0342 161.877C51.5587 161.525 52.4567 160.748 52.533 159.516C52.6048 158.356 52.2777 157.39 51.5994 156.628C51.5588 156.582 51.5582 156.507 51.5973 156.437C51.9019 155.885 52.3313 155.429 52.8659 155.089C53.4596 154.686 54.187 154.447 55.001 154.389C55.9432 154.342 57.8785 154.378 57.9807 154.387C58.0325 153.883 58.0481 153.364 58.0274 152.833C57.2257 152.752 56.4442 152.742 55.692 152.802C55.633 152.809 55.6002 152.738 55.6409 152.692C56.2161 152.058 56.6653 151.314 56.9763 150.482C56.9809 150.469 56.9889 150.458 56.9999 150.449C57.0109 150.441 57.0246 150.436 57.0401 150.434C57.6438 150.417 58.2673 150.453 58.9038 150.542C61.4831 150.858 63.7153 151.8 65.8441 152.934C66.2033 153.125 66.5626 153.316 66.9081 153.527C67.0372 153.607 67.1417 153.587 67.2841 153.464C68.142 152.724 69.0167 152.007 69.8576 151.245C71.5468 149.715 75.2383 146.303 76.2063 145.403C76.2722 145.339 76.2423 145.246 76.1626 145.268ZM53.4418 153.422C53.327 153.456 53.2057 153.479 53.0793 153.491C53.0678 153.494 53.0542 153.494 53.0403 153.489C53.0264 153.485 53.0127 153.477 53.0008 153.466C52.989 153.456 52.9796 153.443 52.9737 153.429C52.9679 153.416 52.9658 153.403 52.9679 153.391C52.9665 153.264 52.9766 153.141 52.9981 153.023C53.1898 152.26 53.638 151.65 54.2902 151.264C54.6252 151.047 54.993 150.869 55.3889 150.734C55.4334 150.718 55.4764 150.757 55.4662 150.803C55.3728 151.211 55.2352 151.595 55.0549 151.951C54.7393 152.641 54.1799 153.151 53.4418 153.422ZM72.17 147.834C70.2317 149.708 68.4979 151.203 67.9412 151.676C67.905 151.72 67.8537 151.75 67.7922 151.763C67.7306 151.776 67.6608 151.771 67.5889 151.75C65.8655 150.878 64.1162 150.14 62.3627 149.545C60.8609 149.009 59.3649 148.716 57.9447 148.68C57.7628 148.677 57.5748 148.683 57.3831 148.7C57.3722 148.703 57.3595 148.702 57.3465 148.698C57.3335 148.694 57.3207 148.686 57.3097 148.676C57.2987 148.666 57.2898 148.654 57.2842 148.642C57.2786 148.629 57.2765 148.617 57.2781 148.606C57.2743 148.413 57.2609 148.226 57.2387 148.045C57.0533 146.636 56.604 145.18 55.9119 143.743C55.1348 142.062 54.216 140.401 53.1669 138.779C53.1383 138.71 53.1266 138.641 53.133 138.578C53.1393 138.516 53.1635 138.462 53.2033 138.421C53.6153 137.817 54.9183 135.935 56.5778 133.81C56.6231 133.752 56.701 133.761 56.7005 133.825C56.6999 133.938 56.6993 134.039 56.7022 134.139C56.7594 135.718 57.0895 137.37 57.6802 139.035C58.2286 140.636 58.8104 142.216 59.3849 143.8C58.2526 143.701 57.2222 143.669 56.7107 143.658C56.6309 143.666 56.5647 143.7 56.5205 143.755C56.4764 143.809 56.4565 143.882 56.4634 143.965C56.73 144.872 57.496 147.498 57.6542 148.245C57.6609 148.276 57.6744 148.286 57.7022 148.288C58.4614 148.366 61.1529 148.85 62.0842 149.02C62.1666 149.018 62.2372 148.991 62.2869 148.941C62.3366 148.891 62.363 148.822 62.3628 148.742C62.2982 148.234 62.157 147.213 61.9389 146.097C63.5754 146.501 65.2081 146.913 66.8573 147.289C68.5753 147.701 70.2534 147.855 71.8294 147.745C71.929 147.737 72.0294 147.726 72.1424 147.713C72.2052 147.706 72.2225 147.782 72.17 147.834ZM60.0605 145.697C60.2007 146.127 60.3271 146.572 60.4707 147.042C60.4763 147.074 60.4698 147.102 60.4525 147.122C60.4351 147.141 60.4081 147.151 60.3765 147.149L58.9734 146.912C58.9643 146.911 58.9549 146.909 58.9457 146.904C58.9365 146.9 58.9277 146.894 58.9198 146.887C58.9118 146.88 58.905 146.872 58.8997 146.863C58.8943 146.854 58.8906 146.845 58.8887 146.836L58.5049 145.466C58.4997 145.435 58.5067 145.407 58.5244 145.388C58.5421 145.368 58.5695 145.359 58.6013 145.361C59.0837 145.454 59.5396 145.532 59.9819 145.627C59.9987 145.63 60.0159 145.639 60.0303 145.652C60.0447 145.665 60.0553 145.681 60.06 145.697L60.0605 145.697Z" fill="#FF3848"/>
<path d="M68.1141 128.178C67.3725 128.958 65.3213 131.265 64.9837 132.825C64.7768 133.742 64.6961 134.719 64.7433 135.737C64.7739 136.371 64.8668 136.88 64.9337 137.531C64.6981 137.511 64.4638 137.484 64.2297 137.456C63.9073 137.416 63.5901 137.367 63.2781 137.309C63.2781 137.309 63.0695 135.403 63.1537 134.406C63.2804 132.996 63.734 131.734 64.4866 130.698C64.5818 130.563 64.6835 130.432 64.7995 130.282C64.8489 130.219 64.8029 130.15 64.7344 130.184C63.1623 130.985 60.384 132.623 59.6074 133.083C59.5361 133.125 59.5523 133.231 59.6316 133.244C60.7968 133.428 61.8334 133.52 62.9823 133.712C62.9399 133.954 62.9085 134.196 62.888 134.44C62.8657 134.705 62.8517 134.966 62.8462 135.225C62.7619 135.211 62.6851 135.2 62.6124 135.181C61.3533 134.859 60.1004 134.524 58.834 134.216C58.3061 134.087 57.786 133.892 57.1579 134.109C57.1046 134.127 57.0875 134.06 57.1364 134.025C60.6214 131.521 64.3244 129.817 68.0494 128.055C68.1332 128.016 68.181 128.107 68.1141 128.178Z" fill="#FF3848"/>
<path d="M72.2587 147.693C72.408 147.045 72.1587 146.548 71.9752 146.037C71.5355 144.811 71.07 143.6 70.6159 142.382C70.5896 142.311 70.5705 142.236 70.5479 142.154C70.8047 142.12 71.0633 142.079 71.3237 142.029C71.564 141.983 71.8021 141.926 72.038 141.859C72.3042 142.815 72.7667 144.444 72.941 145.057C72.9634 145.136 73.0737 145.135 73.1045 145.057C73.8144 143.246 74.6554 141.59 75.3605 139.744C75.3878 139.672 75.3143 139.634 75.2562 139.689C75.1201 139.82 75.0006 139.936 74.8762 140.044C73.9253 140.902 72.7186 141.486 71.3297 141.761C70.3468 141.951 68.4302 141.944 68.4302 141.944C68.3393 141.64 68.257 141.33 68.1833 141.014C68.13 140.784 68.0789 140.554 68.0338 140.322C68.6893 140.319 69.2047 140.358 69.8378 140.321C70.8556 140.261 71.8187 140.077 72.7081 139.775C74.2242 139.274 76.3012 136.99 76.9995 136.171C77.0625 136.097 77.1582 136.135 77.1279 136.222C75.7683 140.112 74.4657 143.974 72.3435 147.704C72.3145 147.757 72.246 147.747 72.2587 147.693Z" fill="#FF3848"/>
<path d="M62.6567 139.539L65.2623 139.834L65.8308 142.394L62.8732 142.49L62.6567 139.539ZM60.6951 137.586L61.1915 144.36L67.9795 144.138L66.6749 138.263L60.6949 137.586L60.6951 137.586Z" fill="#FF3848"/>
<path d="M66.5052 133.276L71.6597 133.108L72.0365 138.251L67.496 137.737L66.5055 133.277M64.3569 131.532L66.0834 139.308L73.9981 140.204L73.3413 131.238L64.3569 131.532Z" fill="#FF3848"/>
<path d="M164.68 133.034C164.232 133.395 163.843 133.806 163.517 134.263C163.205 134.692 162.939 135.108 162.863 135.643C162.822 136.054 162.812 136.476 162.833 136.907C162.841 137.198 162.82 137.48 162.769 137.751C162.677 138.097 162.532 138.417 162.338 138.706C162.144 139.034 161.909 139.335 161.634 139.605C161.569 139.669 161.538 139.663 161.591 139.581L161.623 139.531C161.844 139.166 162.025 138.775 162.165 138.364C162.329 137.958 162.379 137.497 162.312 137.008C162.253 136.645 162.089 136.309 162.074 135.936C162.073 135.572 162.148 135.232 162.294 134.93C162.337 134.836 162.387 134.746 162.434 134.653C162.38 134.686 162.33 134.723 162.286 134.764C161.991 135.05 161.735 135.366 161.518 135.71C161.35 135.963 161.199 136.226 161.067 136.5C160.907 136.809 160.789 137.142 160.713 137.493C160.625 137.959 160.546 138.427 160.466 138.894C160.352 139.566 160.221 140.235 160.017 140.889C159.811 141.554 159.675 142.252 159.611 142.977C159.611 142.977 159.459 143.204 158.77 143.82C158.711 143.483 158.698 143.155 158.73 142.843C158.652 142.941 158.587 143.027 158.518 143.111C158.214 143.48 157.839 143.794 157.403 144.047C156.885 144.351 156.273 144.55 155.596 144.635C154.936 144.717 154.223 144.689 153.489 144.551C152.95 144.44 152.416 144.356 151.888 144.298C150.857 144.2 149.877 144.26 148.99 144.476C148.499 144.589 148.048 144.763 147.649 144.995C147.613 145.016 147.582 144.993 147.604 144.959C147.685 144.838 148.17 144.521 148.358 144.404C148.889 144.076 149.478 143.789 150.086 143.677C151.623 143.395 153.19 143.767 154.717 143.357C155.681 143.098 156.562 142.53 157.265 141.797C158.042 140.988 158.57 140.002 158.982 138.969C159.2 138.419 159.408 137.865 159.622 137.314C159.725 137.051 159.838 136.792 159.962 136.537C160.676 135.066 161.888 133.792 163.423 133.231C163.802 133.082 164.224 132.99 164.677 132.958C164.756 132.954 164.733 132.992 164.68 133.034Z" fill="#FF3848"/>
<path d="M145.723 153.431C145.723 153.431 145.404 154.41 145.75 155.198C145.353 154.935 144.989 154.628 144.673 154.29C144.654 154.384 144.634 154.466 144.622 154.548C144.541 155.05 144.597 155.6 144.785 156.162C144.96 156.689 145.257 157.216 145.657 157.708C146.167 158.332 146.795 158.897 147.499 159.363C147.829 159.586 148.174 159.786 148.513 159.995C148.556 160.021 148.537 160.058 148.492 160.045C148.318 159.994 148.146 159.94 147.974 159.883C147.105 159.59 146.258 159.142 145.497 158.574C144.982 158.201 144.522 157.767 144.14 157.296C143.626 156.64 143.276 155.848 143.137 155.01C143.009 154.164 143.053 153.356 143.266 152.622C143.388 152.184 143.504 151.756 143.682 151.333C143.785 151.089 143.983 150.709 144.136 150.426C144.142 150.407 144.157 150.394 144.178 150.388C144.198 150.382 144.224 150.384 144.249 150.394C144.274 150.403 144.297 150.419 144.315 150.439C144.332 150.459 144.343 150.482 144.344 150.503C144.447 152.407 145.723 153.431 145.723 153.431Z" fill="#FF3848"/>
<path d="M149.293 145.476C150.396 145.255 151.627 145.271 152.906 145.522C153.398 145.635 153.886 145.711 154.364 145.748C155.199 145.787 155.984 145.694 156.683 145.472C158.902 144.803 160.923 141.902 160.923 141.902C161.234 141.503 160.606 143.387 159.067 145.08C158.496 145.713 157.789 146.237 156.967 146.635C156.198 147.013 155.309 147.245 154.339 147.322C154.319 147.324 154.298 147.326 154.277 147.327C154.277 147.327 154.889 147.811 155.154 148.168C154.482 148.294 153.758 148.327 153.003 148.265C152.334 147.769 151.569 147.421 150.811 147.269C150.1 147.142 149.437 147.209 148.915 147.459C148.64 147.587 148.4 147.753 148.2 147.954C147.651 148.498 147.325 149.392 147.654 150.109C147.74 150.319 147.896 150.522 148.099 150.688C148.303 150.854 148.542 150.975 148.783 151.032C149.212 151.134 149.699 151.053 149.987 150.665C150.275 150.276 150.163 149.712 149.85 149.403C149.67 149.225 149.438 149.146 149.21 149.048C149.147 149.02 149.196 148.99 149.24 148.99C149.854 148.981 150.388 149.179 150.833 149.591C151.226 149.954 151.465 150.41 151.55 150.951C151.611 151.353 151.592 151.737 151.493 152.087C151.397 152.414 151.248 152.715 151.05 152.982C150.838 153.287 150.556 153.541 150.215 153.736C149.819 153.964 149.316 154.067 148.761 154.033C148.312 153.995 147.847 153.881 147.388 153.699C147.357 153.757 147.326 153.816 147.296 153.875C147.16 154.128 147.063 154.403 147.007 154.696C146.963 154.967 146.952 155.25 146.975 155.542C146.981 155.61 146.988 155.678 146.996 155.745C147.063 156.297 147.237 156.868 147.513 157.434C147.769 157.945 148.099 158.446 148.492 158.922C148.547 158.978 148.597 159.038 148.64 159.1C148.674 159.158 148.653 159.178 148.598 159.137C148.443 159.015 148.301 158.882 148.174 158.739C148.041 158.597 147.928 158.469 147.8 158.322C147.387 157.852 147.037 157.354 146.757 156.843C146.568 156.513 146.422 156.177 146.322 155.843C146.208 155.433 146.14 155.028 146.119 154.634C146.09 154.324 146.101 154.024 146.152 153.739C146.227 153.389 146.348 153.059 146.511 152.754C146.545 152.689 146.584 152.626 146.616 152.571C146.798 152.656 146.968 152.743 147.145 152.817C147.57 152.997 148.005 153.089 148.409 153.086C149.303 153.08 149.895 152.565 150.237 151.846C150.189 151.875 150.15 151.9 150.11 151.923C150.069 151.947 150.027 151.972 149.985 151.994C149.481 152.257 148.955 152.392 148.398 152.335C148.143 152.318 147.875 152.245 147.617 152.122C147.359 152 147.119 151.831 146.918 151.632C146.181 150.909 145.845 150.009 145.926 148.947C145.99 148.1 146.371 147.385 146.953 146.768C147.281 146.425 147.661 146.124 148.088 145.869C148.187 145.803 148.296 145.746 148.413 145.698C148.691 145.602 148.986 145.528 149.293 145.476Z" fill="#FF3848"/>
<path d="M160.935 134.064C160.556 134.352 160.225 134.685 159.949 135.057C159.733 135.346 159.546 135.655 159.391 135.982C159.238 136.305 159.129 136.644 159.012 136.98C158.765 137.687 158.531 138.399 158.236 139.09C158.055 139.522 157.839 139.935 157.589 140.327C157.409 140.608 157.203 140.872 156.972 141.117C156.644 141.475 156.253 141.781 155.806 142.03C155.261 142.316 154.649 142.523 153.983 142.645C153.271 142.783 152.519 142.849 151.737 142.844C151.556 142.844 151.375 142.837 151.192 142.832C151.179 142.832 151.168 142.821 151.168 142.808C151.168 142.801 151.17 142.795 151.174 142.79C151.178 142.785 151.183 142.782 151.19 142.781C152.044 142.644 152.846 142.42 153.584 142.113C153.581 141.99 153.573 141.871 153.576 141.752C153.611 141.17 153.784 140.639 154.086 140.189C154.308 139.834 154.57 139.506 154.87 139.209C155.044 139.033 155.227 138.865 155.418 138.708C155.513 138.629 155.611 138.553 155.71 138.48C155.757 138.445 155.805 138.403 155.856 138.375C155.889 138.357 155.92 138.358 155.9 138.407C155.893 138.422 155.883 138.435 155.873 138.448C155.866 138.458 155.851 138.481 155.843 138.49C155.715 138.657 155.583 138.821 155.455 138.988C155.099 139.438 154.785 139.917 154.514 140.423C154.401 140.64 154.338 140.885 154.329 141.149C154.322 141.373 154.368 141.584 154.527 141.758C155.085 141.581 155.57 141.309 155.961 140.953C156.514 140.461 156.972 139.892 157.328 139.257C157.647 138.705 157.916 138.123 158.134 137.514C158.282 137.106 158.439 136.702 158.64 136.316C158.869 135.867 159.15 135.45 159.481 135.07C159.778 134.72 160.14 134.42 160.558 134.178C160.673 134.112 160.793 134.053 160.92 134.001C160.955 133.997 160.965 134.042 160.935 134.064Z" fill="#FF3848"/>
<path d="M165.003 156.574C165.063 156.117 165.051 155.634 164.967 155.136C164.826 154.235 164.505 153.306 164.019 152.393C163.763 151.927 163.48 151.466 163.171 151.011C162.762 150.386 162.462 149.739 162.285 149.098C162.103 148.44 162.052 147.798 162.134 147.203C162.2 146.704 162.347 146.237 162.571 145.814C162.621 145.719 162.676 145.625 162.737 145.516C162.461 145.665 162.153 145.779 161.82 145.854C162.124 144.981 162.275 144.754 162.275 144.754C162.92 144.417 163.512 144.023 164.047 143.577C164.574 143.138 165.141 142.761 165.717 142.397C166.118 142.143 166.518 141.891 166.916 141.632C167.211 141.426 167.473 141.189 167.697 140.924C167.899 140.697 168.085 140.457 168.254 140.203C168.488 139.872 168.681 139.513 168.833 139.132C168.853 139.075 168.868 139.015 168.878 138.953C168.81 139.031 168.746 139.112 168.675 139.188C168.454 139.439 168.168 139.638 167.831 139.777C167.481 139.906 167.108 139.884 166.75 139.968C166.273 140.094 165.866 140.318 165.555 140.625C165.228 140.912 164.937 141.229 164.685 141.573C164.674 141.59 164.662 141.605 164.651 141.622C164.596 141.702 164.578 141.676 164.612 141.591C164.756 141.234 164.944 140.901 165.172 140.596C165.364 140.306 165.605 140.05 165.889 139.832C166.12 139.681 166.372 139.553 166.643 139.448C167.049 139.303 167.435 139.132 167.799 138.936C168.264 138.661 168.546 138.256 168.822 137.803C169.119 137.326 169.35 136.809 169.511 136.257C169.529 136.192 169.556 136.156 169.582 136.231C169.727 136.661 169.804 137.086 169.811 137.493C169.883 139.126 169.171 140.733 168.087 141.958C167.9 142.17 167.704 142.374 167.5 142.569C167.073 142.979 166.64 143.383 166.217 143.796C165.421 144.573 164.714 145.439 164.265 146.467C163.858 147.397 163.672 148.43 163.802 149.418C164.009 150.986 164.955 152.29 165.284 153.818C165.415 154.422 165.376 155.076 165.276 155.692C165.241 155.91 165.134 156.48 165.053 156.601C165.03 156.635 164.997 156.615 165.003 156.574Z" fill="#FF3848"/>
<path d="M151.128 161.987C151.009 161.851 150.893 161.712 150.779 161.571C150.75 161.534 150.777 161.503 150.817 161.533C151.141 161.765 151.458 162.007 151.79 162.226C152.491 162.698 153.253 163.061 154.026 163.293C154.633 163.473 155.234 163.545 155.788 163.505C156.379 163.462 156.909 163.303 157.341 163.036C157.412 162.993 157.48 162.943 157.56 162.889C157.126 162.728 156.703 162.509 156.308 162.243C157.169 162.261 157.95 161.591 157.95 161.591C157.95 161.591 159.385 162.375 161.182 161.739C161.202 161.733 161.226 161.734 161.252 161.742C161.277 161.75 161.301 161.766 161.319 161.786C161.338 161.805 161.349 161.828 161.351 161.849C161.354 161.87 161.347 161.889 161.333 161.902C161.13 162.152 160.856 162.481 160.669 162.669C160.347 162.996 159.996 163.268 159.639 163.548C159.043 164.027 158.314 164.377 157.483 164.583C156.656 164.777 155.79 164.758 154.987 164.535C154.405 164.363 153.828 164.105 153.286 163.773C152.469 163.288 151.731 162.677 151.127 161.987L151.128 161.987Z" fill="#FF3848"/>
<path d="M157.239 158.979C157.391 159.353 157.643 159.719 157.972 160.042C158.108 160.177 158.254 160.301 158.403 160.437C158.364 160.488 158.321 160.547 158.274 160.604C158.055 160.871 157.796 161.109 157.502 161.313C157.259 161.47 156.986 161.595 156.688 161.687C156.316 161.819 155.916 161.911 155.494 161.964C155.147 162 154.781 161.994 154.403 161.946C153.824 161.884 153.23 161.751 152.638 161.551C152.453 161.489 152.29 161.433 152.109 161.365C151.928 161.303 151.75 161.223 151.579 161.126C151.52 161.091 151.53 161.064 151.597 161.073C151.67 161.089 151.745 161.112 151.818 161.141C152.409 161.322 152.997 161.434 153.567 161.475C154.196 161.512 154.79 161.454 155.325 161.304C155.391 161.286 155.456 161.266 155.521 161.245C155.799 161.154 156.057 161.036 156.29 160.891C156.539 160.726 156.756 160.531 156.938 160.309C156.98 160.259 157.023 160.208 157.064 160.157C156.72 159.803 156.437 159.416 156.229 159.017C155.985 158.517 155.887 158.013 155.946 157.56C155.994 157.17 156.121 156.812 156.322 156.5C156.492 156.214 156.712 155.961 156.977 155.747C157.262 155.522 157.61 155.356 158.004 155.258C158.537 155.129 159.049 155.174 159.536 155.398C160.087 155.651 160.474 156.068 160.702 156.639C160.719 156.68 160.709 156.736 160.66 156.688C160.482 156.516 160.32 156.332 160.086 156.234C159.68 156.063 159.117 156.177 158.869 156.592C158.621 157.006 158.733 157.488 158.992 157.845C159.137 158.045 159.341 158.22 159.572 158.344C159.803 158.467 160.05 158.534 160.277 158.533C161.066 158.561 161.765 157.916 162.058 157.201C162.166 156.94 162.228 156.654 162.24 156.352C162.271 155.773 162.078 155.136 161.688 154.527C161.257 153.886 160.642 153.313 159.927 152.886C159.58 152.213 159.333 151.531 159.192 150.862C159.623 150.97 160.304 151.35 160.304 151.35C160.298 151.33 160.292 151.31 160.285 151.29C159.984 150.365 159.858 149.455 159.912 148.6C159.964 147.688 160.176 146.834 160.542 146.064C161.514 143.993 163.013 142.69 162.764 143.13C162.764 143.13 160.861 146.11 161.095 148.416C161.158 149.147 161.373 149.907 161.73 150.663C161.948 151.09 162.205 151.512 162.498 151.923C163.221 153.007 163.707 154.138 163.926 155.241C163.997 155.545 164.041 155.845 164.059 156.139C164.059 156.265 164.048 156.387 164.025 156.505C163.954 156.996 163.822 157.463 163.631 157.898C163.285 158.672 162.771 159.297 162.013 159.682C161.064 160.165 160.103 160.2 159.153 159.797C158.892 159.688 158.644 159.531 158.432 159.339C158.22 159.148 158.05 158.929 157.936 158.7C157.67 158.207 157.592 157.669 157.642 157.103C157.646 157.055 157.652 157.009 157.659 156.961C157.665 156.915 157.673 156.87 157.682 156.814C157.149 157.406 156.9 158.149 157.239 158.979Z" fill="#FF3848"/>
<path d="M150.275 148.22C150.391 148.253 150.506 148.293 150.622 148.326C151.425 148.543 152.221 148.674 152.991 148.714C154.238 148.795 155.461 148.628 156.662 148.213C157.333 147.978 157.95 147.674 158.505 147.305C158.614 147.217 158.746 147.256 158.701 147.436C158.574 148.09 158.53 148.777 158.57 149.486C158.647 150.754 158.963 151.948 159.516 153.068C159.849 153.764 160.275 154.449 160.784 155.107C160.859 155.202 160.939 155.291 161.015 155.386C161.049 155.43 161.028 155.459 160.981 155.427C160.345 154.993 159.669 154.653 158.889 154.55C158.139 154.451 157.424 154.586 156.753 154.989C156.433 155.177 156.162 155.414 155.947 155.694C155.762 155.943 155.608 156.213 155.486 156.502C155.264 156.979 155.166 157.522 155.198 158.103C155.227 158.591 155.399 159.109 155.698 159.61C155.853 159.867 156.04 160.117 156.254 160.354C156.264 160.366 156.275 160.379 156.29 160.396C155.579 160.885 154.932 160.959 154.932 160.959C154.932 160.959 154.841 160.834 154.794 160.767C154.365 160.133 154.081 159.468 153.963 158.823C153.851 158.272 153.866 157.701 153.873 157.136C153.879 156.711 153.87 155.971 153.863 155.562C153.862 155.464 153.741 155.428 153.681 155.506L153.679 155.508C153.1 156.5 152.854 157.557 153.018 158.691C153.099 159.266 153.297 159.858 153.603 160.442C153.614 160.464 153.571 160.5 153.555 160.483C152.996 159.888 152.61 159.215 152.447 158.553C152.278 157.916 152.247 157.299 152.355 156.734C151.875 157.051 151.293 157.259 150.641 157.348C149.966 157.451 149.197 157.353 148.432 157.065C148.411 157.057 148.428 157.003 148.452 157.005C149.109 157.063 149.732 157.019 150.293 156.873C151.404 156.589 152.285 155.956 152.979 155.041L152.981 155.038C153.029 154.952 152.95 154.856 152.859 154.891C152.47 155.046 151.758 155.331 151.353 155.503C150.849 155.717 150.345 155.946 149.809 156.051C149.168 156.189 148.445 156.182 147.695 156.029C147.614 156.012 147.465 155.975 147.465 155.975C147.465 155.975 147.285 155.349 147.463 154.505C147.484 154.513 147.5 154.517 147.516 154.523C147.817 154.629 148.119 154.706 148.416 154.75C148.994 154.834 149.538 154.794 150 154.634C150.548 154.44 151.012 154.141 151.368 153.753C151.587 153.53 151.778 153.284 151.937 153.018C152.113 152.712 152.227 152.37 152.279 152.003C152.393 151.229 152.244 150.517 151.864 149.862C151.469 149.182 150.897 148.687 150.251 148.267C150.204 148.236 150.222 148.205 150.275 148.22ZM154.416 152.015C154.549 152.41 154.65 152.802 154.719 153.19C155.104 153.105 155.506 153.048 155.921 153.019C155.829 152.649 155.714 152.276 155.579 151.903C155.182 151.921 154.794 151.958 154.416 152.015L154.416 152.015ZM153.267 153.023C153.151 153.332 153.008 153.626 152.838 153.903C153.017 153.801 153.201 153.708 153.392 153.624C153.435 153.605 153.478 153.586 153.522 153.568C153.483 153.463 153.444 153.357 153.404 153.252C153.371 153.166 153.327 153.084 153.284 152.992C153.275 153.009 153.27 153.016 153.267 153.023ZM155.168 154.429C155.055 154.433 154.943 154.437 154.831 154.442C154.831 154.489 154.83 154.536 154.83 154.583C154.825 154.791 154.81 154.998 154.785 155.202C154.975 154.938 155.191 154.693 155.432 154.468C155.438 154.462 155.442 154.455 155.454 154.44C155.353 154.436 155.261 154.427 155.168 154.43L155.168 154.429ZM154.207 151.451C154.525 151.288 154.858 151.143 155.205 151.017C155.075 150.745 154.927 150.474 154.762 150.206L154.744 150.168C155.203 150.058 155.643 149.917 156.06 149.747C156.064 149.758 156.22 150.237 156.35 150.747C156.871 150.672 157.374 150.632 157.385 150.632C157.388 151.082 157.427 151.541 157.501 152.008L157.459 152.006C157.149 151.957 156.842 151.924 156.541 151.908C156.557 152.278 156.552 152.641 156.523 152.996C157.064 152.99 157.626 153.039 158.198 153.143C158.209 153.145 158.22 153.146 158.234 153.148C158.191 153.02 158.144 152.896 158.106 152.77C157.971 152.293 157.884 151.822 157.845 151.361C157.718 150.149 157.896 148.971 158.306 147.817C157.398 148.638 156.378 149.255 155.21 149.603C154.77 149.744 154.301 149.844 153.81 149.903C153.678 149.916 153.546 149.921 153.411 149.929C153.418 149.941 153.424 149.951 153.43 149.961C153.745 150.45 154.005 150.95 154.207 151.452L154.207 151.451Z" fill="#FF3848"/>
<path d="M165.42 151.975C165.115 151.255 164.888 150.534 164.741 149.824C164.599 149.163 164.555 148.518 164.61 147.905C164.668 147.397 164.801 146.918 165.005 146.478C165.143 146.171 165.308 145.879 165.499 145.604C165.764 145.224 166.063 144.866 166.392 144.533C166.917 143.995 167.485 143.506 168.042 143.006C168.307 142.769 168.578 142.538 168.818 142.273C169.061 142.004 169.275 141.713 169.458 141.402C169.696 141.005 169.876 140.572 169.997 140.111C170.006 140.075 170.051 140.066 170.062 140.101C170.062 140.238 170.054 140.372 170.036 140.503C169.973 140.982 169.835 141.431 169.626 141.84C169.402 142.292 169.125 142.711 168.799 143.095C168.519 143.429 168.206 143.729 167.886 144.021C167.408 144.457 166.974 144.929 166.587 145.435C166.137 146.007 165.787 146.649 165.545 147.348C165.366 147.846 165.3 148.398 165.351 148.981C165.573 149.061 165.785 149.023 165.99 148.931C166.23 148.821 166.433 148.669 166.589 148.481C166.953 148.037 167.274 147.563 167.553 147.061C167.658 146.879 167.759 146.694 167.864 146.512C167.87 146.502 167.885 146.478 167.891 146.468C167.898 146.453 167.908 146.44 167.918 146.427C167.956 146.39 167.969 146.419 167.965 146.456C167.958 146.514 167.938 146.574 167.924 146.631C167.895 146.751 167.862 146.87 167.826 146.988C167.754 147.224 167.669 147.457 167.573 147.686C167.413 148.077 167.211 148.445 166.969 148.786C166.669 149.237 166.245 149.601 165.721 149.857C165.613 149.906 165.5 149.944 165.385 149.988C165.384 150.787 165.486 151.614 165.687 152.455C165.689 152.462 165.688 152.468 165.685 152.474C165.682 152.479 165.677 152.483 165.67 152.486C165.658 152.491 165.645 152.485 165.639 152.473C165.566 152.306 165.49 152.142 165.42 151.975Z" fill="#FF3848"/>
<path d="M56.241 166.328C53.5792 168.97 47.5371 167.195 42.7535 162.365C37.97 157.534 36.2445 151.485 38.908 148.844C41.5715 146.204 47.6058 147.98 52.3928 152.808C57.1799 157.636 58.9018 163.691 56.241 166.328Z" fill="#393939"/>
<path d="M55.396 165.478C52.9914 167.862 47.5385 166.26 43.2209 161.902C38.9033 157.544 37.346 152.08 39.7506 149.697C42.1551 147.315 47.6037 148.916 51.923 153.276C56.2424 157.636 57.7961 163.097 55.396 165.478Z" fill="#5A5A5A"/>
<path d="M64.1225 141.175C63.6059 140.653 62.9034 140.359 62.1695 140.355C61.4356 140.352 60.7305 140.641 60.2092 141.157L57.4497 143.895C57.4455 143.898 57.4419 143.903 57.4392 143.908C57.5836 144.028 57.7281 144.158 57.8725 144.281L59.2694 142.897C59.6853 142.5 60.2401 142.283 60.8147 142.291C61.3892 142.299 61.9377 142.532 62.3423 142.94C62.747 143.348 62.9755 143.898 62.9788 144.473C62.9821 145.047 62.76 145.6 62.3601 146.013L60.9614 147.398C61.0847 147.544 61.2116 147.69 61.334 147.839C61.3371 147.834 61.3414 147.831 61.3463 147.829L64.1076 145.091C64.3659 144.835 64.5711 144.53 64.7117 144.195C64.8523 143.859 64.9253 143.499 64.9267 143.136C64.9281 142.772 64.8578 142.412 64.7198 142.075C64.5818 141.739 64.3788 141.433 64.1225 141.175Z" fill="#212121"/>
<path d="M62.3728 142.909C62.1699 142.704 61.9287 142.542 61.6629 142.43C61.3972 142.319 61.112 142.261 60.8239 142.26C60.5357 142.259 60.2501 142.314 59.9835 142.424C59.7168 142.533 59.4743 142.694 59.2698 142.897L57.8729 144.281C58.4154 144.745 58.9571 145.23 59.4856 145.763L59.4909 145.77C60.0193 146.304 60.502 146.85 60.9618 147.398L62.3604 146.013C62.5652 145.81 62.7279 145.569 62.8393 145.303C62.9507 145.037 63.0086 144.752 63.0097 144.464C63.0109 144.175 62.9552 143.89 62.8459 143.623C62.7366 143.356 62.5758 143.114 62.3728 142.909Z" fill="#292525"/>
<path d="M65.8936 156.754C65.7174 153.521 63.5278 149.287 59.7695 145.493L59.7633 145.487C56.005 141.7 51.7896 139.473 48.5597 139.274L47.8119 140.016C50.8744 139.875 55.3453 142.114 59.2225 146.024L59.2287 146.03C63.1042 149.943 65.3061 154.433 65.144 157.497L65.8936 156.754Z" fill="#292525"/>
<path d="M34.3906 162.515C33.4691 161.17 32.967 159.583 32.9477 157.954C32.9284 156.324 33.3928 154.725 34.2822 153.36C35.1716 151.994 36.446 150.923 37.9443 150.282C39.4425 149.641 41.0972 149.458 42.6992 149.757C44.3011 150.057 45.7784 150.824 46.944 151.963C48.1096 153.102 48.9112 154.561 49.2475 156.156C49.5838 157.751 49.4396 159.409 48.8332 160.922C48.2268 162.434 47.1854 163.733 45.8408 164.654C44.038 165.886 41.8199 166.353 39.6732 165.952C37.5265 165.551 35.6267 164.315 34.3906 162.515Z" fill="#686868"/>
<path d="M29.3081 163.002C27.1871 159.91 30.018 154.282 35.6286 150.447C41.2392 146.612 47.5033 145.999 49.6199 149.093C51.7364 152.186 48.909 157.805 43.2976 161.646C37.6861 165.488 31.422 166.095 29.3081 163.002Z" fill="#393939"/>
<path d="M29.0483 161.785L49.3574 147.873L31.1835 123.874L13.1063 136.255L29.0483 161.785Z" fill="#393939"/>
<path d="M18.0092 144.218C21.1271 144.262 25.2069 142.876 29.1695 140.166L29.1775 140.161C33.141 137.448 35.9023 134.149 36.9883 131.226L36.4475 130.521C35.5491 133.375 32.7482 136.797 28.7459 139.534L28.7397 139.54C24.7392 142.277 20.5326 143.657 17.5467 143.464L18.0092 144.218Z" fill="#292525"/>
<path d="M13.1056 136.253C10.9865 133.156 13.3179 127.877 18.3075 124.46C23.2972 121.044 29.0663 120.779 31.1846 123.874C33.3029 126.969 30.9705 132.241 25.9783 135.663C20.986 139.085 15.223 139.343 13.1056 136.253Z" fill="#393939"/>
<path d="M31.1846 123.874C30.7195 122.069 28.6356 116.967 26.0849 115.67C23.5341 114.374 19.4147 113.669 12.8828 119.017C6.35087 124.366 6.21962 128.375 7.58043 130.698C8.94124 133.02 12.4468 135.915 13.4412 136.677C14.7993 137.714 28.0014 135.281 31.1846 123.874Z" fill="#393939"/>
<path d="M30.0361 124.061C29.6142 122.424 27.7267 117.8 25.4137 116.623C23.1008 115.446 19.3698 114.811 13.4483 119.658C7.52681 124.504 7.40791 128.139 8.64277 130.245C9.87763 132.35 13.0537 134.973 13.9548 135.663C15.1888 136.606 27.1516 134.4 30.0361 124.061Z" fill="#686868"/>
<path d="M21.5098 118.05C21.5098 118.05 20.2508 114.453 19.2775 110.483" stroke="#FFD00D" stroke-width="3.52314" stroke-miterlimit="10" stroke-linecap="round"/>
<path d="M16.1214 120.292C16.1214 120.292 15.6123 116.593 19.3389 121.092" stroke="#FFD00D" stroke-width="3.52314" stroke-miterlimit="10" stroke-linecap="round"/>
<path d="M12.6415 124.322C12.6415 124.322 12.3658 120.908 16.0977 124.322" stroke="#FFD00D" stroke-width="3.52314" stroke-miterlimit="10" stroke-linecap="round"/>
<path d="M10.8906 127.693C10.8906 127.693 7.22332 125.847 4.93944 124.54" stroke="#FFD00D" stroke-width="3.52314" stroke-miterlimit="10" stroke-linecap="round"/>
<path d="M25.9306 122.584C25.9306 122.584 27.516 119.879 23.7384 121.234" stroke="#FFD00D" stroke-width="3.52314" stroke-miterlimit="10" stroke-linecap="round"/>
<path d="M21.2077 134.762C21.3806 135.328 21.6244 135.858 21.9358 136.345C22.2257 136.809 22.5209 137.223 23.0034 137.501C23.3809 137.698 23.7805 137.869 24.2001 138.014C24.4811 138.119 24.7426 138.248 24.9818 138.4C25.2771 138.621 25.528 138.883 25.7297 139.179C25.9687 139.49 26.1657 139.831 26.3184 140.197C26.3545 140.284 26.3368 140.311 26.2789 140.229L26.2438 140.179C25.9794 139.828 25.6758 139.505 25.3357 139.213C25.0116 138.9 24.5899 138.675 24.0964 138.551C23.7269 138.469 23.3431 138.496 22.981 138.367C22.6319 138.228 22.3353 138.026 22.104 137.77C22.0304 137.693 21.9629 137.611 21.8925 137.531C21.9029 137.595 21.9191 137.656 21.9412 137.714C22.1018 138.106 22.3057 138.473 22.5507 138.811C22.7276 139.07 22.9216 139.315 23.1327 139.547C23.367 139.818 23.6394 140.059 23.9462 140.266C24.3575 140.53 24.7743 140.785 25.1901 141.04C25.7886 141.408 26.3776 141.79 26.9245 142.236C27.481 142.689 28.096 143.087 28.7637 143.427C28.7637 143.427 28.9228 143.659 29.2465 144.554C28.9024 144.481 28.5839 144.368 28.2974 144.217C28.3616 144.329 28.4188 144.425 28.4721 144.523C28.708 144.955 28.865 145.434 28.9391 145.948C29.0309 146.56 28.986 147.221 28.8063 147.902C28.6319 148.564 28.3308 149.234 27.9165 149.883C27.6037 150.355 27.3178 150.834 27.0602 151.316C26.5703 152.264 26.2511 153.223 26.1168 154.154C26.036 154.667 26.0294 155.165 26.0973 155.636C26.1038 155.678 26.0696 155.699 26.0461 155.665C25.9614 155.541 25.8443 154.955 25.8053 154.731C25.6953 154.098 25.6472 153.424 25.7742 152.8C26.0953 151.223 27.0531 149.867 27.2474 148.25C27.3697 147.23 27.166 146.169 26.7355 145.216C26.2604 144.163 25.5211 143.279 24.6919 142.488C24.2501 142.068 23.8005 141.657 23.3558 141.24C23.1435 141.041 22.9394 140.834 22.7436 140.617C21.6114 139.369 20.8591 137.722 20.9134 136.039C20.9163 135.619 20.9906 135.18 21.134 134.736C21.1606 134.658 21.188 134.695 21.2077 134.762Z" fill="#FF3848"/>
<path d="M33.4222 160.718C33.4222 160.718 34.235 161.399 35.1211 161.37C34.7173 161.649 34.2839 161.879 33.8392 162.051C33.9223 162.105 33.9926 162.156 34.0663 162.199C34.5153 162.469 35.0622 162.627 35.6715 162.663C36.2428 162.699 36.8609 162.617 37.4842 162.424C38.2771 162.176 39.0579 161.793 39.7741 161.298C40.1138 161.069 40.4377 160.816 40.7681 160.572C40.8093 160.542 40.8373 160.573 40.8074 160.611C40.6924 160.758 40.5745 160.903 40.4536 161.044C39.8397 161.762 39.0867 162.4 38.2512 162.91C37.6966 163.258 37.1055 163.531 36.508 163.715C35.6836 163.955 34.7918 163.984 33.9376 163.795C33.0795 163.593 32.324 163.241 31.7045 162.755C31.333 162.47 30.9686 162.195 30.6325 161.862C30.4384 161.67 30.1516 161.334 29.9396 161.08C29.9246 161.067 29.9176 161.047 29.9199 161.025C29.9222 161.003 29.9338 160.98 29.9524 160.96C29.971 160.939 29.9955 160.923 30.0214 160.914C30.0474 160.905 30.073 160.904 30.0936 160.91C31.953 161.543 33.4222 160.718 33.4222 160.718Z" fill="#FF3848"/>
<path d="M27.1889 154.25C27.4011 153.111 27.8891 151.94 28.6203 150.815C28.9177 150.387 29.1776 149.95 29.3966 149.508C29.755 148.724 29.967 147.938 30.0231 147.185C30.2367 144.807 28.2401 141.76 28.2401 141.76C27.9781 141.309 29.5379 142.634 30.5645 144.755C30.9508 145.545 31.1796 146.422 31.2441 147.36C31.3099 148.241 31.1906 149.179 30.8913 150.136C30.8856 150.156 30.8789 150.177 30.8727 150.197C30.8727 150.197 31.5696 149.798 32.0127 149.682C31.8756 150.373 31.6287 151.078 31.2792 151.775C30.5486 152.224 29.9221 152.822 29.4853 153.488C29.0908 154.119 28.8998 154.778 28.9387 155.374C28.9554 155.685 29.022 155.978 29.1369 156.246C29.4465 156.98 30.1753 157.635 30.9873 157.596C31.2208 157.595 31.4747 157.523 31.7115 157.393C31.9483 157.263 32.1556 157.08 32.303 156.872C32.5652 156.501 32.675 156.004 32.4145 155.58C32.154 155.156 31.5721 155.046 31.1564 155.226C30.9168 155.33 30.7524 155.521 30.5705 155.701C30.5203 155.751 30.51 155.693 30.5265 155.65C30.7542 155.06 31.1485 154.626 31.7131 154.358C32.2117 154.122 32.739 154.069 33.289 154.196C33.6967 154.292 34.0565 154.458 34.3531 154.687C34.629 154.904 34.8588 155.162 35.0374 155.454C35.2481 155.774 35.3831 156.141 35.4374 156.542C35.5033 157.008 35.4085 157.528 35.1633 158.046C34.9542 158.46 34.6669 158.862 34.3164 159.23C34.3602 159.282 34.4042 159.334 34.4489 159.386C34.6384 159.612 34.8646 159.811 35.1234 159.977C35.3649 160.123 35.6317 160.242 35.9198 160.332C35.9868 160.354 36.0542 160.373 36.122 160.391C36.6751 160.539 37.2878 160.592 37.9349 160.545C38.5215 160.497 39.1266 160.374 39.7326 160.181C39.808 160.15 39.8842 160.126 39.96 160.108C40.0282 160.098 40.0395 160.125 39.9792 160.163C39.8035 160.264 39.6211 160.348 39.4363 160.415C39.2496 160.487 39.0829 160.546 38.8935 160.613C38.2855 160.826 37.6751 160.97 37.0797 161.041C36.6912 161.095 36.3136 161.105 35.9559 161.072C35.5205 161.023 35.1075 160.933 34.7228 160.802C34.415 160.711 34.1324 160.585 33.8799 160.427C33.5742 160.22 33.3049 159.978 33.0759 159.705C33.0272 159.647 32.9822 159.587 32.941 159.535C33.0924 159.393 33.2417 159.264 33.38 159.123C33.7152 158.786 33.9708 158.406 34.1222 158.019C34.4604 157.161 34.1958 156.398 33.6397 155.795C33.6493 155.852 33.6578 155.899 33.6647 155.946C33.6719 155.995 33.6792 156.044 33.684 156.093C33.7424 156.675 33.6687 157.23 33.4001 157.741C33.286 157.978 33.1133 158.206 32.8972 158.405C32.681 158.605 32.4279 158.77 32.1601 158.885C31.1861 159.312 30.1965 159.288 29.2128 158.802C28.4273 158.415 27.8905 157.777 27.5247 156.983C27.3223 156.537 27.1804 156.059 27.1012 155.553C27.0762 155.432 27.0632 155.307 27.0623 155.177C27.0775 154.874 27.1198 154.564 27.1889 154.25Z" fill="#FF3848"/>
<path d="M20.7528 138.737C20.8826 139.211 21.0738 139.654 21.3236 140.061C21.516 140.379 21.7398 140.676 21.9933 140.95C22.2436 141.221 22.5256 141.455 22.8015 141.696C23.3825 142.204 23.9735 142.701 24.5201 143.249C24.8637 143.588 25.1754 143.953 25.4537 144.341C25.6532 144.622 25.8263 144.92 25.9721 145.235C26.1881 145.686 26.3307 146.178 26.3971 146.701C26.4611 147.331 26.4233 147.996 26.2846 148.679C26.1425 149.412 25.9171 150.157 25.6119 150.903C25.5417 151.076 25.4654 151.246 25.3907 151.419C25.3854 151.431 25.3714 151.437 25.3587 151.433C25.3521 151.43 25.347 151.426 25.3439 151.42C25.3408 151.415 25.3398 151.408 25.341 151.401C25.5385 150.532 25.633 149.679 25.623 148.856C25.5039 148.812 25.3872 148.774 25.2748 148.725C24.7317 148.468 24.2909 148.098 23.976 147.637C23.7225 147.288 23.51 146.912 23.3405 146.511C23.2392 146.277 23.1493 146.038 23.0722 145.795C23.0338 145.674 22.9986 145.552 22.9666 145.429C22.9513 145.37 22.9299 145.309 22.9223 145.249C22.9176 145.21 22.9311 145.181 22.9699 145.218C22.9811 145.231 22.9908 145.245 22.9988 145.261C23.0055 145.27 23.0218 145.294 23.0272 145.305C23.138 145.491 23.2443 145.68 23.3544 145.867C23.6475 146.38 23.9848 146.865 24.3645 147.318C24.5282 147.51 24.7384 147.664 24.9869 147.774C25.1992 147.866 25.4182 147.903 25.646 147.818C25.6912 147.217 25.6171 146.649 25.4269 146.138C25.1689 145.421 24.801 144.765 24.3303 144.181C23.9257 143.664 23.4729 143.182 22.9747 142.74C22.6416 142.442 22.3156 142.137 22.0236 141.796C21.6826 141.405 21.3923 140.976 21.1559 140.514C20.9356 140.095 20.7883 139.634 20.7172 139.141C20.698 139.007 20.6878 138.869 20.6865 138.728C20.6963 138.692 20.743 138.7 20.7528 138.737Z" fill="#FF3848"/>
<path d="M43.8329 143.497C43.4187 143.263 42.9523 143.089 42.4444 142.978C41.5283 142.767 40.5181 142.717 39.4578 142.831C38.9145 142.896 38.3648 142.989 37.8116 143.11C37.0566 143.261 36.3228 143.299 35.6424 143.222C34.9432 143.143 34.3105 142.946 33.7731 142.639C33.3211 142.384 32.9315 142.064 32.6138 141.687C32.5416 141.602 32.4733 141.514 32.3923 141.414C32.4289 141.736 32.4191 142.073 32.3629 142.421C31.6455 141.795 31.4865 141.562 31.4865 141.562C31.4117 140.817 31.2632 140.1 31.0425 139.417C30.8253 138.745 30.6825 138.058 30.5558 137.367C30.4675 136.887 30.3801 136.407 30.2847 135.928C30.202 135.566 30.076 135.225 29.9083 134.909C29.769 134.628 29.6107 134.359 29.4335 134.1C29.2064 133.749 28.9382 133.426 28.6315 133.135C28.585 133.093 28.5336 133.056 28.4778 133.023C28.5271 133.117 28.5797 133.21 28.6247 133.307C28.7795 133.615 28.8603 133.965 28.8635 134.34C28.8529 134.725 28.6881 135.072 28.6314 135.447C28.5681 135.952 28.6254 136.426 28.7996 136.842C28.9483 137.264 29.1396 137.664 29.3719 138.038C29.3833 138.054 29.3939 138.072 29.4052 138.088C29.4611 138.172 29.4296 138.179 29.3613 138.114C29.0755 137.839 28.8291 137.532 28.6254 137.197C28.422 136.901 28.2692 136.573 28.1703 136.217C28.1145 135.939 28.0888 135.649 28.0934 135.349C28.1099 134.905 28.0946 134.471 28.0476 134.048C27.9632 133.497 27.6843 133.072 27.3574 132.634C27.0161 132.168 26.61 131.748 26.1445 131.382C26.0891 131.34 26.065 131.301 26.1466 131.304C26.6132 131.331 27.049 131.421 27.4415 131.57C29.0297 132.128 30.2923 133.426 31.0469 134.933C31.1774 135.194 31.2969 135.459 31.4056 135.729C31.6326 136.295 31.853 136.863 32.0856 137.427C32.5216 138.486 33.0785 139.495 33.888 140.319C34.621 141.066 35.5363 141.64 36.5318 141.895C38.1093 142.299 39.7194 141.897 41.3065 142.169C41.9339 142.276 42.5442 142.565 43.0946 142.897C43.2895 143.014 43.7936 143.335 43.8779 143.459C43.9011 143.494 43.8694 143.518 43.8329 143.497Z" fill="#FF3848"/>
<path d="M43.6762 158.838C43.5003 158.9 43.3227 158.957 43.1443 159.011C43.098 159.025 43.0787 158.988 43.122 158.96C43.4688 158.741 43.8219 158.53 44.1589 158.297C44.8788 157.808 45.5193 157.219 46.0371 156.57C46.443 156.058 46.743 155.512 46.9169 154.966C47.1036 154.385 47.1541 153.818 47.0652 153.302C47.0515 153.217 47.0301 153.134 47.0094 153.036C46.6883 153.389 46.3169 153.709 45.9107 153.985C46.2591 153.169 45.9179 152.165 45.9179 152.165C45.9179 152.165 47.2191 151.094 47.3016 149.133C47.3028 149.111 47.3132 149.088 47.331 149.067C47.3488 149.046 47.3727 149.029 47.3986 149.019C47.4244 149.009 47.4503 149.007 47.4717 149.013C47.4931 149.019 47.5084 149.032 47.515 149.051C47.6758 149.341 47.8847 149.729 47.9938 149.98C48.1822 150.414 48.3071 150.853 48.4377 151.302C48.6665 152.056 48.7212 152.887 48.5992 153.761C48.4661 154.625 48.116 155.446 47.5936 156.128C47.2064 156.618 46.7379 157.07 46.2121 157.461C45.4346 158.055 44.5675 158.526 43.676 158.839L43.6762 158.838Z" fill="#FF3848"/>
<path d="M43.1477 151.842C43.5634 151.841 44.0105 151.74 44.446 151.55C44.6272 151.472 44.802 151.38 44.9884 151.29C45.0221 151.347 45.0622 151.411 45.0984 151.477C45.2702 151.789 45.3981 152.128 45.4803 152.488C45.5363 152.78 45.5514 153.089 45.5251 153.409C45.5076 153.815 45.4424 154.233 45.3304 154.657C45.2317 155.002 45.0852 155.35 44.8942 155.693C44.6127 156.222 44.2573 156.739 43.8383 157.228C43.7081 157.381 43.5929 157.515 43.4576 157.663C43.3288 157.811 43.1838 157.95 43.0259 158.078C42.9693 158.12 42.9478 158.1 42.9817 158.04C43.0258 157.976 43.0762 157.913 43.1321 157.854C43.5316 157.359 43.865 156.84 44.1227 156.31C44.3999 155.724 44.573 155.134 44.6346 154.565C44.6426 154.495 44.649 154.425 44.6537 154.355C44.6741 154.054 44.6596 153.762 44.6105 153.484C44.5493 153.182 44.4463 152.9 44.3034 152.641C44.2718 152.581 44.2395 152.521 44.2065 152.461C43.7361 152.655 43.2577 152.777 42.7962 152.822C42.2243 152.863 41.7055 152.763 41.2947 152.533C40.9404 152.337 40.647 152.079 40.4258 151.767C40.2176 151.494 40.0605 151.187 39.9582 150.851C39.8521 150.492 39.8275 150.096 39.8852 149.681C39.9664 149.123 40.2067 148.65 40.6073 148.271C41.0611 147.842 41.6084 147.631 42.2413 147.633C42.2872 147.633 42.3372 147.663 42.2727 147.692C42.0391 147.796 41.8014 147.88 41.6177 148.066C41.2989 148.389 41.1911 148.971 41.4921 149.367C41.7932 149.763 42.2963 149.841 42.7371 149.731C42.9843 149.669 43.2296 149.542 43.4368 149.368C43.644 149.195 43.8023 148.984 43.8884 148.767C44.2186 148.024 43.8709 147.108 43.2999 146.553C43.0916 146.349 42.8423 146.181 42.5581 146.052C42.017 145.801 41.3335 145.74 40.6022 145.879C39.8237 146.045 39.0396 146.413 38.3567 146.932C37.5797 147.005 36.8334 146.98 36.1397 146.857C36.4086 146.487 37.0329 145.981 37.0329 145.981C37.0115 145.98 36.9904 145.978 36.969 145.976C35.9689 145.909 35.0509 145.68 34.2538 145.3C33.4026 144.9 32.668 144.369 32.072 143.723C30.4659 141.998 29.796 140.065 30.1216 140.472C30.1216 140.472 32.2386 143.436 34.533 144.098C35.2555 144.318 36.065 144.405 36.9248 144.355C37.4164 144.311 37.9182 144.227 38.4241 144.104C39.7377 143.83 41.0058 143.8 42.1438 144.014C42.4614 144.064 42.7654 144.136 43.0532 144.232C43.1738 144.28 43.2864 144.338 43.3901 144.405C43.8324 144.662 44.2275 144.967 44.5698 145.317C45.1774 145.945 45.5774 146.677 45.6542 147.549C45.7508 148.642 45.4153 149.573 44.6648 150.327C44.4601 150.535 44.2149 150.711 43.9507 150.84C43.6864 150.969 43.4112 151.048 43.149 151.068C42.5759 151.134 42.0317 151.002 41.5099 150.736C41.4657 150.714 41.4233 150.69 41.3801 150.665C41.339 150.642 41.2987 150.617 41.2488 150.587C41.6101 151.324 42.2249 151.847 43.1477 151.842Z" fill="#FF3848"/>
<path d="M30.1903 154.365C30.2667 154.266 30.349 154.173 30.4253 154.074C30.9411 153.39 31.3715 152.679 31.7059 151.958C32.2629 150.798 32.5734 149.564 32.6374 148.257C32.6702 147.526 32.6167 146.819 32.4775 146.147C32.4353 146.009 32.5235 145.898 32.6786 146.01C33.2543 146.383 33.8937 146.688 34.5876 146.923C35.8288 147.336 37.0912 147.493 38.3748 147.394C39.1677 147.343 39.9865 147.199 40.8106 146.966C40.93 146.931 41.0465 146.888 41.1665 146.852C41.2212 146.836 41.2403 146.868 41.1926 146.901C40.5327 147.341 39.9485 147.858 39.5506 148.563C39.1674 149.242 39.0222 149.978 39.1492 150.773C39.2062 151.152 39.3288 151.502 39.5134 151.815C39.6806 152.087 39.8797 152.338 40.1087 152.565C40.4796 152.961 40.9608 153.263 41.528 153.456C42.0063 153.616 42.5666 153.651 43.1605 153.557C43.4663 153.507 43.777 153.425 44.0857 153.312C44.1013 153.306 44.1179 153.301 44.1396 153.293C44.3334 154.161 44.1558 154.807 44.1558 154.807C44.1558 154.807 44.0021 154.847 43.9195 154.866C43.1482 155.032 42.4041 155.048 41.7421 154.913C41.1721 154.809 40.6322 154.575 40.0954 154.351C39.6909 154.182 38.9801 153.907 38.5863 153.756C38.4927 153.72 38.4117 153.821 38.4629 153.908L38.4646 153.911C39.1901 154.845 40.1058 155.487 41.2533 155.766C41.8333 155.909 42.4757 155.947 43.1515 155.88C43.1766 155.877 43.1944 155.932 43.1724 155.941C42.3887 156.247 41.5969 156.357 40.901 156.259C40.2279 156.175 39.6263 155.968 39.128 155.648C39.2461 156.228 39.2216 156.864 39.0555 157.522C38.8955 158.206 38.5057 158.904 37.9374 159.524C37.9211 159.542 37.8762 159.505 37.8877 159.482C38.1954 158.877 38.392 158.264 38.4688 157.672C38.6236 156.501 38.3572 155.415 37.7488 154.401L37.7469 154.398C37.6837 154.319 37.5606 154.358 37.5602 154.458C37.5581 154.889 37.5571 155.679 37.566 156.132C37.577 156.696 37.6025 157.267 37.4967 157.819C37.3827 158.485 37.0981 159.173 36.6637 159.831C36.6158 159.902 36.5236 160.031 36.5236 160.031C36.5236 160.031 35.8564 159.962 35.1182 159.467C35.1331 159.45 35.1438 159.437 35.1549 159.424C35.3722 159.177 35.5615 158.917 35.7186 158.65C36.0207 158.13 36.1913 157.595 36.2157 157.092C36.2409 156.493 36.1335 155.935 35.8988 155.446C35.7702 155.15 35.6084 154.874 35.415 154.62C35.1901 154.334 34.9077 154.093 34.5757 153.903C33.8802 153.497 33.1419 153.365 32.3699 153.477C31.5685 153.593 30.8759 153.95 30.226 154.406C30.1786 154.439 30.156 154.409 30.1903 154.365ZM35.4087 151.865C35.837 151.889 36.2514 151.943 36.6488 152.026C36.7154 151.626 36.815 151.22 36.9471 150.812C36.5574 150.758 36.1572 150.724 35.7482 150.71C35.613 151.097 35.4998 151.482 35.4091 151.864L35.4087 151.865ZM35.9311 153.35C36.1817 153.579 36.4074 153.829 36.6067 154.098C36.5788 153.889 36.5609 153.676 36.553 153.461C36.5514 153.413 36.5504 153.365 36.55 153.316C36.4342 153.312 36.3184 153.31 36.2025 153.308C36.107 153.306 36.0117 153.316 35.9077 153.322C35.9202 153.337 35.925 153.345 35.9311 153.35ZM38.0056 152.074C37.9653 152.182 37.926 152.291 37.8878 152.401C37.9325 152.419 37.9772 152.437 38.0219 152.456C38.2196 152.54 38.4111 152.634 38.5965 152.736C38.4176 152.453 38.2664 152.152 38.1436 151.836C38.1405 151.828 38.1354 151.821 38.126 151.804C38.0833 151.899 38.039 151.984 38.0064 152.073L38.0056 152.074ZM34.7896 151.848C34.7558 151.482 34.7453 151.108 34.7584 150.727C34.4477 150.747 34.1319 150.784 33.8128 150.839L33.7698 150.842C33.8403 150.36 33.8746 149.886 33.8724 149.422C33.8841 149.422 34.4022 149.457 34.94 149.529C35.0679 149.002 35.2228 148.506 35.2272 148.495C35.6585 148.665 36.1129 148.805 36.5874 148.913L36.5689 148.952C36.403 149.23 36.254 149.511 36.1229 149.793C36.4826 149.919 36.8275 150.064 37.1563 150.228C37.3582 149.708 37.6208 149.19 37.9394 148.683C37.9457 148.673 37.9513 148.663 37.9586 148.65C37.8198 148.643 37.6834 148.639 37.5477 148.628C37.0406 148.574 36.5565 148.476 36.1011 148.336C34.8937 147.992 33.8357 147.369 32.8908 146.534C33.3269 147.717 33.5249 148.929 33.4085 150.179C33.3741 150.654 33.29 151.141 33.157 151.633C33.1188 151.764 33.0726 151.892 33.029 152.024C33.0433 152.022 33.055 152.02 33.0666 152.018C33.6546 151.905 34.2326 151.848 34.7901 151.848L34.7896 151.848Z" fill="#FF3848"/>
<path d="M39.5971 141.333C38.7917 141.347 38.0157 141.288 37.2803 141.154C36.5936 141.037 35.9602 140.831 35.3957 140.543C34.9324 140.292 34.5255 139.981 34.1833 139.616C33.9428 139.367 33.7273 139.097 33.5381 138.81C33.2764 138.41 33.0491 137.987 32.8575 137.544C32.5446 136.836 32.2956 136.105 32.0318 135.38C31.9068 135.036 31.7903 134.688 31.6288 134.357C31.4653 134.021 31.2695 133.705 31.0429 133.411C30.7541 133.03 30.4098 132.692 30.0152 132.399C29.9844 132.377 29.9933 132.331 30.0309 132.334C30.1616 132.386 30.2865 132.446 30.405 132.512C30.8388 132.757 31.2153 133.061 31.5261 133.418C31.8715 133.806 32.1662 134.232 32.4072 134.691C32.6189 135.087 32.7853 135.501 32.9423 135.919C33.1744 136.544 33.4591 137.14 33.7947 137.704C34.1685 138.355 34.6476 138.935 35.2223 139.435C35.6298 139.798 36.1324 140.072 36.7093 140.248C36.871 140.066 36.9159 139.849 36.9066 139.617C36.8936 139.346 36.8261 139.094 36.7068 138.872C36.4216 138.354 36.092 137.865 35.7198 137.406C35.5857 137.235 35.4479 137.068 35.3139 136.897C35.3072 136.888 35.2897 136.864 35.2828 136.855C35.2716 136.842 35.262 136.828 35.2539 136.813C35.2327 136.763 35.2654 136.761 35.2995 136.779C35.3523 136.808 35.4022 136.85 35.4511 136.886C35.5543 136.96 35.6555 137.037 35.7546 137.117C35.9529 137.276 36.1431 137.447 36.3247 137.626C36.6372 137.929 36.9111 138.264 37.144 138.626C37.4604 139.087 37.6452 139.631 37.6884 140.231C37.6932 140.353 37.6862 140.475 37.6847 140.603C38.4482 140.91 39.2773 141.13 40.1584 141.261C40.1656 141.262 40.1716 141.266 40.1757 141.271C40.1798 141.276 40.182 141.282 40.1819 141.289C40.1816 141.302 40.1713 141.313 40.1578 141.314C39.9699 141.32 39.7837 141.33 39.5971 141.333Z" fill="#FF3848"/>
</svg>
