<svg width="1900" height="40" viewBox="0 0 1900 40" fill="none" xmlns="http://www.w3.org/2000/svg">
<path d="M-8.71094 21.1758L-8.7793 21.2148C-8.39844 21.2148 -8.125 21.3418 -7.95898 21.5957C-7.91992 21.6738 -7.83203 21.7812 -7.70508 21.918C-7.11914 22.4551 -6.11328 22.7188 -4.69727 22.7188C-2.97852 22.7188 -2.11914 22.3379 -2.11914 21.5762C-2.11914 21.2344 -2.27539 21 -2.59766 20.8828C-2.91992 20.7656 -3.38867 20.6875 -4.00391 20.6582L-7.34375 20.502C-7.74414 20.4922 -8.08594 20.4727 -8.36914 20.4434C-8.65234 20.4141 -9.02344 20.3652 -9.47266 20.2969C-9.92188 20.2285 -10.3027 20.1406 -10.6152 20.0332C-10.9277 19.9258 -11.2695 19.7695 -11.6309 19.5742C-11.9922 19.3789 -12.2852 19.1445 -12.5098 18.8809C-12.7344 18.6172 -12.9199 18.2852 -13.0762 17.8945C-13.2324 17.5039 -13.3105 17.0547 -13.3105 16.5566C-13.3105 14.9941 -12.5977 13.8125 -11.1621 13.0117C-9.72656 12.2109 -7.77344 11.8105 -5.30273 11.8105C-3.02734 11.8105 -1.14258 12.1816 0.351562 12.9238C1.8457 13.666 2.73438 14.6621 3.01758 15.9219C3.06641 16.1758 3.02734 16.3711 2.89062 16.5176C2.75391 16.6641 2.54883 16.7324 2.26562 16.7324H-1.40625C-1.8457 16.7324 -2.10938 16.6543 -2.1875 16.5078C-2.23633 16.4004 -2.27539 16.332 -2.30469 16.293C-2.68555 15.5801 -3.68164 15.2285 -5.29297 15.2285C-7.08984 15.2285 -7.98828 15.6289 -7.98828 16.4297C-7.98828 16.6738 -7.88086 16.8594 -7.67578 16.9961C-7.4707 17.1328 -7.22656 17.2109 -6.94336 17.2402C-6.66016 17.2695 -6.23047 17.2988 -5.6543 17.3281L-2.25586 17.4941C1.39648 17.6699 3.22266 19.0469 3.23242 21.625C3.23242 24.6816 0.595703 26.2051 -4.6875 26.2051C-7.24609 26.2051 -9.24805 25.834 -10.6934 25.0918C-12.1387 24.3496 -12.998 23.3242 -13.2812 22.0156C-13.3301 21.752 -13.291 21.5469 -13.1543 21.4004C-13.0176 21.2539 -12.8125 21.1758 -12.5293 21.1758H-8.71094ZM17.4316 12.5234C17.6465 12.1816 17.9688 12.0059 18.3984 11.9961H22.8516C23.3887 11.9961 23.6523 12.2598 23.6523 12.7969V25.1992C23.6523 25.7363 23.3887 26 22.8516 26H19.2773C18.7402 26 18.4766 25.7363 18.4766 25.1992V18.998H18.2324L14.6191 24.3594C14.4434 24.6133 14.2578 24.7402 14.0527 24.7402C13.8477 24.7402 13.6621 24.6133 13.4961 24.3594L9.87305 18.998H9.63867V25.1992C9.63867 25.7363 9.375 26 8.83789 26H5.25391C4.7168 26 4.45312 25.7363 4.45312 25.1992V12.7969C4.45312 12.2598 4.7168 11.9961 5.25391 11.9961H9.7168C10.1465 11.9961 10.4688 12.1719 10.6738 12.5234L13.9355 17.6016H14.1699L17.4316 12.5234ZM37.9492 26L37.9199 26.0098C37.4414 26.0098 37.1387 25.7852 37.0117 25.3457L36.6504 24.252H30.791L30.4297 25.3457C30.3027 25.7852 30 26.0098 29.5215 26.0098H25.625C25.332 26.0098 25.127 25.9219 25.0098 25.7461C24.8926 25.5703 24.8828 25.3457 24.9902 25.082L29.4922 12.6406C29.6582 12.2109 29.9609 11.9961 30.4102 11.9961H37.0703C37.5293 11.9961 37.832 12.2109 37.9883 12.6406L42.4902 25.082C42.5977 25.3457 42.5879 25.5605 42.4707 25.7363C42.3535 25.9121 42.1484 26 41.8555 26H37.9492ZM31.8848 20.8535H35.5371L33.9062 15.873H33.5059L31.8848 20.8535ZM56.1133 21.8203L59.834 25.0137C60.1172 25.2578 60.2246 25.4824 60.1465 25.6875C60.0684 25.8926 59.8438 25.9902 59.4727 25.9902H54.7949C54.4238 25.9902 54.0918 25.8535 53.8086 25.5703L49.9121 21.6738H48.9941V25.1895C48.9941 25.7266 48.7305 25.9902 48.1934 25.9902H44.6094C44.0723 25.9902 43.8086 25.7266 43.8086 25.1895V12.7871C43.8086 12.25 44.0723 11.9863 44.6094 11.9863H54.8535C56.6504 11.9863 58.0566 12.4258 59.0625 13.3047C60.0684 14.1836 60.5762 15.3555 60.5762 16.8301C60.5762 18.207 60.1855 19.3105 59.4043 20.1406C58.623 20.9707 57.5488 21.459 56.1719 21.6152L56.1133 21.8203ZM53.4277 18.7344H53.418C54.6191 18.7344 55.2246 18.2363 55.2246 17.2305C55.2246 16.2246 54.6289 15.7266 53.4277 15.7266H48.9941V18.7344H53.4277ZM75.9863 11.9961C76.5234 11.9961 76.7871 12.2598 76.7871 12.7969V15.0039C76.7871 15.541 76.5234 15.8047 75.9863 15.8047H71.7871V25.1992C71.7871 25.7363 71.5234 26 70.9863 26H67.4121C66.875 26 66.6113 25.7363 66.6113 25.1992V15.8047H62.4121C61.875 15.8047 61.6113 15.541 61.6113 15.0039V12.7969C61.6113 12.2598 61.875 11.9961 62.4121 11.9961H75.9863ZM87.6758 26L87.6465 26.0098C87.168 26.0098 86.8652 25.7852 86.7383 25.3457L86.377 24.252H80.5176L80.1562 25.3457C80.0293 25.7852 79.7266 26.0098 79.248 26.0098H75.3516C75.0586 26.0098 74.8535 25.9219 74.7363 25.7461C74.6191 25.5703 74.6094 25.3457 74.7168 25.082L79.2188 12.6406C79.3848 12.2109 79.6875 11.9961 80.1367 11.9961H86.7969C87.2559 11.9961 87.5586 12.2109 87.7148 12.6406L92.2168 25.082C92.3242 25.3457 92.3145 25.5605 92.1973 25.7363C92.0801 25.9121 91.875 26 91.582 26H87.6758ZM81.6113 20.8535H85.2637L83.6328 15.873H83.2324L81.6113 20.8535ZM94.3555 26L94.3359 26.0098C93.7988 26.0098 93.5352 25.7461 93.5352 25.209V12.8066C93.5352 12.2695 93.7988 12.0059 94.3359 12.0059H104.18C106.025 12.0059 107.441 12.4551 108.428 13.3535C109.414 14.252 109.902 15.4824 109.902 17.0449C109.902 18.6074 109.414 19.8379 108.428 20.7363C107.441 21.6348 106.035 22.084 104.199 22.084H98.7402V25.1992C98.7402 25.7363 98.4766 26 97.9395 26H94.3555ZM98.7207 18.7539H102.91C103.457 18.7539 103.867 18.6172 104.141 18.3535C104.414 18.0898 104.551 17.7188 104.551 17.25C104.551 16.752 104.404 16.3809 104.111 16.127C103.818 15.873 103.418 15.7461 102.92 15.7461H98.7207V18.7539ZM111.914 26L111.895 26.0098C111.357 26.0098 111.094 25.7461 111.094 25.209V12.8066C111.094 12.2695 111.357 12.0059 111.895 12.0059H121.738C123.584 12.0059 125 12.4551 125.986 13.3535C126.973 14.252 127.461 15.4824 127.461 17.0449C127.461 18.6074 126.973 19.8379 125.986 20.7363C125 21.6348 123.594 22.084 121.758 22.084H116.299V25.1992C116.299 25.7363 116.035 26 115.498 26H111.914ZM116.279 18.7539H120.469C121.016 18.7539 121.426 18.6172 121.699 18.3535C121.973 18.0898 122.109 17.7188 122.109 17.25C122.109 16.752 121.963 16.3809 121.67 16.127C121.377 15.873 120.977 15.7461 120.479 15.7461H116.279V18.7539ZM132.734 21.1758L132.666 21.2148C133.047 21.2148 133.32 21.3418 133.486 21.5957C133.525 21.6738 133.613 21.7812 133.74 21.918C134.326 22.4551 135.332 22.7188 136.748 22.7188C138.467 22.7188 139.326 22.3379 139.326 21.5762C139.326 21.2344 139.17 21 138.848 20.8828C138.525 20.7656 138.057 20.6875 137.441 20.6582L134.102 20.502C133.701 20.4922 133.359 20.4727 133.076 20.4434C132.793 20.4141 132.422 20.3652 131.973 20.2969C131.523 20.2285 131.143 20.1406 130.83 20.0332C130.518 19.9258 130.176 19.7695 129.814 19.5742C129.453 19.3789 129.16 19.1445 128.936 18.8809C128.711 18.6172 128.525 18.2852 128.369 17.8945C128.213 17.5039 128.135 17.0547 128.135 16.5566C128.135 14.9941 128.848 13.8125 130.283 13.0117C131.719 12.2109 133.672 11.8105 136.143 11.8105C138.418 11.8105 140.303 12.1816 141.797 12.9238C143.291 13.666 144.18 14.6621 144.463 15.9219C144.512 16.1758 144.473 16.3711 144.336 16.5176C144.199 16.6641 143.994 16.7324 143.711 16.7324H140.039C139.6 16.7324 139.336 16.6543 139.258 16.5078C139.209 16.4004 139.17 16.332 139.141 16.293C138.76 15.5801 137.764 15.2285 136.152 15.2285C134.355 15.2285 133.457 15.6289 133.457 16.4297C133.457 16.6738 133.564 16.8594 133.77 16.9961C133.975 17.1328 134.219 17.2109 134.502 17.2402C134.785 17.2695 135.215 17.2988 135.791 17.3281L139.189 17.4941C142.842 17.6699 144.668 19.0469 144.678 21.625C144.678 24.6816 142.041 26.2051 136.758 26.2051C134.199 26.2051 132.197 25.834 130.752 25.0918C129.307 24.3496 128.447 23.3242 128.164 22.0156C128.115 21.752 128.154 21.5469 128.291 21.4004C128.428 21.2539 128.633 21.1758 128.916 21.1758H132.734Z" fill="white"/>
<rect x="165" width="40" height="40" rx="10" fill="white"/>
<path d="M181.91 27.9201L188.43 21.4001C189.2 20.6301 189.2 19.3701 188.43 18.6001L181.91 12.0801" stroke="#FF3848" stroke-width="1.5" stroke-miterlimit="10" stroke-linecap="round" stroke-linejoin="round"/>
<path d="M319.548 32.768C317.532 32.768 315.702 32.4413 314.06 31.788C312.417 31.1533 310.998 30.2573 309.804 29.1C308.628 27.9427 307.713 26.58 307.06 25.012C306.425 23.444 306.108 21.736 306.108 19.888C306.108 18.0587 306.425 16.3693 307.06 14.82C307.713 13.2707 308.637 11.9173 309.832 10.76C311.026 9.60267 312.454 8.70667 314.116 8.072C315.777 7.43733 317.625 7.12 319.66 7.12C321.62 7.12 323.412 7.428 325.036 8.044C326.66 8.64133 328.06 9.49067 329.236 10.592C330.412 11.6933 331.317 12.9907 331.952 14.484C332.586 15.9587 332.904 17.5733 332.904 19.328C332.904 20.9893 332.661 22.408 332.176 23.584C331.709 24.76 331.046 25.656 330.188 26.272C329.329 26.888 328.321 27.196 327.164 27.196C325.894 27.196 324.886 26.8227 324.14 26.076C323.393 25.3293 323.02 24.2373 323.02 22.8V21.512L323.104 20L322.852 15.94V13.252H326.66V22.324C326.66 22.996 326.79 23.4627 327.052 23.724C327.313 23.9853 327.63 24.116 328.004 24.116C328.433 24.116 328.797 23.948 329.096 23.612C329.413 23.276 329.656 22.7627 329.824 22.072C329.992 21.3627 330.076 20.4667 330.076 19.384C330.076 17.9653 329.824 16.668 329.32 15.492C328.834 14.316 328.125 13.2987 327.192 12.44C326.277 11.5813 325.176 10.928 323.888 10.48C322.618 10.0133 321.209 9.78 319.66 9.78C318.11 9.78 316.692 10.032 315.404 10.536C314.116 11.04 313.014 11.7493 312.1 12.664C311.185 13.56 310.476 14.624 309.972 15.856C309.486 17.088 309.244 18.432 309.244 19.888C309.244 21.3813 309.486 22.7533 309.972 24.004C310.457 25.236 311.148 26.3 312.044 27.196C312.958 28.1107 314.05 28.82 315.32 29.324C316.589 29.828 317.998 30.08 319.548 30.08C320.444 30.08 321.368 29.9773 322.32 29.772C323.272 29.5853 324.186 29.2773 325.064 28.848L325.96 31.424C325.101 31.8533 324.093 32.18 322.936 32.404C321.797 32.6467 320.668 32.768 319.548 32.768ZM318.54 27.196C317.345 27.196 316.253 26.9067 315.264 26.328C314.293 25.7307 313.518 24.9 312.94 23.836C312.361 22.7533 312.072 21.512 312.072 20.112C312.072 18.712 312.352 17.48 312.912 16.416C313.49 15.352 314.265 14.5307 315.236 13.952C316.225 13.3547 317.326 13.056 318.54 13.056C319.772 13.056 320.826 13.336 321.704 13.896C322.581 14.456 323.253 15.2587 323.72 16.304C324.186 17.3493 324.42 18.6187 324.42 20.112C324.42 21.5867 324.196 22.856 323.748 23.92C323.3 24.984 322.637 25.796 321.76 26.356C320.901 26.916 319.828 27.196 318.54 27.196ZM319.408 23.976C320.08 23.976 320.677 23.8267 321.2 23.528C321.741 23.2107 322.161 22.7627 322.46 22.184C322.758 21.6053 322.908 20.9147 322.908 20.112C322.908 19.2907 322.758 18.6 322.46 18.04C322.161 17.48 321.741 17.0507 321.2 16.752C320.677 16.4533 320.08 16.304 319.408 16.304C318.736 16.304 318.138 16.4533 317.616 16.752C317.093 17.0507 316.682 17.4893 316.384 18.068C316.085 18.628 315.936 19.3093 315.936 20.112C315.936 20.9147 316.085 21.6053 316.384 22.184C316.682 22.744 317.093 23.1827 317.616 23.5C318.138 23.8173 318.736 23.976 319.408 23.976Z" fill="white"/>
<path d="M339.289 21.1758L339.221 21.2148C339.602 21.2148 339.875 21.3418 340.041 21.5957C340.08 21.6738 340.168 21.7812 340.295 21.918C340.881 22.4551 341.887 22.7188 343.303 22.7188C345.021 22.7188 345.881 22.3379 345.881 21.5762C345.881 21.2344 345.725 21 345.402 20.8828C345.08 20.7656 344.611 20.6875 343.996 20.6582L340.656 20.502C340.256 20.4922 339.914 20.4727 339.631 20.4434C339.348 20.4141 338.977 20.3652 338.527 20.2969C338.078 20.2285 337.697 20.1406 337.385 20.0332C337.072 19.9258 336.73 19.7695 336.369 19.5742C336.008 19.3789 335.715 19.1445 335.49 18.8809C335.266 18.6172 335.08 18.2852 334.924 17.8945C334.768 17.5039 334.689 17.0547 334.689 16.5566C334.689 14.9941 335.402 13.8125 336.838 13.0117C338.273 12.2109 340.227 11.8105 342.697 11.8105C344.973 11.8105 346.857 12.1816 348.352 12.9238C349.846 13.666 350.734 14.6621 351.018 15.9219C351.066 16.1758 351.027 16.3711 350.891 16.5176C350.754 16.6641 350.549 16.7324 350.266 16.7324H346.594C346.154 16.7324 345.891 16.6543 345.812 16.5078C345.764 16.4004 345.725 16.332 345.695 16.293C345.314 15.5801 344.318 15.2285 342.707 15.2285C340.91 15.2285 340.012 15.6289 340.012 16.4297C340.012 16.6738 340.119 16.8594 340.324 16.9961C340.529 17.1328 340.773 17.2109 341.057 17.2402C341.34 17.2695 341.77 17.2988 342.346 17.3281L345.744 17.4941C349.396 17.6699 351.223 19.0469 351.232 21.625C351.232 24.6816 348.596 26.2051 343.312 26.2051C340.754 26.2051 338.752 25.834 337.307 25.0918C335.861 24.3496 335.002 23.3242 334.719 22.0156C334.67 21.752 334.709 21.5469 334.846 21.4004C334.982 21.2539 335.188 21.1758 335.471 21.1758H339.289ZM365.432 12.5234C365.646 12.1816 365.969 12.0059 366.398 11.9961H370.852C371.389 11.9961 371.652 12.2598 371.652 12.7969V25.1992C371.652 25.7363 371.389 26 370.852 26H367.277C366.74 26 366.477 25.7363 366.477 25.1992V18.998H366.232L362.619 24.3594C362.443 24.6133 362.258 24.7402 362.053 24.7402C361.848 24.7402 361.662 24.6133 361.496 24.3594L357.873 18.998H357.639V25.1992C357.639 25.7363 357.375 26 356.838 26H353.254C352.717 26 352.453 25.7363 352.453 25.1992V12.7969C352.453 12.2598 352.717 11.9961 353.254 11.9961H357.717C358.146 11.9961 358.469 12.1719 358.674 12.5234L361.936 17.6016H362.17L365.432 12.5234ZM385.949 26L385.92 26.0098C385.441 26.0098 385.139 25.7852 385.012 25.3457L384.65 24.252H378.791L378.43 25.3457C378.303 25.7852 378 26.0098 377.521 26.0098H373.625C373.332 26.0098 373.127 25.9219 373.01 25.7461C372.893 25.5703 372.883 25.3457 372.99 25.082L377.492 12.6406C377.658 12.2109 377.961 11.9961 378.41 11.9961H385.07C385.529 11.9961 385.832 12.2109 385.988 12.6406L390.49 25.082C390.598 25.3457 390.588 25.5605 390.471 25.7363C390.354 25.9121 390.148 26 389.855 26H385.949ZM379.885 20.8535H383.537L381.906 15.873H381.506L379.885 20.8535ZM404.113 21.8203L407.834 25.0137C408.117 25.2578 408.225 25.4824 408.146 25.6875C408.068 25.8926 407.844 25.9902 407.473 25.9902H402.795C402.424 25.9902 402.092 25.8535 401.809 25.5703L397.912 21.6738H396.994V25.1895C396.994 25.7266 396.73 25.9902 396.193 25.9902H392.609C392.072 25.9902 391.809 25.7266 391.809 25.1895V12.7871C391.809 12.25 392.072 11.9863 392.609 11.9863H402.854C404.65 11.9863 406.057 12.4258 407.062 13.3047C408.068 14.1836 408.576 15.3555 408.576 16.8301C408.576 18.207 408.186 19.3105 407.404 20.1406C406.623 20.9707 405.549 21.459 404.172 21.6152L404.113 21.8203ZM401.428 18.7344H401.418C402.619 18.7344 403.225 18.2363 403.225 17.2305C403.225 16.2246 402.629 15.7266 401.428 15.7266H396.994V18.7344H401.428ZM423.986 11.9961C424.523 11.9961 424.787 12.2598 424.787 12.7969V15.0039C424.787 15.541 424.523 15.8047 423.986 15.8047H419.787V25.1992C419.787 25.7363 419.523 26 418.986 26H415.412C414.875 26 414.611 25.7363 414.611 25.1992V15.8047H410.412C409.875 15.8047 409.611 15.541 409.611 15.0039V12.7969C409.611 12.2598 409.875 11.9961 410.412 11.9961H423.986ZM435.676 26L435.646 26.0098C435.168 26.0098 434.865 25.7852 434.738 25.3457L434.377 24.252H428.518L428.156 25.3457C428.029 25.7852 427.727 26.0098 427.248 26.0098H423.352C423.059 26.0098 422.854 25.9219 422.736 25.7461C422.619 25.5703 422.609 25.3457 422.717 25.082L427.219 12.6406C427.385 12.2109 427.688 11.9961 428.137 11.9961H434.797C435.256 11.9961 435.559 12.2109 435.715 12.6406L440.217 25.082C440.324 25.3457 440.314 25.5605 440.197 25.7363C440.08 25.9121 439.875 26 439.582 26H435.676ZM429.611 20.8535H433.264L431.633 15.873H431.232L429.611 20.8535ZM442.355 26L442.336 26.0098C441.799 26.0098 441.535 25.7461 441.535 25.209V12.8066C441.535 12.2695 441.799 12.0059 442.336 12.0059H452.18C454.025 12.0059 455.441 12.4551 456.428 13.3535C457.414 14.252 457.902 15.4824 457.902 17.0449C457.902 18.6074 457.414 19.8379 456.428 20.7363C455.441 21.6348 454.035 22.084 452.199 22.084H446.74V25.1992C446.74 25.7363 446.477 26 445.939 26H442.355ZM446.721 18.7539H450.91C451.457 18.7539 451.867 18.6172 452.141 18.3535C452.414 18.0898 452.551 17.7188 452.551 17.25C452.551 16.752 452.404 16.3809 452.111 16.127C451.818 15.873 451.418 15.7461 450.92 15.7461H446.721V18.7539ZM459.914 26L459.895 26.0098C459.357 26.0098 459.094 25.7461 459.094 25.209V12.8066C459.094 12.2695 459.357 12.0059 459.895 12.0059H469.738C471.584 12.0059 473 12.4551 473.986 13.3535C474.973 14.252 475.461 15.4824 475.461 17.0449C475.461 18.6074 474.973 19.8379 473.986 20.7363C473 21.6348 471.594 22.084 469.758 22.084H464.299V25.1992C464.299 25.7363 464.035 26 463.498 26H459.914ZM464.279 18.7539H468.469C469.016 18.7539 469.426 18.6172 469.699 18.3535C469.973 18.0898 470.109 17.7188 470.109 17.25C470.109 16.752 469.963 16.3809 469.67 16.127C469.377 15.873 468.977 15.7461 468.479 15.7461H464.279V18.7539ZM480.734 21.1758L480.666 21.2148C481.047 21.2148 481.32 21.3418 481.486 21.5957C481.525 21.6738 481.613 21.7812 481.74 21.918C482.326 22.4551 483.332 22.7188 484.748 22.7188C486.467 22.7188 487.326 22.3379 487.326 21.5762C487.326 21.2344 487.17 21 486.848 20.8828C486.525 20.7656 486.057 20.6875 485.441 20.6582L482.102 20.502C481.701 20.4922 481.359 20.4727 481.076 20.4434C480.793 20.4141 480.422 20.3652 479.973 20.2969C479.523 20.2285 479.143 20.1406 478.83 20.0332C478.518 19.9258 478.176 19.7695 477.814 19.5742C477.453 19.3789 477.16 19.1445 476.936 18.8809C476.711 18.6172 476.525 18.2852 476.369 17.8945C476.213 17.5039 476.135 17.0547 476.135 16.5566C476.135 14.9941 476.848 13.8125 478.283 13.0117C479.719 12.2109 481.672 11.8105 484.143 11.8105C486.418 11.8105 488.303 12.1816 489.797 12.9238C491.291 13.666 492.18 14.6621 492.463 15.9219C492.512 16.1758 492.473 16.3711 492.336 16.5176C492.199 16.6641 491.994 16.7324 491.711 16.7324H488.039C487.6 16.7324 487.336 16.6543 487.258 16.5078C487.209 16.4004 487.17 16.332 487.141 16.293C486.76 15.5801 485.764 15.2285 484.152 15.2285C482.355 15.2285 481.457 15.6289 481.457 16.4297C481.457 16.6738 481.564 16.8594 481.77 16.9961C481.975 17.1328 482.219 17.2109 482.502 17.2402C482.785 17.2695 483.215 17.2988 483.791 17.3281L487.189 17.4941C490.842 17.6699 492.668 19.0469 492.678 21.625C492.678 24.6816 490.041 26.2051 484.758 26.2051C482.199 26.2051 480.197 25.834 478.752 25.0918C477.307 24.3496 476.447 23.3242 476.164 22.0156C476.115 21.752 476.154 21.5469 476.291 21.4004C476.428 21.2539 476.633 21.1758 476.916 21.1758H480.734Z" fill="white"/>
<rect x="513" width="40" height="40" rx="10" fill="white"/>
<path d="M529.91 27.9201L536.43 21.4001C537.2 20.6301 537.2 19.3701 536.43 18.6001L529.91 12.0801" stroke="#FF3848" stroke-width="1.5" stroke-miterlimit="10" stroke-linecap="round" stroke-linejoin="round"/>
<path d="M667.548 32.768C665.532 32.768 663.702 32.4413 662.06 31.788C660.417 31.1533 658.998 30.2573 657.804 29.1C656.628 27.9427 655.713 26.58 655.06 25.012C654.425 23.444 654.108 21.736 654.108 19.888C654.108 18.0587 654.425 16.3693 655.06 14.82C655.713 13.2707 656.637 11.9173 657.832 10.76C659.026 9.60267 660.454 8.70667 662.116 8.072C663.777 7.43733 665.625 7.12 667.66 7.12C669.62 7.12 671.412 7.428 673.036 8.044C674.66 8.64133 676.06 9.49067 677.236 10.592C678.412 11.6933 679.317 12.9907 679.952 14.484C680.586 15.9587 680.904 17.5733 680.904 19.328C680.904 20.9893 680.661 22.408 680.176 23.584C679.709 24.76 679.046 25.656 678.188 26.272C677.329 26.888 676.321 27.196 675.164 27.196C673.894 27.196 672.886 26.8227 672.14 26.076C671.393 25.3293 671.02 24.2373 671.02 22.8V21.512L671.104 20L670.852 15.94V13.252H674.66V22.324C674.66 22.996 674.79 23.4627 675.052 23.724C675.313 23.9853 675.63 24.116 676.004 24.116C676.433 24.116 676.797 23.948 677.096 23.612C677.413 23.276 677.656 22.7627 677.824 22.072C677.992 21.3627 678.076 20.4667 678.076 19.384C678.076 17.9653 677.824 16.668 677.32 15.492C676.834 14.316 676.125 13.2987 675.192 12.44C674.277 11.5813 673.176 10.928 671.888 10.48C670.618 10.0133 669.209 9.78 667.66 9.78C666.11 9.78 664.692 10.032 663.404 10.536C662.116 11.04 661.014 11.7493 660.1 12.664C659.185 13.56 658.476 14.624 657.972 15.856C657.486 17.088 657.244 18.432 657.244 19.888C657.244 21.3813 657.486 22.7533 657.972 24.004C658.457 25.236 659.148 26.3 660.044 27.196C660.958 28.1107 662.05 28.82 663.32 29.324C664.589 29.828 665.998 30.08 667.548 30.08C668.444 30.08 669.368 29.9773 670.32 29.772C671.272 29.5853 672.186 29.2773 673.064 28.848L673.96 31.424C673.101 31.8533 672.093 32.18 670.936 32.404C669.797 32.6467 668.668 32.768 667.548 32.768ZM666.54 27.196C665.345 27.196 664.253 26.9067 663.264 26.328C662.293 25.7307 661.518 24.9 660.94 23.836C660.361 22.7533 660.072 21.512 660.072 20.112C660.072 18.712 660.352 17.48 660.912 16.416C661.49 15.352 662.265 14.5307 663.236 13.952C664.225 13.3547 665.326 13.056 666.54 13.056C667.772 13.056 668.826 13.336 669.704 13.896C670.581 14.456 671.253 15.2587 671.72 16.304C672.186 17.3493 672.42 18.6187 672.42 20.112C672.42 21.5867 672.196 22.856 671.748 23.92C671.3 24.984 670.637 25.796 669.76 26.356C668.901 26.916 667.828 27.196 666.54 27.196ZM667.408 23.976C668.08 23.976 668.677 23.8267 669.2 23.528C669.741 23.2107 670.161 22.7627 670.46 22.184C670.758 21.6053 670.908 20.9147 670.908 20.112C670.908 19.2907 670.758 18.6 670.46 18.04C670.161 17.48 669.741 17.0507 669.2 16.752C668.677 16.4533 668.08 16.304 667.408 16.304C666.736 16.304 666.138 16.4533 665.616 16.752C665.093 17.0507 664.682 17.4893 664.384 18.068C664.085 18.628 663.936 19.3093 663.936 20.112C663.936 20.9147 664.085 21.6053 664.384 22.184C664.682 22.744 665.093 23.1827 665.616 23.5C666.138 23.8173 666.736 23.976 667.408 23.976Z" fill="white"/>
<path d="M687.289 21.1758L687.221 21.2148C687.602 21.2148 687.875 21.3418 688.041 21.5957C688.08 21.6738 688.168 21.7812 688.295 21.918C688.881 22.4551 689.887 22.7188 691.303 22.7188C693.021 22.7188 693.881 22.3379 693.881 21.5762C693.881 21.2344 693.725 21 693.402 20.8828C693.08 20.7656 692.611 20.6875 691.996 20.6582L688.656 20.502C688.256 20.4922 687.914 20.4727 687.631 20.4434C687.348 20.4141 686.977 20.3652 686.527 20.2969C686.078 20.2285 685.697 20.1406 685.385 20.0332C685.072 19.9258 684.73 19.7695 684.369 19.5742C684.008 19.3789 683.715 19.1445 683.49 18.8809C683.266 18.6172 683.08 18.2852 682.924 17.8945C682.768 17.5039 682.689 17.0547 682.689 16.5566C682.689 14.9941 683.402 13.8125 684.838 13.0117C686.273 12.2109 688.227 11.8105 690.697 11.8105C692.973 11.8105 694.857 12.1816 696.352 12.9238C697.846 13.666 698.734 14.6621 699.018 15.9219C699.066 16.1758 699.027 16.3711 698.891 16.5176C698.754 16.6641 698.549 16.7324 698.266 16.7324H694.594C694.154 16.7324 693.891 16.6543 693.812 16.5078C693.764 16.4004 693.725 16.332 693.695 16.293C693.314 15.5801 692.318 15.2285 690.707 15.2285C688.91 15.2285 688.012 15.6289 688.012 16.4297C688.012 16.6738 688.119 16.8594 688.324 16.9961C688.529 17.1328 688.773 17.2109 689.057 17.2402C689.34 17.2695 689.77 17.2988 690.346 17.3281L693.744 17.4941C697.396 17.6699 699.223 19.0469 699.232 21.625C699.232 24.6816 696.596 26.2051 691.312 26.2051C688.754 26.2051 686.752 25.834 685.307 25.0918C683.861 24.3496 683.002 23.3242 682.719 22.0156C682.67 21.752 682.709 21.5469 682.846 21.4004C682.982 21.2539 683.188 21.1758 683.471 21.1758H687.289ZM713.432 12.5234C713.646 12.1816 713.969 12.0059 714.398 11.9961H718.852C719.389 11.9961 719.652 12.2598 719.652 12.7969V25.1992C719.652 25.7363 719.389 26 718.852 26H715.277C714.74 26 714.477 25.7363 714.477 25.1992V18.998H714.232L710.619 24.3594C710.443 24.6133 710.258 24.7402 710.053 24.7402C709.848 24.7402 709.662 24.6133 709.496 24.3594L705.873 18.998H705.639V25.1992C705.639 25.7363 705.375 26 704.838 26H701.254C700.717 26 700.453 25.7363 700.453 25.1992V12.7969C700.453 12.2598 700.717 11.9961 701.254 11.9961H705.717C706.146 11.9961 706.469 12.1719 706.674 12.5234L709.936 17.6016H710.17L713.432 12.5234ZM733.949 26L733.92 26.0098C733.441 26.0098 733.139 25.7852 733.012 25.3457L732.65 24.252H726.791L726.43 25.3457C726.303 25.7852 726 26.0098 725.521 26.0098H721.625C721.332 26.0098 721.127 25.9219 721.01 25.7461C720.893 25.5703 720.883 25.3457 720.99 25.082L725.492 12.6406C725.658 12.2109 725.961 11.9961 726.41 11.9961H733.07C733.529 11.9961 733.832 12.2109 733.988 12.6406L738.49 25.082C738.598 25.3457 738.588 25.5605 738.471 25.7363C738.354 25.9121 738.148 26 737.855 26H733.949ZM727.885 20.8535H731.537L729.906 15.873H729.506L727.885 20.8535ZM752.113 21.8203L755.834 25.0137C756.117 25.2578 756.225 25.4824 756.146 25.6875C756.068 25.8926 755.844 25.9902 755.473 25.9902H750.795C750.424 25.9902 750.092 25.8535 749.809 25.5703L745.912 21.6738H744.994V25.1895C744.994 25.7266 744.73 25.9902 744.193 25.9902H740.609C740.072 25.9902 739.809 25.7266 739.809 25.1895V12.7871C739.809 12.25 740.072 11.9863 740.609 11.9863H750.854C752.65 11.9863 754.057 12.4258 755.062 13.3047C756.068 14.1836 756.576 15.3555 756.576 16.8301C756.576 18.207 756.186 19.3105 755.404 20.1406C754.623 20.9707 753.549 21.459 752.172 21.6152L752.113 21.8203ZM749.428 18.7344H749.418C750.619 18.7344 751.225 18.2363 751.225 17.2305C751.225 16.2246 750.629 15.7266 749.428 15.7266H744.994V18.7344H749.428ZM771.986 11.9961C772.523 11.9961 772.787 12.2598 772.787 12.7969V15.0039C772.787 15.541 772.523 15.8047 771.986 15.8047H767.787V25.1992C767.787 25.7363 767.523 26 766.986 26H763.412C762.875 26 762.611 25.7363 762.611 25.1992V15.8047H758.412C757.875 15.8047 757.611 15.541 757.611 15.0039V12.7969C757.611 12.2598 757.875 11.9961 758.412 11.9961H771.986ZM783.676 26L783.646 26.0098C783.168 26.0098 782.865 25.7852 782.738 25.3457L782.377 24.252H776.518L776.156 25.3457C776.029 25.7852 775.727 26.0098 775.248 26.0098H771.352C771.059 26.0098 770.854 25.9219 770.736 25.7461C770.619 25.5703 770.609 25.3457 770.717 25.082L775.219 12.6406C775.385 12.2109 775.688 11.9961 776.137 11.9961H782.797C783.256 11.9961 783.559 12.2109 783.715 12.6406L788.217 25.082C788.324 25.3457 788.314 25.5605 788.197 25.7363C788.08 25.9121 787.875 26 787.582 26H783.676ZM777.611 20.8535H781.264L779.633 15.873H779.232L777.611 20.8535ZM790.355 26L790.336 26.0098C789.799 26.0098 789.535 25.7461 789.535 25.209V12.8066C789.535 12.2695 789.799 12.0059 790.336 12.0059H800.18C802.025 12.0059 803.441 12.4551 804.428 13.3535C805.414 14.252 805.902 15.4824 805.902 17.0449C805.902 18.6074 805.414 19.8379 804.428 20.7363C803.441 21.6348 802.035 22.084 800.199 22.084H794.74V25.1992C794.74 25.7363 794.477 26 793.939 26H790.355ZM794.721 18.7539H798.91C799.457 18.7539 799.867 18.6172 800.141 18.3535C800.414 18.0898 800.551 17.7188 800.551 17.25C800.551 16.752 800.404 16.3809 800.111 16.127C799.818 15.873 799.418 15.7461 798.92 15.7461H794.721V18.7539ZM807.914 26L807.895 26.0098C807.357 26.0098 807.094 25.7461 807.094 25.209V12.8066C807.094 12.2695 807.357 12.0059 807.895 12.0059H817.738C819.584 12.0059 821 12.4551 821.986 13.3535C822.973 14.252 823.461 15.4824 823.461 17.0449C823.461 18.6074 822.973 19.8379 821.986 20.7363C821 21.6348 819.594 22.084 817.758 22.084H812.299V25.1992C812.299 25.7363 812.035 26 811.498 26H807.914ZM812.279 18.7539H816.469C817.016 18.7539 817.426 18.6172 817.699 18.3535C817.973 18.0898 818.109 17.7188 818.109 17.25C818.109 16.752 817.963 16.3809 817.67 16.127C817.377 15.873 816.977 15.7461 816.479 15.7461H812.279V18.7539ZM828.734 21.1758L828.666 21.2148C829.047 21.2148 829.32 21.3418 829.486 21.5957C829.525 21.6738 829.613 21.7812 829.74 21.918C830.326 22.4551 831.332 22.7188 832.748 22.7188C834.467 22.7188 835.326 22.3379 835.326 21.5762C835.326 21.2344 835.17 21 834.848 20.8828C834.525 20.7656 834.057 20.6875 833.441 20.6582L830.102 20.502C829.701 20.4922 829.359 20.4727 829.076 20.4434C828.793 20.4141 828.422 20.3652 827.973 20.2969C827.523 20.2285 827.143 20.1406 826.83 20.0332C826.518 19.9258 826.176 19.7695 825.814 19.5742C825.453 19.3789 825.16 19.1445 824.936 18.8809C824.711 18.6172 824.525 18.2852 824.369 17.8945C824.213 17.5039 824.135 17.0547 824.135 16.5566C824.135 14.9941 824.848 13.8125 826.283 13.0117C827.719 12.2109 829.672 11.8105 832.143 11.8105C834.418 11.8105 836.303 12.1816 837.797 12.9238C839.291 13.666 840.18 14.6621 840.463 15.9219C840.512 16.1758 840.473 16.3711 840.336 16.5176C840.199 16.6641 839.994 16.7324 839.711 16.7324H836.039C835.6 16.7324 835.336 16.6543 835.258 16.5078C835.209 16.4004 835.17 16.332 835.141 16.293C834.76 15.5801 833.764 15.2285 832.152 15.2285C830.355 15.2285 829.457 15.6289 829.457 16.4297C829.457 16.6738 829.564 16.8594 829.77 16.9961C829.975 17.1328 830.219 17.2109 830.502 17.2402C830.785 17.2695 831.215 17.2988 831.791 17.3281L835.189 17.4941C838.842 17.6699 840.668 19.0469 840.678 21.625C840.678 24.6816 838.041 26.2051 832.758 26.2051C830.199 26.2051 828.197 25.834 826.752 25.0918C825.307 24.3496 824.447 23.3242 824.164 22.0156C824.115 21.752 824.154 21.5469 824.291 21.4004C824.428 21.2539 824.633 21.1758 824.916 21.1758H828.734Z" fill="white"/>
<rect x="861" width="40" height="40" rx="10" fill="white"/>
<path d="M877.91 27.9201L884.43 21.4001C885.2 20.6301 885.2 19.3701 884.43 18.6001L877.91 12.0801" stroke="#FF3848" stroke-width="1.5" stroke-miterlimit="10" stroke-linecap="round" stroke-linejoin="round"/>
<path d="M1015.55 32.768C1013.53 32.768 1011.7 32.4413 1010.06 31.788C1008.42 31.1533 1007 30.2573 1005.8 29.1C1004.63 27.9427 1003.71 26.58 1003.06 25.012C1002.42 23.444 1002.11 21.736 1002.11 19.888C1002.11 18.0587 1002.42 16.3693 1003.06 14.82C1003.71 13.2707 1004.64 11.9173 1005.83 10.76C1007.03 9.60267 1008.45 8.70667 1010.12 8.072C1011.78 7.43733 1013.62 7.12 1015.66 7.12C1017.62 7.12 1019.41 7.428 1021.04 8.044C1022.66 8.64133 1024.06 9.49067 1025.24 10.592C1026.41 11.6933 1027.32 12.9907 1027.95 14.484C1028.59 15.9587 1028.9 17.5733 1028.9 19.328C1028.9 20.9893 1028.66 22.408 1028.18 23.584C1027.71 24.76 1027.05 25.656 1026.19 26.272C1025.33 26.888 1024.32 27.196 1023.16 27.196C1021.89 27.196 1020.89 26.8227 1020.14 26.076C1019.39 25.3293 1019.02 24.2373 1019.02 22.8V21.512L1019.1 20L1018.85 15.94V13.252H1022.66V22.324C1022.66 22.996 1022.79 23.4627 1023.05 23.724C1023.31 23.9853 1023.63 24.116 1024 24.116C1024.43 24.116 1024.8 23.948 1025.1 23.612C1025.41 23.276 1025.66 22.7627 1025.82 22.072C1025.99 21.3627 1026.08 20.4667 1026.08 19.384C1026.08 17.9653 1025.82 16.668 1025.32 15.492C1024.83 14.316 1024.12 13.2987 1023.19 12.44C1022.28 11.5813 1021.18 10.928 1019.89 10.48C1018.62 10.0133 1017.21 9.78 1015.66 9.78C1014.11 9.78 1012.69 10.032 1011.4 10.536C1010.12 11.04 1009.01 11.7493 1008.1 12.664C1007.18 13.56 1006.48 14.624 1005.97 15.856C1005.49 17.088 1005.24 18.432 1005.24 19.888C1005.24 21.3813 1005.49 22.7533 1005.97 24.004C1006.46 25.236 1007.15 26.3 1008.04 27.196C1008.96 28.1107 1010.05 28.82 1011.32 29.324C1012.59 29.828 1014 30.08 1015.55 30.08C1016.44 30.08 1017.37 29.9773 1018.32 29.772C1019.27 29.5853 1020.19 29.2773 1021.06 28.848L1021.96 31.424C1021.1 31.8533 1020.09 32.18 1018.94 32.404C1017.8 32.6467 1016.67 32.768 1015.55 32.768ZM1014.54 27.196C1013.34 27.196 1012.25 26.9067 1011.26 26.328C1010.29 25.7307 1009.52 24.9 1008.94 23.836C1008.36 22.7533 1008.07 21.512 1008.07 20.112C1008.07 18.712 1008.35 17.48 1008.91 16.416C1009.49 15.352 1010.26 14.5307 1011.24 13.952C1012.22 13.3547 1013.33 13.056 1014.54 13.056C1015.77 13.056 1016.83 13.336 1017.7 13.896C1018.58 14.456 1019.25 15.2587 1019.72 16.304C1020.19 17.3493 1020.42 18.6187 1020.42 20.112C1020.42 21.5867 1020.2 22.856 1019.75 23.92C1019.3 24.984 1018.64 25.796 1017.76 26.356C1016.9 26.916 1015.83 27.196 1014.54 27.196ZM1015.41 23.976C1016.08 23.976 1016.68 23.8267 1017.2 23.528C1017.74 23.2107 1018.16 22.7627 1018.46 22.184C1018.76 21.6053 1018.91 20.9147 1018.91 20.112C1018.91 19.2907 1018.76 18.6 1018.46 18.04C1018.16 17.48 1017.74 17.0507 1017.2 16.752C1016.68 16.4533 1016.08 16.304 1015.41 16.304C1014.74 16.304 1014.14 16.4533 1013.62 16.752C1013.09 17.0507 1012.68 17.4893 1012.38 18.068C1012.08 18.628 1011.94 19.3093 1011.94 20.112C1011.94 20.9147 1012.08 21.6053 1012.38 22.184C1012.68 22.744 1013.09 23.1827 1013.62 23.5C1014.14 23.8173 1014.74 23.976 1015.41 23.976Z" fill="white"/>
<path d="M1035.29 21.1758L1035.22 21.2148C1035.6 21.2148 1035.88 21.3418 1036.04 21.5957C1036.08 21.6738 1036.17 21.7812 1036.29 21.918C1036.88 22.4551 1037.89 22.7188 1039.3 22.7188C1041.02 22.7188 1041.88 22.3379 1041.88 21.5762C1041.88 21.2344 1041.72 21 1041.4 20.8828C1041.08 20.7656 1040.61 20.6875 1040 20.6582L1036.66 20.502C1036.26 20.4922 1035.91 20.4727 1035.63 20.4434C1035.35 20.4141 1034.98 20.3652 1034.53 20.2969C1034.08 20.2285 1033.7 20.1406 1033.38 20.0332C1033.07 19.9258 1032.73 19.7695 1032.37 19.5742C1032.01 19.3789 1031.71 19.1445 1031.49 18.8809C1031.27 18.6172 1031.08 18.2852 1030.92 17.8945C1030.77 17.5039 1030.69 17.0547 1030.69 16.5566C1030.69 14.9941 1031.4 13.8125 1032.84 13.0117C1034.27 12.2109 1036.23 11.8105 1038.7 11.8105C1040.97 11.8105 1042.86 12.1816 1044.35 12.9238C1045.85 13.666 1046.73 14.6621 1047.02 15.9219C1047.07 16.1758 1047.03 16.3711 1046.89 16.5176C1046.75 16.6641 1046.55 16.7324 1046.27 16.7324H1042.59C1042.15 16.7324 1041.89 16.6543 1041.81 16.5078C1041.76 16.4004 1041.72 16.332 1041.7 16.293C1041.31 15.5801 1040.32 15.2285 1038.71 15.2285C1036.91 15.2285 1036.01 15.6289 1036.01 16.4297C1036.01 16.6738 1036.12 16.8594 1036.32 16.9961C1036.53 17.1328 1036.77 17.2109 1037.06 17.2402C1037.34 17.2695 1037.77 17.2988 1038.35 17.3281L1041.74 17.4941C1045.4 17.6699 1047.22 19.0469 1047.23 21.625C1047.23 24.6816 1044.6 26.2051 1039.31 26.2051C1036.75 26.2051 1034.75 25.834 1033.31 25.0918C1031.86 24.3496 1031 23.3242 1030.72 22.0156C1030.67 21.752 1030.71 21.5469 1030.85 21.4004C1030.98 21.2539 1031.19 21.1758 1031.47 21.1758H1035.29ZM1061.43 12.5234C1061.65 12.1816 1061.97 12.0059 1062.4 11.9961H1066.85C1067.39 11.9961 1067.65 12.2598 1067.65 12.7969V25.1992C1067.65 25.7363 1067.39 26 1066.85 26H1063.28C1062.74 26 1062.48 25.7363 1062.48 25.1992V18.998H1062.23L1058.62 24.3594C1058.44 24.6133 1058.26 24.7402 1058.05 24.7402C1057.85 24.7402 1057.66 24.6133 1057.5 24.3594L1053.87 18.998H1053.64V25.1992C1053.64 25.7363 1053.38 26 1052.84 26H1049.25C1048.72 26 1048.45 25.7363 1048.45 25.1992V12.7969C1048.45 12.2598 1048.72 11.9961 1049.25 11.9961H1053.72C1054.15 11.9961 1054.47 12.1719 1054.67 12.5234L1057.94 17.6016H1058.17L1061.43 12.5234ZM1081.95 26L1081.92 26.0098C1081.44 26.0098 1081.14 25.7852 1081.01 25.3457L1080.65 24.252H1074.79L1074.43 25.3457C1074.3 25.7852 1074 26.0098 1073.52 26.0098H1069.62C1069.33 26.0098 1069.13 25.9219 1069.01 25.7461C1068.89 25.5703 1068.88 25.3457 1068.99 25.082L1073.49 12.6406C1073.66 12.2109 1073.96 11.9961 1074.41 11.9961H1081.07C1081.53 11.9961 1081.83 12.2109 1081.99 12.6406L1086.49 25.082C1086.6 25.3457 1086.59 25.5605 1086.47 25.7363C1086.35 25.9121 1086.15 26 1085.86 26H1081.95ZM1075.88 20.8535H1079.54L1077.91 15.873H1077.51L1075.88 20.8535ZM1100.11 21.8203L1103.83 25.0137C1104.12 25.2578 1104.22 25.4824 1104.15 25.6875C1104.07 25.8926 1103.84 25.9902 1103.47 25.9902H1098.79C1098.42 25.9902 1098.09 25.8535 1097.81 25.5703L1093.91 21.6738H1092.99V25.1895C1092.99 25.7266 1092.73 25.9902 1092.19 25.9902H1088.61C1088.07 25.9902 1087.81 25.7266 1087.81 25.1895V12.7871C1087.81 12.25 1088.07 11.9863 1088.61 11.9863H1098.85C1100.65 11.9863 1102.06 12.4258 1103.06 13.3047C1104.07 14.1836 1104.58 15.3555 1104.58 16.8301C1104.58 18.207 1104.19 19.3105 1103.4 20.1406C1102.62 20.9707 1101.55 21.459 1100.17 21.6152L1100.11 21.8203ZM1097.43 18.7344H1097.42C1098.62 18.7344 1099.22 18.2363 1099.22 17.2305C1099.22 16.2246 1098.63 15.7266 1097.43 15.7266H1092.99V18.7344H1097.43ZM1119.99 11.9961C1120.52 11.9961 1120.79 12.2598 1120.79 12.7969V15.0039C1120.79 15.541 1120.52 15.8047 1119.99 15.8047H1115.79V25.1992C1115.79 25.7363 1115.52 26 1114.99 26H1111.41C1110.88 26 1110.61 25.7363 1110.61 25.1992V15.8047H1106.41C1105.88 15.8047 1105.61 15.541 1105.61 15.0039V12.7969C1105.61 12.2598 1105.88 11.9961 1106.41 11.9961H1119.99ZM1131.68 26L1131.65 26.0098C1131.17 26.0098 1130.87 25.7852 1130.74 25.3457L1130.38 24.252H1124.52L1124.16 25.3457C1124.03 25.7852 1123.73 26.0098 1123.25 26.0098H1119.35C1119.06 26.0098 1118.85 25.9219 1118.74 25.7461C1118.62 25.5703 1118.61 25.3457 1118.72 25.082L1123.22 12.6406C1123.38 12.2109 1123.69 11.9961 1124.14 11.9961H1130.8C1131.26 11.9961 1131.56 12.2109 1131.71 12.6406L1136.22 25.082C1136.32 25.3457 1136.31 25.5605 1136.2 25.7363C1136.08 25.9121 1135.88 26 1135.58 26H1131.68ZM1125.61 20.8535H1129.26L1127.63 15.873H1127.23L1125.61 20.8535ZM1138.36 26L1138.34 26.0098C1137.8 26.0098 1137.54 25.7461 1137.54 25.209V12.8066C1137.54 12.2695 1137.8 12.0059 1138.34 12.0059H1148.18C1150.03 12.0059 1151.44 12.4551 1152.43 13.3535C1153.41 14.252 1153.9 15.4824 1153.9 17.0449C1153.9 18.6074 1153.41 19.8379 1152.43 20.7363C1151.44 21.6348 1150.04 22.084 1148.2 22.084H1142.74V25.1992C1142.74 25.7363 1142.48 26 1141.94 26H1138.36ZM1142.72 18.7539H1146.91C1147.46 18.7539 1147.87 18.6172 1148.14 18.3535C1148.41 18.0898 1148.55 17.7188 1148.55 17.25C1148.55 16.752 1148.4 16.3809 1148.11 16.127C1147.82 15.873 1147.42 15.7461 1146.92 15.7461H1142.72V18.7539ZM1155.91 26L1155.89 26.0098C1155.36 26.0098 1155.09 25.7461 1155.09 25.209V12.8066C1155.09 12.2695 1155.36 12.0059 1155.89 12.0059H1165.74C1167.58 12.0059 1169 12.4551 1169.99 13.3535C1170.97 14.252 1171.46 15.4824 1171.46 17.0449C1171.46 18.6074 1170.97 19.8379 1169.99 20.7363C1169 21.6348 1167.59 22.084 1165.76 22.084H1160.3V25.1992C1160.3 25.7363 1160.04 26 1159.5 26H1155.91ZM1160.28 18.7539H1164.47C1165.02 18.7539 1165.43 18.6172 1165.7 18.3535C1165.97 18.0898 1166.11 17.7188 1166.11 17.25C1166.11 16.752 1165.96 16.3809 1165.67 16.127C1165.38 15.873 1164.98 15.7461 1164.48 15.7461H1160.28V18.7539ZM1176.73 21.1758L1176.67 21.2148C1177.05 21.2148 1177.32 21.3418 1177.49 21.5957C1177.53 21.6738 1177.61 21.7812 1177.74 21.918C1178.33 22.4551 1179.33 22.7188 1180.75 22.7188C1182.47 22.7188 1183.33 22.3379 1183.33 21.5762C1183.33 21.2344 1183.17 21 1182.85 20.8828C1182.53 20.7656 1182.06 20.6875 1181.44 20.6582L1178.1 20.502C1177.7 20.4922 1177.36 20.4727 1177.08 20.4434C1176.79 20.4141 1176.42 20.3652 1175.97 20.2969C1175.52 20.2285 1175.14 20.1406 1174.83 20.0332C1174.52 19.9258 1174.18 19.7695 1173.81 19.5742C1173.45 19.3789 1173.16 19.1445 1172.94 18.8809C1172.71 18.6172 1172.53 18.2852 1172.37 17.8945C1172.21 17.5039 1172.13 17.0547 1172.13 16.5566C1172.13 14.9941 1172.85 13.8125 1174.28 13.0117C1175.72 12.2109 1177.67 11.8105 1180.14 11.8105C1182.42 11.8105 1184.3 12.1816 1185.8 12.9238C1187.29 13.666 1188.18 14.6621 1188.46 15.9219C1188.51 16.1758 1188.47 16.3711 1188.34 16.5176C1188.2 16.6641 1187.99 16.7324 1187.71 16.7324H1184.04C1183.6 16.7324 1183.34 16.6543 1183.26 16.5078C1183.21 16.4004 1183.17 16.332 1183.14 16.293C1182.76 15.5801 1181.76 15.2285 1180.15 15.2285C1178.36 15.2285 1177.46 15.6289 1177.46 16.4297C1177.46 16.6738 1177.56 16.8594 1177.77 16.9961C1177.97 17.1328 1178.22 17.2109 1178.5 17.2402C1178.79 17.2695 1179.21 17.2988 1179.79 17.3281L1183.19 17.4941C1186.84 17.6699 1188.67 19.0469 1188.68 21.625C1188.68 24.6816 1186.04 26.2051 1180.76 26.2051C1178.2 26.2051 1176.2 25.834 1174.75 25.0918C1173.31 24.3496 1172.45 23.3242 1172.16 22.0156C1172.12 21.752 1172.15 21.5469 1172.29 21.4004C1172.43 21.2539 1172.63 21.1758 1172.92 21.1758H1176.73Z" fill="white"/>
<rect x="1209" width="40" height="40" rx="10" fill="white"/>
<path d="M1225.91 27.9201L1232.43 21.4001C1233.2 20.6301 1233.2 19.3701 1232.43 18.6001L1225.91 12.0801" stroke="#FF3848" stroke-width="1.5" stroke-miterlimit="10" stroke-linecap="round" stroke-linejoin="round"/>
<path d="M1363.55 32.768C1361.53 32.768 1359.7 32.4413 1358.06 31.788C1356.42 31.1533 1355 30.2573 1353.8 29.1C1352.63 27.9427 1351.71 26.58 1351.06 25.012C1350.42 23.444 1350.11 21.736 1350.11 19.888C1350.11 18.0587 1350.42 16.3693 1351.06 14.82C1351.71 13.2707 1352.64 11.9173 1353.83 10.76C1355.03 9.60267 1356.45 8.70667 1358.12 8.072C1359.78 7.43733 1361.62 7.12 1363.66 7.12C1365.62 7.12 1367.41 7.428 1369.04 8.044C1370.66 8.64133 1372.06 9.49067 1373.24 10.592C1374.41 11.6933 1375.32 12.9907 1375.95 14.484C1376.59 15.9587 1376.9 17.5733 1376.9 19.328C1376.9 20.9893 1376.66 22.408 1376.18 23.584C1375.71 24.76 1375.05 25.656 1374.19 26.272C1373.33 26.888 1372.32 27.196 1371.16 27.196C1369.89 27.196 1368.89 26.8227 1368.14 26.076C1367.39 25.3293 1367.02 24.2373 1367.02 22.8V21.512L1367.1 20L1366.85 15.94V13.252H1370.66V22.324C1370.66 22.996 1370.79 23.4627 1371.05 23.724C1371.31 23.9853 1371.63 24.116 1372 24.116C1372.43 24.116 1372.8 23.948 1373.1 23.612C1373.41 23.276 1373.66 22.7627 1373.82 22.072C1373.99 21.3627 1374.08 20.4667 1374.08 19.384C1374.08 17.9653 1373.82 16.668 1373.32 15.492C1372.83 14.316 1372.12 13.2987 1371.19 12.44C1370.28 11.5813 1369.18 10.928 1367.89 10.48C1366.62 10.0133 1365.21 9.78 1363.66 9.78C1362.11 9.78 1360.69 10.032 1359.4 10.536C1358.12 11.04 1357.01 11.7493 1356.1 12.664C1355.18 13.56 1354.48 14.624 1353.97 15.856C1353.49 17.088 1353.24 18.432 1353.24 19.888C1353.24 21.3813 1353.49 22.7533 1353.97 24.004C1354.46 25.236 1355.15 26.3 1356.04 27.196C1356.96 28.1107 1358.05 28.82 1359.32 29.324C1360.59 29.828 1362 30.08 1363.55 30.08C1364.44 30.08 1365.37 29.9773 1366.32 29.772C1367.27 29.5853 1368.19 29.2773 1369.06 28.848L1369.96 31.424C1369.1 31.8533 1368.09 32.18 1366.94 32.404C1365.8 32.6467 1364.67 32.768 1363.55 32.768ZM1362.54 27.196C1361.34 27.196 1360.25 26.9067 1359.26 26.328C1358.29 25.7307 1357.52 24.9 1356.94 23.836C1356.36 22.7533 1356.07 21.512 1356.07 20.112C1356.07 18.712 1356.35 17.48 1356.91 16.416C1357.49 15.352 1358.26 14.5307 1359.24 13.952C1360.22 13.3547 1361.33 13.056 1362.54 13.056C1363.77 13.056 1364.83 13.336 1365.7 13.896C1366.58 14.456 1367.25 15.2587 1367.72 16.304C1368.19 17.3493 1368.42 18.6187 1368.42 20.112C1368.42 21.5867 1368.2 22.856 1367.75 23.92C1367.3 24.984 1366.64 25.796 1365.76 26.356C1364.9 26.916 1363.83 27.196 1362.54 27.196ZM1363.41 23.976C1364.08 23.976 1364.68 23.8267 1365.2 23.528C1365.74 23.2107 1366.16 22.7627 1366.46 22.184C1366.76 21.6053 1366.91 20.9147 1366.91 20.112C1366.91 19.2907 1366.76 18.6 1366.46 18.04C1366.16 17.48 1365.74 17.0507 1365.2 16.752C1364.68 16.4533 1364.08 16.304 1363.41 16.304C1362.74 16.304 1362.14 16.4533 1361.62 16.752C1361.09 17.0507 1360.68 17.4893 1360.38 18.068C1360.08 18.628 1359.94 19.3093 1359.94 20.112C1359.94 20.9147 1360.08 21.6053 1360.38 22.184C1360.68 22.744 1361.09 23.1827 1361.62 23.5C1362.14 23.8173 1362.74 23.976 1363.41 23.976Z" fill="white"/>
<path d="M1383.29 21.1758L1383.22 21.2148C1383.6 21.2148 1383.88 21.3418 1384.04 21.5957C1384.08 21.6738 1384.17 21.7812 1384.29 21.918C1384.88 22.4551 1385.89 22.7188 1387.3 22.7188C1389.02 22.7188 1389.88 22.3379 1389.88 21.5762C1389.88 21.2344 1389.72 21 1389.4 20.8828C1389.08 20.7656 1388.61 20.6875 1388 20.6582L1384.66 20.502C1384.26 20.4922 1383.91 20.4727 1383.63 20.4434C1383.35 20.4141 1382.98 20.3652 1382.53 20.2969C1382.08 20.2285 1381.7 20.1406 1381.38 20.0332C1381.07 19.9258 1380.73 19.7695 1380.37 19.5742C1380.01 19.3789 1379.71 19.1445 1379.49 18.8809C1379.27 18.6172 1379.08 18.2852 1378.92 17.8945C1378.77 17.5039 1378.69 17.0547 1378.69 16.5566C1378.69 14.9941 1379.4 13.8125 1380.84 13.0117C1382.27 12.2109 1384.23 11.8105 1386.7 11.8105C1388.97 11.8105 1390.86 12.1816 1392.35 12.9238C1393.85 13.666 1394.73 14.6621 1395.02 15.9219C1395.07 16.1758 1395.03 16.3711 1394.89 16.5176C1394.75 16.6641 1394.55 16.7324 1394.27 16.7324H1390.59C1390.15 16.7324 1389.89 16.6543 1389.81 16.5078C1389.76 16.4004 1389.72 16.332 1389.7 16.293C1389.31 15.5801 1388.32 15.2285 1386.71 15.2285C1384.91 15.2285 1384.01 15.6289 1384.01 16.4297C1384.01 16.6738 1384.12 16.8594 1384.32 16.9961C1384.53 17.1328 1384.77 17.2109 1385.06 17.2402C1385.34 17.2695 1385.77 17.2988 1386.35 17.3281L1389.74 17.4941C1393.4 17.6699 1395.22 19.0469 1395.23 21.625C1395.23 24.6816 1392.6 26.2051 1387.31 26.2051C1384.75 26.2051 1382.75 25.834 1381.31 25.0918C1379.86 24.3496 1379 23.3242 1378.72 22.0156C1378.67 21.752 1378.71 21.5469 1378.85 21.4004C1378.98 21.2539 1379.19 21.1758 1379.47 21.1758H1383.29ZM1409.43 12.5234C1409.65 12.1816 1409.97 12.0059 1410.4 11.9961H1414.85C1415.39 11.9961 1415.65 12.2598 1415.65 12.7969V25.1992C1415.65 25.7363 1415.39 26 1414.85 26H1411.28C1410.74 26 1410.48 25.7363 1410.48 25.1992V18.998H1410.23L1406.62 24.3594C1406.44 24.6133 1406.26 24.7402 1406.05 24.7402C1405.85 24.7402 1405.66 24.6133 1405.5 24.3594L1401.87 18.998H1401.64V25.1992C1401.64 25.7363 1401.38 26 1400.84 26H1397.25C1396.72 26 1396.45 25.7363 1396.45 25.1992V12.7969C1396.45 12.2598 1396.72 11.9961 1397.25 11.9961H1401.72C1402.15 11.9961 1402.47 12.1719 1402.67 12.5234L1405.94 17.6016H1406.17L1409.43 12.5234ZM1429.95 26L1429.92 26.0098C1429.44 26.0098 1429.14 25.7852 1429.01 25.3457L1428.65 24.252H1422.79L1422.43 25.3457C1422.3 25.7852 1422 26.0098 1421.52 26.0098H1417.62C1417.33 26.0098 1417.13 25.9219 1417.01 25.7461C1416.89 25.5703 1416.88 25.3457 1416.99 25.082L1421.49 12.6406C1421.66 12.2109 1421.96 11.9961 1422.41 11.9961H1429.07C1429.53 11.9961 1429.83 12.2109 1429.99 12.6406L1434.49 25.082C1434.6 25.3457 1434.59 25.5605 1434.47 25.7363C1434.35 25.9121 1434.15 26 1433.86 26H1429.95ZM1423.88 20.8535H1427.54L1425.91 15.873H1425.51L1423.88 20.8535ZM1448.11 21.8203L1451.83 25.0137C1452.12 25.2578 1452.22 25.4824 1452.15 25.6875C1452.07 25.8926 1451.84 25.9902 1451.47 25.9902H1446.79C1446.42 25.9902 1446.09 25.8535 1445.81 25.5703L1441.91 21.6738H1440.99V25.1895C1440.99 25.7266 1440.73 25.9902 1440.19 25.9902H1436.61C1436.07 25.9902 1435.81 25.7266 1435.81 25.1895V12.7871C1435.81 12.25 1436.07 11.9863 1436.61 11.9863H1446.85C1448.65 11.9863 1450.06 12.4258 1451.06 13.3047C1452.07 14.1836 1452.58 15.3555 1452.58 16.8301C1452.58 18.207 1452.19 19.3105 1451.4 20.1406C1450.62 20.9707 1449.55 21.459 1448.17 21.6152L1448.11 21.8203ZM1445.43 18.7344H1445.42C1446.62 18.7344 1447.22 18.2363 1447.22 17.2305C1447.22 16.2246 1446.63 15.7266 1445.43 15.7266H1440.99V18.7344H1445.43ZM1467.99 11.9961C1468.52 11.9961 1468.79 12.2598 1468.79 12.7969V15.0039C1468.79 15.541 1468.52 15.8047 1467.99 15.8047H1463.79V25.1992C1463.79 25.7363 1463.52 26 1462.99 26H1459.41C1458.88 26 1458.61 25.7363 1458.61 25.1992V15.8047H1454.41C1453.88 15.8047 1453.61 15.541 1453.61 15.0039V12.7969C1453.61 12.2598 1453.88 11.9961 1454.41 11.9961H1467.99ZM1479.68 26L1479.65 26.0098C1479.17 26.0098 1478.87 25.7852 1478.74 25.3457L1478.38 24.252H1472.52L1472.16 25.3457C1472.03 25.7852 1471.73 26.0098 1471.25 26.0098H1467.35C1467.06 26.0098 1466.85 25.9219 1466.74 25.7461C1466.62 25.5703 1466.61 25.3457 1466.72 25.082L1471.22 12.6406C1471.38 12.2109 1471.69 11.9961 1472.14 11.9961H1478.8C1479.26 11.9961 1479.56 12.2109 1479.71 12.6406L1484.22 25.082C1484.32 25.3457 1484.31 25.5605 1484.2 25.7363C1484.08 25.9121 1483.88 26 1483.58 26H1479.68ZM1473.61 20.8535H1477.26L1475.63 15.873H1475.23L1473.61 20.8535ZM1486.36 26L1486.34 26.0098C1485.8 26.0098 1485.54 25.7461 1485.54 25.209V12.8066C1485.54 12.2695 1485.8 12.0059 1486.34 12.0059H1496.18C1498.03 12.0059 1499.44 12.4551 1500.43 13.3535C1501.41 14.252 1501.9 15.4824 1501.9 17.0449C1501.9 18.6074 1501.41 19.8379 1500.43 20.7363C1499.44 21.6348 1498.04 22.084 1496.2 22.084H1490.74V25.1992C1490.74 25.7363 1490.48 26 1489.94 26H1486.36ZM1490.72 18.7539H1494.91C1495.46 18.7539 1495.87 18.6172 1496.14 18.3535C1496.41 18.0898 1496.55 17.7188 1496.55 17.25C1496.55 16.752 1496.4 16.3809 1496.11 16.127C1495.82 15.873 1495.42 15.7461 1494.92 15.7461H1490.72V18.7539ZM1503.91 26L1503.89 26.0098C1503.36 26.0098 1503.09 25.7461 1503.09 25.209V12.8066C1503.09 12.2695 1503.36 12.0059 1503.89 12.0059H1513.74C1515.58 12.0059 1517 12.4551 1517.99 13.3535C1518.97 14.252 1519.46 15.4824 1519.46 17.0449C1519.46 18.6074 1518.97 19.8379 1517.99 20.7363C1517 21.6348 1515.59 22.084 1513.76 22.084H1508.3V25.1992C1508.3 25.7363 1508.04 26 1507.5 26H1503.91ZM1508.28 18.7539H1512.47C1513.02 18.7539 1513.43 18.6172 1513.7 18.3535C1513.97 18.0898 1514.11 17.7188 1514.11 17.25C1514.11 16.752 1513.96 16.3809 1513.67 16.127C1513.38 15.873 1512.98 15.7461 1512.48 15.7461H1508.28V18.7539ZM1524.73 21.1758L1524.67 21.2148C1525.05 21.2148 1525.32 21.3418 1525.49 21.5957C1525.53 21.6738 1525.61 21.7812 1525.74 21.918C1526.33 22.4551 1527.33 22.7188 1528.75 22.7188C1530.47 22.7188 1531.33 22.3379 1531.33 21.5762C1531.33 21.2344 1531.17 21 1530.85 20.8828C1530.53 20.7656 1530.06 20.6875 1529.44 20.6582L1526.1 20.502C1525.7 20.4922 1525.36 20.4727 1525.08 20.4434C1524.79 20.4141 1524.42 20.3652 1523.97 20.2969C1523.52 20.2285 1523.14 20.1406 1522.83 20.0332C1522.52 19.9258 1522.18 19.7695 1521.81 19.5742C1521.45 19.3789 1521.16 19.1445 1520.94 18.8809C1520.71 18.6172 1520.53 18.2852 1520.37 17.8945C1520.21 17.5039 1520.13 17.0547 1520.13 16.5566C1520.13 14.9941 1520.85 13.8125 1522.28 13.0117C1523.72 12.2109 1525.67 11.8105 1528.14 11.8105C1530.42 11.8105 1532.3 12.1816 1533.8 12.9238C1535.29 13.666 1536.18 14.6621 1536.46 15.9219C1536.51 16.1758 1536.47 16.3711 1536.34 16.5176C1536.2 16.6641 1535.99 16.7324 1535.71 16.7324H1532.04C1531.6 16.7324 1531.34 16.6543 1531.26 16.5078C1531.21 16.4004 1531.17 16.332 1531.14 16.293C1530.76 15.5801 1529.76 15.2285 1528.15 15.2285C1526.36 15.2285 1525.46 15.6289 1525.46 16.4297C1525.46 16.6738 1525.56 16.8594 1525.77 16.9961C1525.97 17.1328 1526.22 17.2109 1526.5 17.2402C1526.79 17.2695 1527.21 17.2988 1527.79 17.3281L1531.19 17.4941C1534.84 17.6699 1536.67 19.0469 1536.68 21.625C1536.68 24.6816 1534.04 26.2051 1528.76 26.2051C1526.2 26.2051 1524.2 25.834 1522.75 25.0918C1521.31 24.3496 1520.45 23.3242 1520.16 22.0156C1520.12 21.752 1520.15 21.5469 1520.29 21.4004C1520.43 21.2539 1520.63 21.1758 1520.92 21.1758H1524.73Z" fill="white"/>
<rect x="1557" width="40" height="40" rx="10" fill="white"/>
<path d="M1573.91 27.9201L1580.43 21.4001C1581.2 20.6301 1581.2 19.3701 1580.43 18.6001L1573.91 12.0801" stroke="#FF3848" stroke-width="1.5" stroke-miterlimit="10" stroke-linecap="round" stroke-linejoin="round"/>
<path d="M1711.55 32.768C1709.53 32.768 1707.7 32.4413 1706.06 31.788C1704.42 31.1533 1703 30.2573 1701.8 29.1C1700.63 27.9427 1699.71 26.58 1699.06 25.012C1698.42 23.444 1698.11 21.736 1698.11 19.888C1698.11 18.0587 1698.42 16.3693 1699.06 14.82C1699.71 13.2707 1700.64 11.9173 1701.83 10.76C1703.03 9.60267 1704.45 8.70667 1706.12 8.072C1707.78 7.43733 1709.62 7.12 1711.66 7.12C1713.62 7.12 1715.41 7.428 1717.04 8.044C1718.66 8.64133 1720.06 9.49067 1721.24 10.592C1722.41 11.6933 1723.32 12.9907 1723.95 14.484C1724.59 15.9587 1724.9 17.5733 1724.9 19.328C1724.9 20.9893 1724.66 22.408 1724.18 23.584C1723.71 24.76 1723.05 25.656 1722.19 26.272C1721.33 26.888 1720.32 27.196 1719.16 27.196C1717.89 27.196 1716.89 26.8227 1716.14 26.076C1715.39 25.3293 1715.02 24.2373 1715.02 22.8V21.512L1715.1 20L1714.85 15.94V13.252H1718.66V22.324C1718.66 22.996 1718.79 23.4627 1719.05 23.724C1719.31 23.9853 1719.63 24.116 1720 24.116C1720.43 24.116 1720.8 23.948 1721.1 23.612C1721.41 23.276 1721.66 22.7627 1721.82 22.072C1721.99 21.3627 1722.08 20.4667 1722.08 19.384C1722.08 17.9653 1721.82 16.668 1721.32 15.492C1720.83 14.316 1720.12 13.2987 1719.19 12.44C1718.28 11.5813 1717.18 10.928 1715.89 10.48C1714.62 10.0133 1713.21 9.78 1711.66 9.78C1710.11 9.78 1708.69 10.032 1707.4 10.536C1706.12 11.04 1705.01 11.7493 1704.1 12.664C1703.18 13.56 1702.48 14.624 1701.97 15.856C1701.49 17.088 1701.24 18.432 1701.24 19.888C1701.24 21.3813 1701.49 22.7533 1701.97 24.004C1702.46 25.236 1703.15 26.3 1704.04 27.196C1704.96 28.1107 1706.05 28.82 1707.32 29.324C1708.59 29.828 1710 30.08 1711.55 30.08C1712.44 30.08 1713.37 29.9773 1714.32 29.772C1715.27 29.5853 1716.19 29.2773 1717.06 28.848L1717.96 31.424C1717.1 31.8533 1716.09 32.18 1714.94 32.404C1713.8 32.6467 1712.67 32.768 1711.55 32.768ZM1710.54 27.196C1709.34 27.196 1708.25 26.9067 1707.26 26.328C1706.29 25.7307 1705.52 24.9 1704.94 23.836C1704.36 22.7533 1704.07 21.512 1704.07 20.112C1704.07 18.712 1704.35 17.48 1704.91 16.416C1705.49 15.352 1706.26 14.5307 1707.24 13.952C1708.22 13.3547 1709.33 13.056 1710.54 13.056C1711.77 13.056 1712.83 13.336 1713.7 13.896C1714.58 14.456 1715.25 15.2587 1715.72 16.304C1716.19 17.3493 1716.42 18.6187 1716.42 20.112C1716.42 21.5867 1716.2 22.856 1715.75 23.92C1715.3 24.984 1714.64 25.796 1713.76 26.356C1712.9 26.916 1711.83 27.196 1710.54 27.196ZM1711.41 23.976C1712.08 23.976 1712.68 23.8267 1713.2 23.528C1713.74 23.2107 1714.16 22.7627 1714.46 22.184C1714.76 21.6053 1714.91 20.9147 1714.91 20.112C1714.91 19.2907 1714.76 18.6 1714.46 18.04C1714.16 17.48 1713.74 17.0507 1713.2 16.752C1712.68 16.4533 1712.08 16.304 1711.41 16.304C1710.74 16.304 1710.14 16.4533 1709.62 16.752C1709.09 17.0507 1708.68 17.4893 1708.38 18.068C1708.08 18.628 1707.94 19.3093 1707.94 20.112C1707.94 20.9147 1708.08 21.6053 1708.38 22.184C1708.68 22.744 1709.09 23.1827 1709.62 23.5C1710.14 23.8173 1710.74 23.976 1711.41 23.976Z" fill="white"/>
<path d="M1731.29 21.1758L1731.22 21.2148C1731.6 21.2148 1731.88 21.3418 1732.04 21.5957C1732.08 21.6738 1732.17 21.7812 1732.29 21.918C1732.88 22.4551 1733.89 22.7188 1735.3 22.7188C1737.02 22.7188 1737.88 22.3379 1737.88 21.5762C1737.88 21.2344 1737.72 21 1737.4 20.8828C1737.08 20.7656 1736.61 20.6875 1736 20.6582L1732.66 20.502C1732.26 20.4922 1731.91 20.4727 1731.63 20.4434C1731.35 20.4141 1730.98 20.3652 1730.53 20.2969C1730.08 20.2285 1729.7 20.1406 1729.38 20.0332C1729.07 19.9258 1728.73 19.7695 1728.37 19.5742C1728.01 19.3789 1727.71 19.1445 1727.49 18.8809C1727.27 18.6172 1727.08 18.2852 1726.92 17.8945C1726.77 17.5039 1726.69 17.0547 1726.69 16.5566C1726.69 14.9941 1727.4 13.8125 1728.84 13.0117C1730.27 12.2109 1732.23 11.8105 1734.7 11.8105C1736.97 11.8105 1738.86 12.1816 1740.35 12.9238C1741.85 13.666 1742.73 14.6621 1743.02 15.9219C1743.07 16.1758 1743.03 16.3711 1742.89 16.5176C1742.75 16.6641 1742.55 16.7324 1742.27 16.7324H1738.59C1738.15 16.7324 1737.89 16.6543 1737.81 16.5078C1737.76 16.4004 1737.72 16.332 1737.7 16.293C1737.31 15.5801 1736.32 15.2285 1734.71 15.2285C1732.91 15.2285 1732.01 15.6289 1732.01 16.4297C1732.01 16.6738 1732.12 16.8594 1732.32 16.9961C1732.53 17.1328 1732.77 17.2109 1733.06 17.2402C1733.34 17.2695 1733.77 17.2988 1734.35 17.3281L1737.74 17.4941C1741.4 17.6699 1743.22 19.0469 1743.23 21.625C1743.23 24.6816 1740.6 26.2051 1735.31 26.2051C1732.75 26.2051 1730.75 25.834 1729.31 25.0918C1727.86 24.3496 1727 23.3242 1726.72 22.0156C1726.67 21.752 1726.71 21.5469 1726.85 21.4004C1726.98 21.2539 1727.19 21.1758 1727.47 21.1758H1731.29ZM1757.43 12.5234C1757.65 12.1816 1757.97 12.0059 1758.4 11.9961H1762.85C1763.39 11.9961 1763.65 12.2598 1763.65 12.7969V25.1992C1763.65 25.7363 1763.39 26 1762.85 26H1759.28C1758.74 26 1758.48 25.7363 1758.48 25.1992V18.998H1758.23L1754.62 24.3594C1754.44 24.6133 1754.26 24.7402 1754.05 24.7402C1753.85 24.7402 1753.66 24.6133 1753.5 24.3594L1749.87 18.998H1749.64V25.1992C1749.64 25.7363 1749.38 26 1748.84 26H1745.25C1744.72 26 1744.45 25.7363 1744.45 25.1992V12.7969C1744.45 12.2598 1744.72 11.9961 1745.25 11.9961H1749.72C1750.15 11.9961 1750.47 12.1719 1750.67 12.5234L1753.94 17.6016H1754.17L1757.43 12.5234ZM1777.95 26L1777.92 26.0098C1777.44 26.0098 1777.14 25.7852 1777.01 25.3457L1776.65 24.252H1770.79L1770.43 25.3457C1770.3 25.7852 1770 26.0098 1769.52 26.0098H1765.62C1765.33 26.0098 1765.13 25.9219 1765.01 25.7461C1764.89 25.5703 1764.88 25.3457 1764.99 25.082L1769.49 12.6406C1769.66 12.2109 1769.96 11.9961 1770.41 11.9961H1777.07C1777.53 11.9961 1777.83 12.2109 1777.99 12.6406L1782.49 25.082C1782.6 25.3457 1782.59 25.5605 1782.47 25.7363C1782.35 25.9121 1782.15 26 1781.86 26H1777.95ZM1771.88 20.8535H1775.54L1773.91 15.873H1773.51L1771.88 20.8535ZM1796.11 21.8203L1799.83 25.0137C1800.12 25.2578 1800.22 25.4824 1800.15 25.6875C1800.07 25.8926 1799.84 25.9902 1799.47 25.9902H1794.79C1794.42 25.9902 1794.09 25.8535 1793.81 25.5703L1789.91 21.6738H1788.99V25.1895C1788.99 25.7266 1788.73 25.9902 1788.19 25.9902H1784.61C1784.07 25.9902 1783.81 25.7266 1783.81 25.1895V12.7871C1783.81 12.25 1784.07 11.9863 1784.61 11.9863H1794.85C1796.65 11.9863 1798.06 12.4258 1799.06 13.3047C1800.07 14.1836 1800.58 15.3555 1800.58 16.8301C1800.58 18.207 1800.19 19.3105 1799.4 20.1406C1798.62 20.9707 1797.55 21.459 1796.17 21.6152L1796.11 21.8203ZM1793.43 18.7344H1793.42C1794.62 18.7344 1795.22 18.2363 1795.22 17.2305C1795.22 16.2246 1794.63 15.7266 1793.43 15.7266H1788.99V18.7344H1793.43ZM1815.99 11.9961C1816.52 11.9961 1816.79 12.2598 1816.79 12.7969V15.0039C1816.79 15.541 1816.52 15.8047 1815.99 15.8047H1811.79V25.1992C1811.79 25.7363 1811.52 26 1810.99 26H1807.41C1806.88 26 1806.61 25.7363 1806.61 25.1992V15.8047H1802.41C1801.88 15.8047 1801.61 15.541 1801.61 15.0039V12.7969C1801.61 12.2598 1801.88 11.9961 1802.41 11.9961H1815.99ZM1827.68 26L1827.65 26.0098C1827.17 26.0098 1826.87 25.7852 1826.74 25.3457L1826.38 24.252H1820.52L1820.16 25.3457C1820.03 25.7852 1819.73 26.0098 1819.25 26.0098H1815.35C1815.06 26.0098 1814.85 25.9219 1814.74 25.7461C1814.62 25.5703 1814.61 25.3457 1814.72 25.082L1819.22 12.6406C1819.38 12.2109 1819.69 11.9961 1820.14 11.9961H1826.8C1827.26 11.9961 1827.56 12.2109 1827.71 12.6406L1832.22 25.082C1832.32 25.3457 1832.31 25.5605 1832.2 25.7363C1832.08 25.9121 1831.88 26 1831.58 26H1827.68ZM1821.61 20.8535H1825.26L1823.63 15.873H1823.23L1821.61 20.8535ZM1834.36 26L1834.34 26.0098C1833.8 26.0098 1833.54 25.7461 1833.54 25.209V12.8066C1833.54 12.2695 1833.8 12.0059 1834.34 12.0059H1844.18C1846.03 12.0059 1847.44 12.4551 1848.43 13.3535C1849.41 14.252 1849.9 15.4824 1849.9 17.0449C1849.9 18.6074 1849.41 19.8379 1848.43 20.7363C1847.44 21.6348 1846.04 22.084 1844.2 22.084H1838.74V25.1992C1838.74 25.7363 1838.48 26 1837.94 26H1834.36ZM1838.72 18.7539H1842.91C1843.46 18.7539 1843.87 18.6172 1844.14 18.3535C1844.41 18.0898 1844.55 17.7188 1844.55 17.25C1844.55 16.752 1844.4 16.3809 1844.11 16.127C1843.82 15.873 1843.42 15.7461 1842.92 15.7461H1838.72V18.7539ZM1851.91 26L1851.89 26.0098C1851.36 26.0098 1851.09 25.7461 1851.09 25.209V12.8066C1851.09 12.2695 1851.36 12.0059 1851.89 12.0059H1861.74C1863.58 12.0059 1865 12.4551 1865.99 13.3535C1866.97 14.252 1867.46 15.4824 1867.46 17.0449C1867.46 18.6074 1866.97 19.8379 1865.99 20.7363C1865 21.6348 1863.59 22.084 1861.76 22.084H1856.3V25.1992C1856.3 25.7363 1856.04 26 1855.5 26H1851.91ZM1856.28 18.7539H1860.47C1861.02 18.7539 1861.43 18.6172 1861.7 18.3535C1861.97 18.0898 1862.11 17.7188 1862.11 17.25C1862.11 16.752 1861.96 16.3809 1861.67 16.127C1861.38 15.873 1860.98 15.7461 1860.48 15.7461H1856.28V18.7539ZM1872.73 21.1758L1872.67 21.2148C1873.05 21.2148 1873.32 21.3418 1873.49 21.5957C1873.53 21.6738 1873.61 21.7812 1873.74 21.918C1874.33 22.4551 1875.33 22.7188 1876.75 22.7188C1878.47 22.7188 1879.33 22.3379 1879.33 21.5762C1879.33 21.2344 1879.17 21 1878.85 20.8828C1878.53 20.7656 1878.06 20.6875 1877.44 20.6582L1874.1 20.502C1873.7 20.4922 1873.36 20.4727 1873.08 20.4434C1872.79 20.4141 1872.42 20.3652 1871.97 20.2969C1871.52 20.2285 1871.14 20.1406 1870.83 20.0332C1870.52 19.9258 1870.18 19.7695 1869.81 19.5742C1869.45 19.3789 1869.16 19.1445 1868.94 18.8809C1868.71 18.6172 1868.53 18.2852 1868.37 17.8945C1868.21 17.5039 1868.13 17.0547 1868.13 16.5566C1868.13 14.9941 1868.85 13.8125 1870.28 13.0117C1871.72 12.2109 1873.67 11.8105 1876.14 11.8105C1878.42 11.8105 1880.3 12.1816 1881.8 12.9238C1883.29 13.666 1884.18 14.6621 1884.46 15.9219C1884.51 16.1758 1884.47 16.3711 1884.34 16.5176C1884.2 16.6641 1883.99 16.7324 1883.71 16.7324H1880.04C1879.6 16.7324 1879.34 16.6543 1879.26 16.5078C1879.21 16.4004 1879.17 16.332 1879.14 16.293C1878.76 15.5801 1877.76 15.2285 1876.15 15.2285C1874.36 15.2285 1873.46 15.6289 1873.46 16.4297C1873.46 16.6738 1873.56 16.8594 1873.77 16.9961C1873.97 17.1328 1874.22 17.2109 1874.5 17.2402C1874.79 17.2695 1875.21 17.2988 1875.79 17.3281L1879.19 17.4941C1882.84 17.6699 1884.67 19.0469 1884.68 21.625C1884.68 24.6816 1882.04 26.2051 1876.76 26.2051C1874.2 26.2051 1872.2 25.834 1870.75 25.0918C1869.31 24.3496 1868.45 23.3242 1868.16 22.0156C1868.12 21.752 1868.15 21.5469 1868.29 21.4004C1868.43 21.2539 1868.63 21.1758 1868.92 21.1758H1872.73Z" fill="white"/>
</svg>
