<svg width="122" height="125" viewBox="0 0 122 125" fill="none" xmlns="http://www.w3.org/2000/svg">
<g filter="url(#filter0_d_72_1047)">
<path d="M119 59.5C119 63.4487 88.2109 63.3009 87.241 66.9433C86.2327 70.7119 112.938 85.9664 111.029 89.2654C109.092 92.6122 82.5179 77.0852 79.8023 79.8023C77.0867 82.5195 92.6122 109.092 89.2654 111.029C85.9664 112.938 70.7119 86.2327 66.9433 87.241C63.3009 88.2139 63.4487 119 59.5 119C55.5513 119 55.6991 88.2109 52.0567 87.241C48.2881 86.2327 33.0336 112.938 29.7346 111.029C26.3878 109.092 41.9148 82.5179 39.1977 79.8023C36.4805 77.0867 9.90791 92.6122 7.97127 89.2654C6.06235 85.9664 32.7673 70.7119 31.759 66.9433C30.786 63.3009 0 63.4487 0 59.5C0 55.5513 30.7891 55.6991 31.759 52.0567C32.7673 48.2881 6.06235 33.0336 7.97127 29.7346C9.90791 26.3878 36.4821 41.9148 39.1977 39.1977C41.9133 36.4805 26.3878 9.90795 29.7346 7.97131C33.0336 6.06239 48.2881 32.7673 52.0567 31.759C55.6991 30.7861 55.5513 0 59.5 0C63.4487 0 63.3009 30.7891 66.9433 31.759C70.7119 32.7673 85.9664 6.06239 89.2654 7.97131C92.6122 9.90795 77.0852 36.4821 79.8023 39.1977C82.5195 41.9133 109.092 26.3878 111.029 29.7346C112.938 33.0336 86.2327 48.2881 87.241 52.0567C88.2109 55.6991 119 55.5513 119 59.5Z" fill="#FF3848"/>
<path d="M30.0479 42.4711C30.6467 42.7003 31.228 42.9151 31.7862 43.1114C33.3193 43.6507 34.9261 44.1414 36.3679 44.3715C37.0816 44.4853 37.9903 44.5756 38.9457 44.4748C39.8421 44.3801 41.4182 44.049 42.7342 42.7322L39.1977 39.1977L42.7342 42.7322C44.0497 41.4159 44.3802 39.8403 44.4746 38.9443C44.5752 37.9892 44.4849 37.0807 44.3709 36.3671C44.1408 34.9253 43.6501 33.3186 43.1108 31.7855C42.9144 31.2272 42.6995 30.6458 42.4703 30.047C42.8744 30.5428 43.271 31.0176 43.6569 31.465C44.7207 32.6982 45.875 33.9267 47.0195 34.8461C47.5867 35.3018 48.3343 35.8318 49.2179 36.2182C50.052 36.5829 51.5699 37.0645 53.3471 36.5896L30.0479 42.4711ZM30.0479 42.4711C30.5434 42.8749 31.0178 43.2712 31.465 43.6569C32.6982 44.7207 33.9266 45.875 34.8461 47.0195C35.3017 47.5867 35.8317 48.3343 36.2181 49.2179C36.5826 50.0514 37.0637 51.5677 36.5906 53.3432L30.0479 42.4711ZM59.4999 25.0102C59.3781 25.8089 59.251 26.5758 59.1174 27.297C58.8222 28.8904 58.4504 30.5212 57.9392 31.8779C57.6866 32.5486 57.3174 33.3787 56.7608 34.1552C56.2434 34.877 55.1695 36.1021 53.3491 36.5891L59.4999 25.0102ZM59.4999 25.0102C59.6217 25.8094 59.7489 26.5767 59.8826 27.2984C60.1778 28.8916 60.5496 30.5224 61.0609 31.8792C61.3136 32.5498 61.6829 33.3801 62.2399 34.1567C62.758 34.879 63.8336 36.1052 65.6568 36.5906M59.4999 25.0102L65.6568 36.5906M65.6568 36.5906C67.4323 37.0638 68.9486 36.5827 69.7821 36.2182C70.6657 35.8318 71.4133 35.3017 71.9805 34.8461C73.125 33.9267 74.2793 32.6982 75.3431 31.465C75.7288 31.0179 76.1251 30.5434 76.5289 30.048C76.2997 30.6467 76.0849 31.228 75.8886 31.7862C75.3493 33.3193 74.8586 34.9261 74.6285 36.3679C74.5147 37.0816 74.4244 37.9903 74.5253 38.9457C74.6199 39.8421 74.951 41.4182 76.2678 42.7342C77.5841 44.0497 79.1597 44.3802 80.0557 44.4746C81.0108 44.5752 81.9193 44.4849 82.6329 44.3709C84.0747 44.1408 85.6814 43.6501 87.2145 43.1108C87.7728 42.9144 88.3542 42.6995 88.953 42.4703C88.4573 42.8744 87.9825 43.2709 87.535 43.6569C86.3018 44.7207 85.0734 45.875 84.1539 47.0195C83.6983 47.5867 83.1683 48.3343 82.7819 49.2179C82.4174 50.0514 81.9363 51.5677 82.4094 53.3432C82.4099 53.3452 82.4104 53.3471 82.4109 53.3491C82.8975 55.1687 84.1218 56.2426 84.8433 56.7601C85.6199 57.3171 86.4503 57.6864 87.1209 57.9391C88.4776 58.4504 90.1084 58.8222 91.7017 59.1174C92.4231 59.2511 93.1902 59.3782 93.9892 59.5C93.1902 59.6218 92.4231 59.7489 91.7017 59.8826C90.1084 60.1778 88.4776 60.5496 87.1209 61.0609C86.4503 61.3136 85.6199 61.6829 84.8433 62.2399C84.1218 62.7574 82.8975 63.8313 82.4109 65.6509L65.6568 36.5906ZM42.4711 88.952C42.875 88.4566 43.2712 87.9821 43.6569 87.535C44.7207 86.3018 45.875 85.0733 47.0195 84.1539C47.5867 83.6983 48.3343 83.1682 49.2179 82.7818C50.0523 82.4169 51.571 81.9352 53.3491 82.4109C55.1687 82.8974 56.2426 84.1218 56.7601 84.8433C57.3171 85.6199 57.6864 86.4503 57.9391 87.1208C58.4504 88.4776 58.8222 90.1084 59.1174 91.7017C59.2511 92.4233 59.3783 93.1906 59.5001 93.9899C59.6219 93.1911 59.749 92.4242 59.8826 91.703C60.1778 90.1096 60.5496 88.4788 61.0608 87.1221C61.3134 86.4514 61.6826 85.6213 62.2392 84.8448C62.7566 84.123 63.8305 82.8979 65.6509 82.4109L42.4711 88.952ZM42.4711 88.952C42.7003 88.3533 42.9151 87.772 43.1114 87.2138C43.6507 85.6807 44.1414 84.0739 44.3715 82.6321C44.4853 81.9184 44.5756 81.0097 44.4748 80.0543C44.3801 79.1579 44.049 77.5818 42.7322 76.2658L39.1977 79.8023L42.7322 76.2658C41.4159 74.9503 39.8403 74.6198 38.9443 74.5254C37.9892 74.4248 37.0807 74.5151 36.3671 74.6291C34.9253 74.8592 33.3186 75.3499 31.7855 75.8892C31.2272 76.0856 30.6458 76.3005 30.047 76.5297C30.5427 76.1256 31.0175 75.7291 31.465 75.3431C32.6982 74.2793 33.9266 73.125 34.8461 71.9805C35.3017 71.4133 35.8317 70.6658 36.2181 69.7821C36.583 68.9477 37.0648 67.429 36.5891 65.6509C36.1021 63.8305 34.8769 62.7566 34.1552 62.2392C33.3787 61.6826 32.5485 61.3134 31.8779 61.0608C30.5211 60.5496 28.8903 60.1778 27.297 59.8826C26.5757 59.749 25.8089 59.6219 25.0101 59.5001C25.8094 59.3783 26.5767 59.2511 27.2983 59.1174C28.8916 58.8222 30.5224 58.4504 31.8791 57.9391C32.5497 57.6864 33.3801 57.3171 34.1567 56.7601C34.8782 56.2426 36.1025 55.1687 36.5891 53.3491L42.4711 88.952ZM82.4094 65.6568C81.9363 67.4323 82.4174 68.9486 82.7819 69.7821C83.1683 70.6658 83.6983 71.4133 84.1539 71.9805C85.0734 73.125 86.3018 74.2793 87.535 75.3431C87.9822 75.7288 88.4566 76.1251 88.9521 76.529C88.3534 76.2997 87.772 76.0849 87.2138 75.8886C85.6807 75.3493 84.0739 74.8586 82.6321 74.6285C81.9184 74.5147 81.0097 74.4244 80.0543 74.5253C79.1579 74.6199 77.5818 74.951 76.2658 76.2678C74.9503 77.5841 74.6198 79.1597 74.5254 80.0557C74.4248 81.0108 74.5151 81.9193 74.6291 82.6329C74.8592 84.0747 75.3499 85.6814 75.8892 87.2145C76.0856 87.7728 76.3005 88.3542 76.5297 88.953C76.1256 88.4572 75.729 87.9824 75.3431 87.535C74.2793 86.3018 73.125 85.0733 71.9805 84.1539C71.4133 83.6983 70.6657 83.1682 69.7821 82.7818C68.948 82.4171 67.4301 81.9355 65.653 82.4104L82.4094 65.6568Z" stroke="#FF3848" stroke-width="10"/>
</g>
<defs>
<filter id="filter0_d_72_1047" x="0" y="0" width="121.694" height="124.51" filterUnits="userSpaceOnUse" color-interpolation-filters="sRGB">
<feFlood flood-opacity="0" result="BackgroundImageFix"/>
<feColorMatrix in="SourceAlpha" type="matrix" values="0 0 0 0 0 0 0 0 0 0 0 0 0 0 0 0 0 0 127 0" result="hardAlpha"/>
<feOffset dx="2.69402" dy="5.51049"/>
<feComposite in2="hardAlpha" operator="out"/>
<feColorMatrix type="matrix" values="0 0 0 0 0.309804 0 0 0 0 0.0588235 0 0 0 0 0.0784314 0 0 0 1 0"/>
<feBlend mode="normal" in2="BackgroundImageFix" result="effect1_dropShadow_72_1047"/>
<feBlend mode="normal" in="SourceGraphic" in2="effect1_dropShadow_72_1047" result="shape"/>
</filter>
</defs>
</svg>
